<?xml version="1.0" encoding="UTF-8" standalone="no"?>
<!DOCTYPE svg PUBLIC "-//W3C//DTD SVG 1.1//EN"
 "http://www.w3.org/Graphics/SVG/1.1/DTD/svg11.dtd">
<!-- Generated by graphviz version 2.50.0 (20211204.2007)
 -->
<!-- Title: G Pages: 1 -->
<svg width="400pt" height="631pt"
 viewBox="0.00 0.00 399.74 631.12" xmlns="http://www.w3.org/2000/svg" xmlns:xlink="http://www.w3.org/1999/xlink">
<g id="graph0" class="graph" transform="scale(1 1) rotate(0) translate(4 627.12)">
<title>G</title>
<polygon fill="white" stroke="transparent" points="-4,4 -4,-627.12 395.74,-627.12 395.74,4 -4,4"/>
<!-- Node_1 -->
<g id="node1" class="node">
<title>Node_1</title>
<polygon fill="darkcyan" stroke="black" points="44,-516.5 44,-608.5 220,-608.5 220,-516.5 44,-516.5"/>
<text text-anchor="middle" x="84" y="-558.8" font-family="Times,serif" font-size="14.00">Constructor</text>
<polyline fill="none" stroke="black" points="124,-516.5 124,-608.5 "/>
<text text-anchor="middle" x="172" y="-593.3" font-family="Times,serif" font-size="14.00">a</text>
<polyline fill="none" stroke="black" points="124,-585.5 220,-585.5 "/>
<text text-anchor="middle" x="172" y="-570.3" font-family="Times,serif" font-size="14.00">#0</text>
<polyline fill="none" stroke="black" points="124,-562.5 220,-562.5 "/>
<text text-anchor="middle" x="172" y="-547.3" font-family="Times,serif" font-size="14.00">0x16B77F1C0</text>
<polyline fill="none" stroke="black" points="124,-539.5 220,-539.5 "/>
<text text-anchor="middle" x="172" y="-524.3" font-family="Times,serif" font-size="14.00">value = 0</text>
</g>
<!-- Node_2 -->
<g id="node2" class="node">
<title>Node_2</title>
<polygon fill="darkcyan" stroke="black" points="45,-387.5 45,-479.5 219,-479.5 219,-387.5 45,-387.5"/>
<text text-anchor="middle" x="85" y="-429.8" font-family="Times,serif" font-size="14.00">Constructor</text>
<polyline fill="none" stroke="black" points="125,-387.5 125,-479.5 "/>
<text text-anchor="middle" x="172" y="-464.3" font-family="Times,serif" font-size="14.00">nrvo</text>
<polyline fill="none" stroke="black" points="125,-456.5 219,-456.5 "/>
<text text-anchor="middle" x="172" y="-441.3" font-family="Times,serif" font-size="14.00">#1</text>
<polyline fill="none" stroke="black" points="125,-433.5 219,-433.5 "/>
<text text-anchor="middle" x="172" y="-418.3" font-family="Times,serif" font-size="14.00">0x16B77F170</text>
<polyline fill="none" stroke="black" points="125,-410.5 219,-410.5 "/>
<text text-anchor="middle" x="172" y="-395.3" font-family="Times,serif" font-size="14.00">value = 10</text>
</g>
<!-- Node_1&#45;&gt;Node_2 -->
<g id="edge1" class="edge">
<title>Node_1&#45;&gt;Node_2</title>
<path fill="none" stroke="blue" d="M132,-516.37C132,-507.86 132,-498.87 132,-490.09"/>
<polygon fill="blue" stroke="blue" points="135.5,-489.92 132,-479.92 128.5,-489.92 135.5,-489.92"/>
</g>
<!-- Node_3 -->
<g id="node3" class="node">
<title>Node_3</title>
<path fill="#ff6e50" stroke="black" d="M12,-258.5C12,-258.5 252,-258.5 252,-258.5 258,-258.5 264,-264.5 264,-270.5 264,-270.5 264,-338.5 264,-338.5 264,-344.5 258,-350.5 252,-350.5 252,-350.5 12,-350.5 12,-350.5 6,-350.5 0,-344.5 0,-338.5 0,-338.5 0,-270.5 0,-270.5 0,-264.5 6,-258.5 12,-258.5"/>
<text text-anchor="middle" x="37" y="-300.8" font-family="Times,serif" font-size="14.00">[COPY] =</text>
<polyline fill="none" stroke="black" points="74,-258.5 74,-350.5 "/>
<text text-anchor="middle" x="122" y="-335.3" font-family="Times,serif" font-size="14.00">a</text>
<polyline fill="none" stroke="black" points="74,-327.5 170,-327.5 "/>
<text text-anchor="middle" x="122" y="-312.3" font-family="Times,serif" font-size="14.00">#0</text>
<polyline fill="none" stroke="black" points="74,-304.5 170,-304.5 "/>
<text text-anchor="middle" x="122" y="-289.3" font-family="Times,serif" font-size="14.00">0x16B77F1C0</text>
<polyline fill="none" stroke="black" points="74,-281.5 170,-281.5 "/>
<text text-anchor="middle" x="122" y="-266.3" font-family="Times,serif" font-size="14.00">value = 0</text>
<polyline fill="none" stroke="black" points="170,-258.5 170,-350.5 "/>
<text text-anchor="middle" x="217" y="-335.3" font-family="Times,serif" font-size="14.00">nrvo</text>
<polyline fill="none" stroke="black" points="170,-327.5 264,-327.5 "/>
<text text-anchor="middle" x="217" y="-312.3" font-family="Times,serif" font-size="14.00">#1</text>
<polyline fill="none" stroke="black" points="170,-304.5 264,-304.5 "/>
<text text-anchor="middle" x="217" y="-289.3" font-family="Times,serif" font-size="14.00">0x16B77F170</text>
<polyline fill="none" stroke="black" points="170,-281.5 264,-281.5 "/>
<text text-anchor="middle" x="217" y="-266.3" font-family="Times,serif" font-size="14.00">value = 10</text>
</g>
<!-- Node_2&#45;&gt;Node_3 -->
<g id="edge2" class="edge">
<title>Node_2&#45;&gt;Node_3</title>
<path fill="none" stroke="blue" d="M132,-387.37C132,-378.86 132,-369.87 132,-361.09"/>
<polygon fill="blue" stroke="blue" points="135.5,-360.92 132,-350.92 128.5,-360.92 135.5,-360.92"/>
</g>
<!-- Node_3&#45;&gt;Node_1 -->
<g id="edge3" class="edge">
<title>Node_3:f1&#45;&gt;Node_1:f1</title>
<path fill="none" stroke="grey" stroke-dasharray="5,2" d="M122,-351C122,-392.44 58.96,-352.5 36,-387 13.1,-421.41 9.73,-448.09 36,-480 88.96,-544.33 167.04,-451.67 220,-516 246.13,-547.74 248.77,-579.13 220,-608.5 208.1,-620.65 184.69,-627.62 175.66,-619.15"/>
<polygon fill="grey" stroke="grey" points="178.82,-617.61 172,-609.5 172.28,-620.09 178.82,-617.61"/>
</g>
<!-- Node_3&#45;&gt;Node_2 -->
<g id="edge4" class="edge">
<title>Node_3:f2&#45;&gt;Node_2:f1</title>
<path fill="none" stroke="gray" stroke-dasharray="5,2" d="M217,-351C217,-408.12 258.96,-438.68 219,-479.5 207.35,-491.4 184.42,-498.24 175.59,-489.95"/>
<polygon fill="gray" stroke="gray" points="178.82,-488.61 172,-480.5 172.28,-491.09 178.82,-488.61"/>
</g>
<!-- Node_4 -->
<g id="node4" class="node">
<title>Node_4</title>
<path fill="#ffded7" stroke="black" d="M60,-129.5C60,-129.5 204,-129.5 204,-129.5 210,-129.5 216,-135.5 216,-141.5 216,-141.5 216,-209.5 216,-209.5 216,-215.5 210,-221.5 204,-221.5 204,-221.5 60,-221.5 60,-221.5 54,-221.5 48,-215.5 48,-209.5 48,-209.5 48,-141.5 48,-141.5 48,-135.5 54,-129.5 60,-129.5"/>
<text text-anchor="middle" x="85" y="-171.8" font-family="Times,serif" font-size="14.00">Destructor</text>
<polyline fill="none" stroke="black" points="122,-129.5 122,-221.5 "/>
<text text-anchor="middle" x="169" y="-206.3" font-family="Times,serif" font-size="14.00">nrvo</text>
<polyline fill="none" stroke="black" points="122,-198.5 216,-198.5 "/>
<text text-anchor="middle" x="169" y="-183.3" font-family="Times,serif" font-size="14.00">#1</text>
<polyline fill="none" stroke="black" points="122,-175.5 216,-175.5 "/>
<text text-anchor="middle" x="169" y="-160.3" font-family="Times,serif" font-size="14.00">0x16B77F170</text>
<polyline fill="none" stroke="black" points="122,-152.5 216,-152.5 "/>
<text text-anchor="middle" x="169" y="-137.3" font-family="Times,serif" font-size="14.00">value = 10</text>
</g>
<!-- Node_3&#45;&gt;Node_4 -->
<g id="edge5" class="edge">
<title>Node_3&#45;&gt;Node_4</title>
<path fill="none" stroke="blue" d="M132,-258.37C132,-249.86 132,-240.87 132,-232.09"/>
<polygon fill="blue" stroke="blue" points="135.5,-231.92 132,-221.92 128.5,-231.92 135.5,-231.92"/>
</g>
<!-- Node_4&#45;&gt;Node_2 -->
<g id="edge6" class="edge">
<title>Node_4:f1&#45;&gt;Node_2:f1</title>
<path fill="none" stroke="grey" stroke-dasharray="5,2" d="M217,-210.5C328.2,-210.5 334.39,-453.12 230.09,-467.8"/>
<polygon fill="grey" stroke="grey" points="229.74,-464.32 220,-468.5 230.22,-471.3 229.74,-464.32"/>
</g>
<!-- Node_5 -->
<g id="node5" class="node">
<title>Node_5</title>
<path fill="#ffded7" stroke="black" d="M59,-0.5C59,-0.5 205,-0.5 205,-0.5 211,-0.5 217,-6.5 217,-12.5 217,-12.5 217,-80.5 217,-80.5 217,-86.5 211,-92.5 205,-92.5 205,-92.5 59,-92.5 59,-92.5 53,-92.5 47,-86.5 47,-80.5 47,-80.5 47,-12.5 47,-12.5 47,-6.5 53,-0.5 59,-0.5"/>
<text text-anchor="middle" x="84" y="-42.8" font-family="Times,serif" font-size="14.00">Destructor</text>
<polyline fill="none" stroke="black" points="121,-0.5 121,-92.5 "/>
<text text-anchor="middle" x="169" y="-77.3" font-family="Times,serif" font-size="14.00">a</text>
<polyline fill="none" stroke="black" points="121,-69.5 217,-69.5 "/>
<text text-anchor="middle" x="169" y="-54.3" font-family="Times,serif" font-size="14.00">#0</text>
<polyline fill="none" stroke="black" points="121,-46.5 217,-46.5 "/>
<text text-anchor="middle" x="169" y="-31.3" font-family="Times,serif" font-size="14.00">0x16B77F1C0</text>
<polyline fill="none" stroke="black" points="121,-23.5 217,-23.5 "/>
<text text-anchor="middle" x="169" y="-8.3" font-family="Times,serif" font-size="14.00">value = 10</text>
</g>
<!-- Node_4&#45;&gt;Node_5 -->
<g id="edge7" class="edge">
<title>Node_4&#45;&gt;Node_5</title>
<path fill="none" stroke="blue" d="M132,-129.37C132,-120.86 132,-111.87 132,-103.09"/>
<polygon fill="blue" stroke="blue" points="135.5,-102.92 132,-92.92 128.5,-102.92 135.5,-102.92"/>
</g>
<!-- Node_5&#45;&gt;Node_1 -->
<g id="edge8" class="edge">
<title>Node_5:f1&#45;&gt;Node_1:f1</title>
<path fill="none" stroke="grey" stroke-dasharray="5,2" d="M218,-81.5C443.87,-81.5 450.19,-582 231.25,-597.15"/>
<polygon fill="grey" stroke="grey" points="230.87,-593.66 221,-597.5 231.11,-600.66 230.87,-593.66"/>
</g>
</g>
</svg>
