<?xml version="1.0" encoding="UTF-8" standalone="no"?>
<!DOCTYPE svg PUBLIC "-//W3C//DTD SVG 1.1//EN"
 "http://www.w3.org/Graphics/SVG/1.1/DTD/svg11.dtd">
<!-- Generated by graphviz version 2.50.0 (20211204.2007)
 -->
<!-- Title: G Pages: 1 -->
<svg width="609pt" height="3082pt"
 viewBox="0.00 0.00 609.00 3081.82" xmlns="http://www.w3.org/2000/svg" xmlns:xlink="http://www.w3.org/1999/xlink">
<g id="graph0" class="graph" transform="scale(1 1) rotate(0) translate(4 3077.82)">
<title>G</title>
<polygon fill="white" stroke="transparent" points="-4,4 -4,-3077.82 605,-3077.82 605,4 -4,4"/>
<!-- Node_1 -->
<g id="node1" class="node">
<title>Node_1</title>
<polygon fill="darkcyan" stroke="black" points="166,-2967.5 166,-3059.5 340,-3059.5 340,-2967.5 166,-2967.5"/>
<text text-anchor="middle" x="206" y="-3009.8" font-family="Times,serif" font-size="14.00">Constructor</text>
<polyline fill="none" stroke="black" points="246,-2967.5 246,-3059.5 "/>
<text text-anchor="middle" x="293" y="-3044.3" font-family="Times,serif" font-size="14.00">a</text>
<polyline fill="none" stroke="black" points="246,-3036.5 340,-3036.5 "/>
<text text-anchor="middle" x="293" y="-3021.3" font-family="Times,serif" font-size="14.00">#0</text>
<polyline fill="none" stroke="black" points="246,-3013.5 340,-3013.5 "/>
<text text-anchor="middle" x="293" y="-2998.3" font-family="Times,serif" font-size="14.00">0x16F6331B0</text>
<polyline fill="none" stroke="black" points="246,-2990.5 340,-2990.5 "/>
<text text-anchor="middle" x="293" y="-2975.3" font-family="Times,serif" font-size="14.00">value = 1</text>
</g>
<!-- Node_2 -->
<g id="node2" class="node">
<title>Node_2</title>
<polygon fill="darkcyan" stroke="black" points="167,-2838.5 167,-2930.5 339,-2930.5 339,-2838.5 167,-2838.5"/>
<text text-anchor="middle" x="207" y="-2880.8" font-family="Times,serif" font-size="14.00">Constructor</text>
<polyline fill="none" stroke="black" points="247,-2838.5 247,-2930.5 "/>
<text text-anchor="middle" x="293" y="-2915.3" font-family="Times,serif" font-size="14.00">b</text>
<polyline fill="none" stroke="black" points="247,-2907.5 339,-2907.5 "/>
<text text-anchor="middle" x="293" y="-2892.3" font-family="Times,serif" font-size="14.00">#1</text>
<polyline fill="none" stroke="black" points="247,-2884.5 339,-2884.5 "/>
<text text-anchor="middle" x="293" y="-2869.3" font-family="Times,serif" font-size="14.00">0x16F633160</text>
<polyline fill="none" stroke="black" points="247,-2861.5 339,-2861.5 "/>
<text text-anchor="middle" x="293" y="-2846.3" font-family="Times,serif" font-size="14.00">value = 2</text>
</g>
<!-- Node_1&#45;&gt;Node_2 -->
<g id="edge1" class="edge">
<title>Node_1&#45;&gt;Node_2</title>
<path fill="none" stroke="blue" d="M253,-2967.37C253,-2958.86 253,-2949.87 253,-2941.09"/>
<polygon fill="blue" stroke="blue" points="256.5,-2940.92 253,-2930.92 249.5,-2940.92 256.5,-2940.92"/>
</g>
<!-- Node_3 -->
<g id="node3" class="node">
<title>Node_3</title>
<polygon fill="darkcyan" stroke="black" points="167,-2709.5 167,-2801.5 339,-2801.5 339,-2709.5 167,-2709.5"/>
<text text-anchor="middle" x="207" y="-2751.8" font-family="Times,serif" font-size="14.00">Constructor</text>
<polyline fill="none" stroke="black" points="247,-2709.5 247,-2801.5 "/>
<text text-anchor="middle" x="293" y="-2786.3" font-family="Times,serif" font-size="14.00">val</text>
<polyline fill="none" stroke="black" points="247,-2778.5 339,-2778.5 "/>
<text text-anchor="middle" x="293" y="-2763.3" font-family="Times,serif" font-size="14.00">#2</text>
<polyline fill="none" stroke="black" points="247,-2755.5 339,-2755.5 "/>
<text text-anchor="middle" x="293" y="-2740.3" font-family="Times,serif" font-size="14.00">0x16F6330F8</text>
<polyline fill="none" stroke="black" points="247,-2732.5 339,-2732.5 "/>
<text text-anchor="middle" x="293" y="-2717.3" font-family="Times,serif" font-size="14.00">value = 10</text>
</g>
<!-- Node_2&#45;&gt;Node_3 -->
<g id="edge2" class="edge">
<title>Node_2&#45;&gt;Node_3</title>
<path fill="none" stroke="blue" d="M253,-2838.37C253,-2829.86 253,-2820.87 253,-2812.09"/>
<polygon fill="blue" stroke="blue" points="256.5,-2811.92 253,-2801.92 249.5,-2811.92 256.5,-2811.92"/>
</g>
<!-- Node_4 -->
<g id="node4" class="node">
<title>Node_4</title>
<polygon fill="#ff6e50" stroke="black" points="104.5,-2580.5 104.5,-2672.5 401.5,-2672.5 401.5,-2580.5 104.5,-2580.5"/>
<text text-anchor="middle" x="161" y="-2622.8" font-family="Times,serif" font-size="14.00">Copy Constructor</text>
<polyline fill="none" stroke="black" points="217.5,-2580.5 217.5,-2672.5 "/>
<text text-anchor="middle" x="263.5" y="-2657.3" font-family="Times,serif" font-size="14.00">c</text>
<polyline fill="none" stroke="black" points="217.5,-2649.5 309.5,-2649.5 "/>
<text text-anchor="middle" x="263.5" y="-2634.3" font-family="Times,serif" font-size="14.00">#3</text>
<polyline fill="none" stroke="black" points="217.5,-2626.5 309.5,-2626.5 "/>
<text text-anchor="middle" x="263.5" y="-2611.3" font-family="Times,serif" font-size="14.00">0x16F633120</text>
<polyline fill="none" stroke="black" points="217.5,-2603.5 309.5,-2603.5 "/>
<text text-anchor="middle" x="263.5" y="-2588.3" font-family="Times,serif" font-size="14.00">value = 10</text>
<polyline fill="none" stroke="black" points="309.5,-2580.5 309.5,-2672.5 "/>
<text text-anchor="middle" x="355.5" y="-2657.3" font-family="Times,serif" font-size="14.00">val</text>
<polyline fill="none" stroke="black" points="309.5,-2649.5 401.5,-2649.5 "/>
<text text-anchor="middle" x="355.5" y="-2634.3" font-family="Times,serif" font-size="14.00">#2</text>
<polyline fill="none" stroke="black" points="309.5,-2626.5 401.5,-2626.5 "/>
<text text-anchor="middle" x="355.5" y="-2611.3" font-family="Times,serif" font-size="14.00">0x16F6330F8</text>
<polyline fill="none" stroke="black" points="309.5,-2603.5 401.5,-2603.5 "/>
<text text-anchor="middle" x="355.5" y="-2588.3" font-family="Times,serif" font-size="14.00">value = 10</text>
</g>
<!-- Node_3&#45;&gt;Node_4 -->
<g id="edge3" class="edge">
<title>Node_3&#45;&gt;Node_4</title>
<path fill="none" stroke="blue" d="M253,-2709.37C253,-2700.86 253,-2691.87 253,-2683.09"/>
<polygon fill="blue" stroke="blue" points="256.5,-2682.92 253,-2672.92 249.5,-2682.92 256.5,-2682.92"/>
</g>
<!-- Node_5 -->
<g id="node5" class="node">
<title>Node_5</title>
<path fill="#ffded7" stroke="black" d="M182,-2451.5C182,-2451.5 324,-2451.5 324,-2451.5 330,-2451.5 336,-2457.5 336,-2463.5 336,-2463.5 336,-2531.5 336,-2531.5 336,-2537.5 330,-2543.5 324,-2543.5 324,-2543.5 182,-2543.5 182,-2543.5 176,-2543.5 170,-2537.5 170,-2531.5 170,-2531.5 170,-2463.5 170,-2463.5 170,-2457.5 176,-2451.5 182,-2451.5"/>
<text text-anchor="middle" x="207" y="-2493.8" font-family="Times,serif" font-size="14.00">Destructor</text>
<polyline fill="none" stroke="black" points="244,-2451.5 244,-2543.5 "/>
<text text-anchor="middle" x="290" y="-2528.3" font-family="Times,serif" font-size="14.00">val</text>
<polyline fill="none" stroke="black" points="244,-2520.5 336,-2520.5 "/>
<text text-anchor="middle" x="290" y="-2505.3" font-family="Times,serif" font-size="14.00">#2</text>
<polyline fill="none" stroke="black" points="244,-2497.5 336,-2497.5 "/>
<text text-anchor="middle" x="290" y="-2482.3" font-family="Times,serif" font-size="14.00">0x16F6330F8</text>
<polyline fill="none" stroke="black" points="244,-2474.5 336,-2474.5 "/>
<text text-anchor="middle" x="290" y="-2459.3" font-family="Times,serif" font-size="14.00">value = 10</text>
</g>
<!-- Node_4&#45;&gt;Node_5 -->
<g id="edge4" class="edge">
<title>Node_4&#45;&gt;Node_5</title>
<path fill="none" stroke="blue" d="M253,-2580.37C253,-2571.86 253,-2562.87 253,-2554.09"/>
<polygon fill="blue" stroke="blue" points="256.5,-2553.92 253,-2543.92 249.5,-2553.92 256.5,-2553.92"/>
</g>
<!-- Node_5&#45;&gt;Node_3 -->
<g id="edge5" class="edge">
<title>Node_5:f1&#45;&gt;Node_3:f1</title>
<path fill="none" stroke="grey" stroke-dasharray="5,2" d="M337,-2532.5C376.08,-2532.5 392.26,-2545.7 411,-2580 456.68,-2663.6 440.03,-2781.84 350.12,-2790.05"/>
<polygon fill="grey" stroke="grey" points="349.83,-2786.56 340,-2790.5 350.15,-2793.55 349.83,-2786.56"/>
</g>
<!-- Node_6 -->
<g id="node6" class="node">
<title>Node_6</title>
<path fill="Yellow" stroke="black" d="M141.5,-2322.5C141.5,-2322.5 364.5,-2322.5 364.5,-2322.5 370.5,-2322.5 376.5,-2328.5 376.5,-2334.5 376.5,-2334.5 376.5,-2402.5 376.5,-2402.5 376.5,-2408.5 370.5,-2414.5 364.5,-2414.5 364.5,-2414.5 141.5,-2414.5 141.5,-2414.5 135.5,-2414.5 129.5,-2408.5 129.5,-2402.5 129.5,-2402.5 129.5,-2334.5 129.5,-2334.5 129.5,-2328.5 135.5,-2322.5 141.5,-2322.5"/>
<text text-anchor="middle" x="160" y="-2364.8" font-family="Times,serif" font-size="14.00">[BIN] +</text>
<polyline fill="none" stroke="black" points="190.5,-2322.5 190.5,-2414.5 "/>
<text text-anchor="middle" x="237.5" y="-2399.3" font-family="Times,serif" font-size="14.00">a</text>
<polyline fill="none" stroke="black" points="190.5,-2391.5 284.5,-2391.5 "/>
<text text-anchor="middle" x="237.5" y="-2376.3" font-family="Times,serif" font-size="14.00">#0</text>
<polyline fill="none" stroke="black" points="190.5,-2368.5 284.5,-2368.5 "/>
<text text-anchor="middle" x="237.5" y="-2353.3" font-family="Times,serif" font-size="14.00">0x16F6331B0</text>
<polyline fill="none" stroke="black" points="190.5,-2345.5 284.5,-2345.5 "/>
<text text-anchor="middle" x="237.5" y="-2330.3" font-family="Times,serif" font-size="14.00">value = 1</text>
<polyline fill="none" stroke="black" points="284.5,-2322.5 284.5,-2414.5 "/>
<text text-anchor="middle" x="330.5" y="-2399.3" font-family="Times,serif" font-size="14.00">b</text>
<polyline fill="none" stroke="black" points="284.5,-2391.5 376.5,-2391.5 "/>
<text text-anchor="middle" x="330.5" y="-2376.3" font-family="Times,serif" font-size="14.00">#1</text>
<polyline fill="none" stroke="black" points="284.5,-2368.5 376.5,-2368.5 "/>
<text text-anchor="middle" x="330.5" y="-2353.3" font-family="Times,serif" font-size="14.00">0x16F633160</text>
<polyline fill="none" stroke="black" points="284.5,-2345.5 376.5,-2345.5 "/>
<text text-anchor="middle" x="330.5" y="-2330.3" font-family="Times,serif" font-size="14.00">value = 2</text>
</g>
<!-- Node_5&#45;&gt;Node_6 -->
<g id="edge6" class="edge">
<title>Node_5&#45;&gt;Node_6</title>
<path fill="none" stroke="blue" d="M253,-2451.37C253,-2442.86 253,-2433.87 253,-2425.09"/>
<polygon fill="blue" stroke="blue" points="256.5,-2424.92 253,-2414.92 249.5,-2424.92 256.5,-2424.92"/>
</g>
<!-- Node_6&#45;&gt;Node_1 -->
<g id="edge7" class="edge">
<title>Node_6:f1&#45;&gt;Node_1:f1</title>
<path fill="none" stroke="grey" stroke-dasharray="5,2" d="M237,-2415C237,-2452.38 187.83,-2424.98 161,-2451 111.6,-2498.91 76,-2586.87 76,-2625.5 76,-2756.5 76,-2756.5 76,-2756.5 76,-2842.19 90.48,-2878.23 158,-2931 222.97,-2981.78 287.66,-2903.29 340,-2967 366.1,-2998.77 368.76,-3030.12 340,-3059.5 328.35,-3071.4 305.42,-3078.24 296.59,-3069.95"/>
<polygon fill="grey" stroke="grey" points="299.82,-3068.61 293,-3060.5 293.28,-3071.09 299.82,-3068.61"/>
</g>
<!-- Node_6&#45;&gt;Node_2 -->
<g id="edge8" class="edge">
<title>Node_6:f2&#45;&gt;Node_2:f1</title>
<path fill="none" stroke="gray" stroke-dasharray="5,2" d="M378,-2403.5C604.47,-2403.5 571.04,-2904 350.31,-2919.15"/>
<polygon fill="gray" stroke="gray" points="349.88,-2915.66 340,-2919.5 350.11,-2922.66 349.88,-2915.66"/>
</g>
<!-- Node_7 -->
<g id="node7" class="node">
<title>Node_7</title>
<polygon fill="darkcyan" stroke="black" points="167,-2193.5 167,-2285.5 339,-2285.5 339,-2193.5 167,-2193.5"/>
<text text-anchor="middle" x="207" y="-2235.8" font-family="Times,serif" font-size="14.00">Constructor</text>
<polyline fill="none" stroke="black" points="247,-2193.5 247,-2285.5 "/>
<text text-anchor="middle" x="293" y="-2270.3" font-family="Times,serif" font-size="14.00">tmp_1</text>
<polyline fill="none" stroke="black" points="247,-2262.5 339,-2262.5 "/>
<text text-anchor="middle" x="293" y="-2247.3" font-family="Times,serif" font-size="14.00">#4</text>
<polyline fill="none" stroke="black" points="247,-2239.5 339,-2239.5 "/>
<text text-anchor="middle" x="293" y="-2224.3" font-family="Times,serif" font-size="14.00">0x16F632F90</text>
<polyline fill="none" stroke="black" points="247,-2216.5 339,-2216.5 "/>
<text text-anchor="middle" x="293" y="-2201.3" font-family="Times,serif" font-size="14.00">value = 3</text>
</g>
<!-- Node_6&#45;&gt;Node_7 -->
<g id="edge9" class="edge">
<title>Node_6&#45;&gt;Node_7</title>
<path fill="none" stroke="blue" d="M253,-2322.37C253,-2313.86 253,-2304.87 253,-2296.09"/>
<polygon fill="blue" stroke="blue" points="256.5,-2295.92 253,-2285.92 249.5,-2295.92 256.5,-2295.92"/>
</g>
<!-- Node_8 -->
<g id="node8" class="node">
<title>Node_8</title>
<path fill="Yellow" stroke="black" d="M142.5,-2064.5C142.5,-2064.5 363.5,-2064.5 363.5,-2064.5 369.5,-2064.5 375.5,-2070.5 375.5,-2076.5 375.5,-2076.5 375.5,-2144.5 375.5,-2144.5 375.5,-2150.5 369.5,-2156.5 363.5,-2156.5 363.5,-2156.5 142.5,-2156.5 142.5,-2156.5 136.5,-2156.5 130.5,-2150.5 130.5,-2144.5 130.5,-2144.5 130.5,-2076.5 130.5,-2076.5 130.5,-2070.5 136.5,-2064.5 142.5,-2064.5"/>
<text text-anchor="middle" x="161" y="-2106.8" font-family="Times,serif" font-size="14.00">[BIN] +</text>
<polyline fill="none" stroke="black" points="191.5,-2064.5 191.5,-2156.5 "/>
<text text-anchor="middle" x="237.5" y="-2141.3" font-family="Times,serif" font-size="14.00">tmp_1</text>
<polyline fill="none" stroke="black" points="191.5,-2133.5 283.5,-2133.5 "/>
<text text-anchor="middle" x="237.5" y="-2118.3" font-family="Times,serif" font-size="14.00">#4</text>
<polyline fill="none" stroke="black" points="191.5,-2110.5 283.5,-2110.5 "/>
<text text-anchor="middle" x="237.5" y="-2095.3" font-family="Times,serif" font-size="14.00">0x16F632F90</text>
<polyline fill="none" stroke="black" points="191.5,-2087.5 283.5,-2087.5 "/>
<text text-anchor="middle" x="237.5" y="-2072.3" font-family="Times,serif" font-size="14.00">value = 3</text>
<polyline fill="none" stroke="black" points="283.5,-2064.5 283.5,-2156.5 "/>
<text text-anchor="middle" x="329.5" y="-2141.3" font-family="Times,serif" font-size="14.00">c</text>
<polyline fill="none" stroke="black" points="283.5,-2133.5 375.5,-2133.5 "/>
<text text-anchor="middle" x="329.5" y="-2118.3" font-family="Times,serif" font-size="14.00">#3</text>
<polyline fill="none" stroke="black" points="283.5,-2110.5 375.5,-2110.5 "/>
<text text-anchor="middle" x="329.5" y="-2095.3" font-family="Times,serif" font-size="14.00">0x16F633120</text>
<polyline fill="none" stroke="black" points="283.5,-2087.5 375.5,-2087.5 "/>
<text text-anchor="middle" x="329.5" y="-2072.3" font-family="Times,serif" font-size="14.00">value = 10</text>
</g>
<!-- Node_7&#45;&gt;Node_8 -->
<g id="edge10" class="edge">
<title>Node_7&#45;&gt;Node_8</title>
<path fill="none" stroke="blue" d="M253,-2193.37C253,-2184.86 253,-2175.87 253,-2167.09"/>
<polygon fill="blue" stroke="blue" points="256.5,-2166.92 253,-2156.92 249.5,-2166.92 256.5,-2166.92"/>
</g>
<!-- Node_8&#45;&gt;Node_4 -->
<g id="edge12" class="edge">
<title>Node_8:f2&#45;&gt;Node_4:f1</title>
<path fill="none" stroke="gray" stroke-dasharray="5,2" d="M377,-2145.5C584.14,-2145.5 447.39,-2626.28 401.5,-2672.5 392.42,-2681.65 300.77,-2686.95 272.36,-2679.2"/>
<polygon fill="gray" stroke="gray" points="274.23,-2676.25 264,-2673.5 270.29,-2682.03 274.23,-2676.25"/>
</g>
<!-- Node_8&#45;&gt;Node_7 -->
<g id="edge11" class="edge">
<title>Node_8:f1&#45;&gt;Node_7:f1</title>
<path fill="none" stroke="grey" stroke-dasharray="5,2" d="M237,-2157C237,-2205.07 311.23,-2153.76 339,-2193 362.74,-2226.56 367.75,-2256.12 339,-2285.5 327.71,-2297.03 305.6,-2303.72 296.77,-2295.98"/>
<polygon fill="grey" stroke="grey" points="299.95,-2294.5 293,-2286.5 293.44,-2297.09 299.95,-2294.5"/>
</g>
<!-- Node_9 -->
<g id="node9" class="node">
<title>Node_9</title>
<polygon fill="darkcyan" stroke="black" points="165.5,-1935.5 165.5,-2027.5 340.5,-2027.5 340.5,-1935.5 165.5,-1935.5"/>
<text text-anchor="middle" x="205.5" y="-1977.8" font-family="Times,serif" font-size="14.00">Constructor</text>
<polyline fill="none" stroke="black" points="245.5,-1935.5 245.5,-2027.5 "/>
<text text-anchor="middle" x="293" y="-2012.3" font-family="Times,serif" font-size="14.00">tmp_2</text>
<polyline fill="none" stroke="black" points="245.5,-2004.5 340.5,-2004.5 "/>
<text text-anchor="middle" x="293" y="-1989.3" font-family="Times,serif" font-size="14.00">#5</text>
<polyline fill="none" stroke="black" points="245.5,-1981.5 340.5,-1981.5 "/>
<text text-anchor="middle" x="293" y="-1966.3" font-family="Times,serif" font-size="14.00">0x16F632FB8</text>
<polyline fill="none" stroke="black" points="245.5,-1958.5 340.5,-1958.5 "/>
<text text-anchor="middle" x="293" y="-1943.3" font-family="Times,serif" font-size="14.00">value = 13</text>
</g>
<!-- Node_8&#45;&gt;Node_9 -->
<g id="edge13" class="edge">
<title>Node_8&#45;&gt;Node_9</title>
<path fill="none" stroke="blue" d="M253,-2064.37C253,-2055.86 253,-2046.87 253,-2038.09"/>
<polygon fill="blue" stroke="blue" points="256.5,-2037.92 253,-2027.92 249.5,-2037.92 256.5,-2037.92"/>
</g>
<!-- Node_10 -->
<g id="node10" class="node">
<title>Node_10</title>
<polygon fill="#ff6e50" stroke="black" points="103,-1806.5 103,-1898.5 403,-1898.5 403,-1806.5 103,-1806.5"/>
<text text-anchor="middle" x="159.5" y="-1848.8" font-family="Times,serif" font-size="14.00">Copy Constructor</text>
<polyline fill="none" stroke="black" points="216,-1806.5 216,-1898.5 "/>
<text text-anchor="middle" x="262" y="-1883.3" font-family="Times,serif" font-size="14.00">res</text>
<polyline fill="none" stroke="black" points="216,-1875.5 308,-1875.5 "/>
<text text-anchor="middle" x="262" y="-1860.3" font-family="Times,serif" font-size="14.00">#6</text>
<polyline fill="none" stroke="black" points="216,-1852.5 308,-1852.5 "/>
<text text-anchor="middle" x="262" y="-1837.3" font-family="Times,serif" font-size="14.00">0x16F633090</text>
<polyline fill="none" stroke="black" points="216,-1829.5 308,-1829.5 "/>
<text text-anchor="middle" x="262" y="-1814.3" font-family="Times,serif" font-size="14.00">value = 13</text>
<polyline fill="none" stroke="black" points="308,-1806.5 308,-1898.5 "/>
<text text-anchor="middle" x="355.5" y="-1883.3" font-family="Times,serif" font-size="14.00">tmp_2</text>
<polyline fill="none" stroke="black" points="308,-1875.5 403,-1875.5 "/>
<text text-anchor="middle" x="355.5" y="-1860.3" font-family="Times,serif" font-size="14.00">#5</text>
<polyline fill="none" stroke="black" points="308,-1852.5 403,-1852.5 "/>
<text text-anchor="middle" x="355.5" y="-1837.3" font-family="Times,serif" font-size="14.00">0x16F632FB8</text>
<polyline fill="none" stroke="black" points="308,-1829.5 403,-1829.5 "/>
<text text-anchor="middle" x="355.5" y="-1814.3" font-family="Times,serif" font-size="14.00">value = 13</text>
</g>
<!-- Node_9&#45;&gt;Node_10 -->
<g id="edge14" class="edge">
<title>Node_9&#45;&gt;Node_10</title>
<path fill="none" stroke="blue" d="M253,-1935.37C253,-1926.86 253,-1917.87 253,-1909.09"/>
<polygon fill="blue" stroke="blue" points="256.5,-1908.92 253,-1898.92 249.5,-1908.92 256.5,-1908.92"/>
</g>
<!-- Node_11 -->
<g id="node11" class="node">
<title>Node_11</title>
<path fill="#ffded7" stroke="black" d="M180.5,-1677.5C180.5,-1677.5 325.5,-1677.5 325.5,-1677.5 331.5,-1677.5 337.5,-1683.5 337.5,-1689.5 337.5,-1689.5 337.5,-1757.5 337.5,-1757.5 337.5,-1763.5 331.5,-1769.5 325.5,-1769.5 325.5,-1769.5 180.5,-1769.5 180.5,-1769.5 174.5,-1769.5 168.5,-1763.5 168.5,-1757.5 168.5,-1757.5 168.5,-1689.5 168.5,-1689.5 168.5,-1683.5 174.5,-1677.5 180.5,-1677.5"/>
<text text-anchor="middle" x="205.5" y="-1719.8" font-family="Times,serif" font-size="14.00">Destructor</text>
<polyline fill="none" stroke="black" points="242.5,-1677.5 242.5,-1769.5 "/>
<text text-anchor="middle" x="290" y="-1754.3" font-family="Times,serif" font-size="14.00">tmp_2</text>
<polyline fill="none" stroke="black" points="242.5,-1746.5 337.5,-1746.5 "/>
<text text-anchor="middle" x="290" y="-1731.3" font-family="Times,serif" font-size="14.00">#5</text>
<polyline fill="none" stroke="black" points="242.5,-1723.5 337.5,-1723.5 "/>
<text text-anchor="middle" x="290" y="-1708.3" font-family="Times,serif" font-size="14.00">0x16F632FB8</text>
<polyline fill="none" stroke="black" points="242.5,-1700.5 337.5,-1700.5 "/>
<text text-anchor="middle" x="290" y="-1685.3" font-family="Times,serif" font-size="14.00">value = 13</text>
</g>
<!-- Node_10&#45;&gt;Node_11 -->
<g id="edge15" class="edge">
<title>Node_10&#45;&gt;Node_11</title>
<path fill="none" stroke="blue" d="M253,-1806.37C253,-1797.86 253,-1788.87 253,-1780.09"/>
<polygon fill="blue" stroke="blue" points="256.5,-1779.92 253,-1769.92 249.5,-1779.92 256.5,-1779.92"/>
</g>
<!-- Node_11&#45;&gt;Node_9 -->
<g id="edge16" class="edge">
<title>Node_11:f1&#45;&gt;Node_9:f1</title>
<path fill="none" stroke="grey" stroke-dasharray="5,2" d="M339,-1758.5C377.71,-1758.5 393.55,-1771.97 412,-1806 457.35,-1889.62 441.81,-2007.84 352.1,-2016.05"/>
<polygon fill="grey" stroke="grey" points="351.83,-2012.56 342,-2016.5 352.15,-2019.55 351.83,-2012.56"/>
</g>
<!-- Node_12 -->
<g id="node12" class="node">
<title>Node_12</title>
<path fill="#ffded7" stroke="black" d="M182,-1548.5C182,-1548.5 324,-1548.5 324,-1548.5 330,-1548.5 336,-1554.5 336,-1560.5 336,-1560.5 336,-1628.5 336,-1628.5 336,-1634.5 330,-1640.5 324,-1640.5 324,-1640.5 182,-1640.5 182,-1640.5 176,-1640.5 170,-1634.5 170,-1628.5 170,-1628.5 170,-1560.5 170,-1560.5 170,-1554.5 176,-1548.5 182,-1548.5"/>
<text text-anchor="middle" x="207" y="-1590.8" font-family="Times,serif" font-size="14.00">Destructor</text>
<polyline fill="none" stroke="black" points="244,-1548.5 244,-1640.5 "/>
<text text-anchor="middle" x="290" y="-1625.3" font-family="Times,serif" font-size="14.00">tmp_1</text>
<polyline fill="none" stroke="black" points="244,-1617.5 336,-1617.5 "/>
<text text-anchor="middle" x="290" y="-1602.3" font-family="Times,serif" font-size="14.00">#4</text>
<polyline fill="none" stroke="black" points="244,-1594.5 336,-1594.5 "/>
<text text-anchor="middle" x="290" y="-1579.3" font-family="Times,serif" font-size="14.00">0x16F632F90</text>
<polyline fill="none" stroke="black" points="244,-1571.5 336,-1571.5 "/>
<text text-anchor="middle" x="290" y="-1556.3" font-family="Times,serif" font-size="14.00">value = 3</text>
</g>
<!-- Node_11&#45;&gt;Node_12 -->
<g id="edge17" class="edge">
<title>Node_11&#45;&gt;Node_12</title>
<path fill="none" stroke="blue" d="M253,-1677.37C253,-1668.86 253,-1659.87 253,-1651.09"/>
<polygon fill="blue" stroke="blue" points="256.5,-1650.92 253,-1640.92 249.5,-1650.92 256.5,-1650.92"/>
</g>
<!-- Node_12&#45;&gt;Node_7 -->
<g id="edge18" class="edge">
<title>Node_12:f1&#45;&gt;Node_7:f1</title>
<path fill="none" stroke="grey" stroke-dasharray="5,2" d="M337,-1629.5C427.38,-1629.5 414.78,-1718.65 438,-1806 491.78,-2008.27 550.79,-2266.04 350.07,-2274.3"/>
<polygon fill="grey" stroke="grey" points="349.93,-2270.8 340,-2274.5 350.07,-2277.8 349.93,-2270.8"/>
</g>
<!-- Node_13 -->
<g id="node13" class="node">
<title>Node_13</title>
<polygon fill="#ff6e50" stroke="black" points="103.5,-1419.5 103.5,-1511.5 402.5,-1511.5 402.5,-1419.5 103.5,-1419.5"/>
<text text-anchor="middle" x="160" y="-1461.8" font-family="Times,serif" font-size="14.00">Copy Constructor</text>
<polyline fill="none" stroke="black" points="216.5,-1419.5 216.5,-1511.5 "/>
<text text-anchor="middle" x="263.5" y="-1496.3" font-family="Times,serif" font-size="14.00">d</text>
<polyline fill="none" stroke="black" points="216.5,-1488.5 310.5,-1488.5 "/>
<text text-anchor="middle" x="263.5" y="-1473.3" font-family="Times,serif" font-size="14.00">#7</text>
<polyline fill="none" stroke="black" points="216.5,-1465.5 310.5,-1465.5 "/>
<text text-anchor="middle" x="263.5" y="-1450.3" font-family="Times,serif" font-size="14.00">0x16F6330B8</text>
<polyline fill="none" stroke="black" points="216.5,-1442.5 310.5,-1442.5 "/>
<text text-anchor="middle" x="263.5" y="-1427.3" font-family="Times,serif" font-size="14.00">value = 13</text>
<polyline fill="none" stroke="black" points="310.5,-1419.5 310.5,-1511.5 "/>
<text text-anchor="middle" x="356.5" y="-1496.3" font-family="Times,serif" font-size="14.00">res</text>
<polyline fill="none" stroke="black" points="310.5,-1488.5 402.5,-1488.5 "/>
<text text-anchor="middle" x="356.5" y="-1473.3" font-family="Times,serif" font-size="14.00">#6</text>
<polyline fill="none" stroke="black" points="310.5,-1465.5 402.5,-1465.5 "/>
<text text-anchor="middle" x="356.5" y="-1450.3" font-family="Times,serif" font-size="14.00">0x16F633090</text>
<polyline fill="none" stroke="black" points="310.5,-1442.5 402.5,-1442.5 "/>
<text text-anchor="middle" x="356.5" y="-1427.3" font-family="Times,serif" font-size="14.00">value = 13</text>
</g>
<!-- Node_12&#45;&gt;Node_13 -->
<g id="edge19" class="edge">
<title>Node_12&#45;&gt;Node_13</title>
<path fill="none" stroke="blue" d="M253,-1548.37C253,-1539.86 253,-1530.87 253,-1522.09"/>
<polygon fill="blue" stroke="blue" points="256.5,-1521.92 253,-1511.92 249.5,-1521.92 256.5,-1521.92"/>
</g>
<!-- Node_14 -->
<g id="node14" class="node">
<title>Node_14</title>
<path fill="#ffded7" stroke="black" d="M182,-1290.5C182,-1290.5 324,-1290.5 324,-1290.5 330,-1290.5 336,-1296.5 336,-1302.5 336,-1302.5 336,-1370.5 336,-1370.5 336,-1376.5 330,-1382.5 324,-1382.5 324,-1382.5 182,-1382.5 182,-1382.5 176,-1382.5 170,-1376.5 170,-1370.5 170,-1370.5 170,-1302.5 170,-1302.5 170,-1296.5 176,-1290.5 182,-1290.5"/>
<text text-anchor="middle" x="207" y="-1332.8" font-family="Times,serif" font-size="14.00">Destructor</text>
<polyline fill="none" stroke="black" points="244,-1290.5 244,-1382.5 "/>
<text text-anchor="middle" x="290" y="-1367.3" font-family="Times,serif" font-size="14.00">res</text>
<polyline fill="none" stroke="black" points="244,-1359.5 336,-1359.5 "/>
<text text-anchor="middle" x="290" y="-1344.3" font-family="Times,serif" font-size="14.00">#6</text>
<polyline fill="none" stroke="black" points="244,-1336.5 336,-1336.5 "/>
<text text-anchor="middle" x="290" y="-1321.3" font-family="Times,serif" font-size="14.00">0x16F633090</text>
<polyline fill="none" stroke="black" points="244,-1313.5 336,-1313.5 "/>
<text text-anchor="middle" x="290" y="-1298.3" font-family="Times,serif" font-size="14.00">value = 13</text>
</g>
<!-- Node_13&#45;&gt;Node_14 -->
<g id="edge20" class="edge">
<title>Node_13&#45;&gt;Node_14</title>
<path fill="none" stroke="blue" d="M253,-1419.37C253,-1410.86 253,-1401.87 253,-1393.09"/>
<polygon fill="blue" stroke="blue" points="256.5,-1392.92 253,-1382.92 249.5,-1392.92 256.5,-1392.92"/>
</g>
<!-- Node_14&#45;&gt;Node_10 -->
<g id="edge21" class="edge">
<title>Node_14:f1&#45;&gt;Node_10:f1</title>
<path fill="none" stroke="grey" stroke-dasharray="5,2" d="M337,-1371.5C376.46,-1371.5 392.98,-1384.43 412,-1419 514.77,-1605.74 554.93,-1749.01 403,-1898.5 393.58,-1907.77 299.68,-1913.26 270.56,-1905.34"/>
<polygon fill="grey" stroke="grey" points="272.23,-1902.25 262,-1899.5 268.29,-1908.03 272.23,-1902.25"/>
</g>
<!-- Node_15 -->
<g id="node15" class="node">
<title>Node_15</title>
<polygon fill="darkcyan" stroke="black" points="167,-1161.5 167,-1253.5 339,-1253.5 339,-1161.5 167,-1161.5"/>
<text text-anchor="middle" x="207" y="-1203.8" font-family="Times,serif" font-size="14.00">Constructor</text>
<polyline fill="none" stroke="black" points="247,-1161.5 247,-1253.5 "/>
<text text-anchor="middle" x="293" y="-1238.3" font-family="Times,serif" font-size="14.00">val</text>
<polyline fill="none" stroke="black" points="247,-1230.5 339,-1230.5 "/>
<text text-anchor="middle" x="293" y="-1215.3" font-family="Times,serif" font-size="14.00">#8</text>
<polyline fill="none" stroke="black" points="247,-1207.5 339,-1207.5 "/>
<text text-anchor="middle" x="293" y="-1192.3" font-family="Times,serif" font-size="14.00">0x16F633028</text>
<polyline fill="none" stroke="black" points="247,-1184.5 339,-1184.5 "/>
<text text-anchor="middle" x="293" y="-1169.3" font-family="Times,serif" font-size="14.00">value = 10</text>
</g>
<!-- Node_14&#45;&gt;Node_15 -->
<g id="edge22" class="edge">
<title>Node_14&#45;&gt;Node_15</title>
<path fill="none" stroke="blue" d="M253,-1290.37C253,-1281.86 253,-1272.87 253,-1264.09"/>
<polygon fill="blue" stroke="blue" points="256.5,-1263.92 253,-1253.92 249.5,-1263.92 256.5,-1263.92"/>
</g>
<!-- Node_16 -->
<g id="node16" class="node">
<title>Node_16</title>
<path fill="Yellow" stroke="black" d="M143.5,-1032.5C143.5,-1032.5 362.5,-1032.5 362.5,-1032.5 368.5,-1032.5 374.5,-1038.5 374.5,-1044.5 374.5,-1044.5 374.5,-1112.5 374.5,-1112.5 374.5,-1118.5 368.5,-1124.5 362.5,-1124.5 362.5,-1124.5 143.5,-1124.5 143.5,-1124.5 137.5,-1124.5 131.5,-1118.5 131.5,-1112.5 131.5,-1112.5 131.5,-1044.5 131.5,-1044.5 131.5,-1038.5 137.5,-1032.5 143.5,-1032.5"/>
<text text-anchor="middle" x="161" y="-1074.8" font-family="Times,serif" font-size="14.00">[BIN] *</text>
<polyline fill="none" stroke="black" points="190.5,-1032.5 190.5,-1124.5 "/>
<text text-anchor="middle" x="236.5" y="-1109.3" font-family="Times,serif" font-size="14.00">b</text>
<polyline fill="none" stroke="black" points="190.5,-1101.5 282.5,-1101.5 "/>
<text text-anchor="middle" x="236.5" y="-1086.3" font-family="Times,serif" font-size="14.00">#1</text>
<polyline fill="none" stroke="black" points="190.5,-1078.5 282.5,-1078.5 "/>
<text text-anchor="middle" x="236.5" y="-1063.3" font-family="Times,serif" font-size="14.00">0x16F633160</text>
<polyline fill="none" stroke="black" points="190.5,-1055.5 282.5,-1055.5 "/>
<text text-anchor="middle" x="236.5" y="-1040.3" font-family="Times,serif" font-size="14.00">value = 2</text>
<polyline fill="none" stroke="black" points="282.5,-1032.5 282.5,-1124.5 "/>
<text text-anchor="middle" x="328.5" y="-1109.3" font-family="Times,serif" font-size="14.00">val</text>
<polyline fill="none" stroke="black" points="282.5,-1101.5 374.5,-1101.5 "/>
<text text-anchor="middle" x="328.5" y="-1086.3" font-family="Times,serif" font-size="14.00">#8</text>
<polyline fill="none" stroke="black" points="282.5,-1078.5 374.5,-1078.5 "/>
<text text-anchor="middle" x="328.5" y="-1063.3" font-family="Times,serif" font-size="14.00">0x16F633028</text>
<polyline fill="none" stroke="black" points="282.5,-1055.5 374.5,-1055.5 "/>
<text text-anchor="middle" x="328.5" y="-1040.3" font-family="Times,serif" font-size="14.00">value = 10</text>
</g>
<!-- Node_15&#45;&gt;Node_16 -->
<g id="edge23" class="edge">
<title>Node_15&#45;&gt;Node_16</title>
<path fill="none" stroke="blue" d="M253,-1161.37C253,-1152.86 253,-1143.87 253,-1135.09"/>
<polygon fill="blue" stroke="blue" points="256.5,-1134.92 253,-1124.92 249.5,-1134.92 256.5,-1134.92"/>
</g>
<!-- Node_16&#45;&gt;Node_2 -->
<g id="edge24" class="edge">
<title>Node_16:f1&#45;&gt;Node_2:f1</title>
<path fill="none" stroke="grey" stroke-dasharray="5,2" d="M236,-1125C236,-1163.18 187.19,-1136.39 158,-1161 86.03,-1221.66 38,-1241.38 38,-1335.5 38,-2627.5 38,-2627.5 38,-2627.5 38,-2721.62 79.39,-2750.23 158,-2802 226.5,-2847.11 286.97,-2774.6 339,-2838 365.08,-2869.78 367.75,-2901.12 339,-2930.5 327.71,-2942.03 305.6,-2948.72 296.77,-2940.98"/>
<polygon fill="grey" stroke="grey" points="299.95,-2939.5 293,-2931.5 293.44,-2942.09 299.95,-2939.5"/>
</g>
<!-- Node_16&#45;&gt;Node_15 -->
<g id="edge25" class="edge">
<title>Node_16:f2&#45;&gt;Node_15:f1</title>
<path fill="none" stroke="gray" stroke-dasharray="5,2" d="M329,-1125C329,-1141.61 336.76,-1144.55 339,-1161 344.55,-1201.73 367.75,-1224.12 339,-1253.5 327.71,-1265.03 305.6,-1271.72 296.77,-1263.98"/>
<polygon fill="gray" stroke="gray" points="299.95,-1262.5 293,-1254.5 293.44,-1265.09 299.95,-1262.5"/>
</g>
<!-- Node_17 -->
<g id="node17" class="node">
<title>Node_17</title>
<polygon fill="darkcyan" stroke="black" points="167,-903.5 167,-995.5 339,-995.5 339,-903.5 167,-903.5"/>
<text text-anchor="middle" x="207" y="-945.8" font-family="Times,serif" font-size="14.00">Constructor</text>
<polyline fill="none" stroke="black" points="247,-903.5 247,-995.5 "/>
<text text-anchor="middle" x="293" y="-980.3" font-family="Times,serif" font-size="14.00">tmp_3</text>
<polyline fill="none" stroke="black" points="247,-972.5 339,-972.5 "/>
<text text-anchor="middle" x="293" y="-957.3" font-family="Times,serif" font-size="14.00">#9</text>
<polyline fill="none" stroke="black" points="247,-949.5 339,-949.5 "/>
<text text-anchor="middle" x="293" y="-934.3" font-family="Times,serif" font-size="14.00">0x16F633050</text>
<polyline fill="none" stroke="black" points="247,-926.5 339,-926.5 "/>
<text text-anchor="middle" x="293" y="-911.3" font-family="Times,serif" font-size="14.00">value = 20</text>
</g>
<!-- Node_16&#45;&gt;Node_17 -->
<g id="edge26" class="edge">
<title>Node_16&#45;&gt;Node_17</title>
<path fill="none" stroke="blue" d="M253,-1032.37C253,-1023.86 253,-1014.87 253,-1006.09"/>
<polygon fill="blue" stroke="blue" points="256.5,-1005.92 253,-995.92 249.5,-1005.92 256.5,-1005.92"/>
</g>
<!-- Node_18 -->
<g id="node18" class="node">
<title>Node_18</title>
<path fill="#ff6e50" stroke="black" d="M135,-774.5C135,-774.5 371,-774.5 371,-774.5 377,-774.5 383,-780.5 383,-786.5 383,-786.5 383,-854.5 383,-854.5 383,-860.5 377,-866.5 371,-866.5 371,-866.5 135,-866.5 135,-866.5 129,-866.5 123,-860.5 123,-854.5 123,-854.5 123,-786.5 123,-786.5 123,-780.5 129,-774.5 135,-774.5"/>
<text text-anchor="middle" x="160" y="-816.8" font-family="Times,serif" font-size="14.00">[COPY] =</text>
<polyline fill="none" stroke="black" points="197,-774.5 197,-866.5 "/>
<text text-anchor="middle" x="244" y="-851.3" font-family="Times,serif" font-size="14.00">a</text>
<polyline fill="none" stroke="black" points="197,-843.5 291,-843.5 "/>
<text text-anchor="middle" x="244" y="-828.3" font-family="Times,serif" font-size="14.00">#0</text>
<polyline fill="none" stroke="black" points="197,-820.5 291,-820.5 "/>
<text text-anchor="middle" x="244" y="-805.3" font-family="Times,serif" font-size="14.00">0x16F6331B0</text>
<polyline fill="none" stroke="black" points="197,-797.5 291,-797.5 "/>
<text text-anchor="middle" x="244" y="-782.3" font-family="Times,serif" font-size="14.00">value = 1</text>
<polyline fill="none" stroke="black" points="291,-774.5 291,-866.5 "/>
<text text-anchor="middle" x="337" y="-851.3" font-family="Times,serif" font-size="14.00">tmp_3</text>
<polyline fill="none" stroke="black" points="291,-843.5 383,-843.5 "/>
<text text-anchor="middle" x="337" y="-828.3" font-family="Times,serif" font-size="14.00">#9</text>
<polyline fill="none" stroke="black" points="291,-820.5 383,-820.5 "/>
<text text-anchor="middle" x="337" y="-805.3" font-family="Times,serif" font-size="14.00">0x16F633050</text>
<polyline fill="none" stroke="black" points="291,-797.5 383,-797.5 "/>
<text text-anchor="middle" x="337" y="-782.3" font-family="Times,serif" font-size="14.00">value = 20</text>
</g>
<!-- Node_17&#45;&gt;Node_18 -->
<g id="edge27" class="edge">
<title>Node_17&#45;&gt;Node_18</title>
<path fill="none" stroke="blue" d="M253,-903.37C253,-894.86 253,-885.87 253,-877.09"/>
<polygon fill="blue" stroke="blue" points="256.5,-876.92 253,-866.92 249.5,-876.92 256.5,-876.92"/>
</g>
<!-- Node_18&#45;&gt;Node_1 -->
<g id="edge28" class="edge">
<title>Node_18:f1&#45;&gt;Node_1:f1</title>
<path fill="none" stroke="grey" stroke-dasharray="5,2" d="M244,-867C244,-908.44 191.83,-879.07 158,-903 72.59,-963.42 0,-972.88 0,-1077.5 0,-2756.5 0,-2756.5 0,-2756.5 0,-2842.19 13.02,-2880.16 82,-2931 175.2,-2999.68 264,-2879.66 340,-2967 366.99,-2998.01 368.76,-3030.12 340,-3059.5 328.35,-3071.4 305.42,-3078.24 296.59,-3069.95"/>
<polygon fill="grey" stroke="grey" points="299.82,-3068.61 293,-3060.5 293.28,-3071.09 299.82,-3068.61"/>
</g>
<!-- Node_18&#45;&gt;Node_17 -->
<g id="edge29" class="edge">
<title>Node_18:f2&#45;&gt;Node_17:f1</title>
<path fill="none" stroke="gray" stroke-dasharray="5,2" d="M337,-867C337,-924.12 378.95,-954.67 339,-995.5 327.71,-1007.03 305.6,-1013.72 296.77,-1005.98"/>
<polygon fill="gray" stroke="gray" points="299.95,-1004.5 293,-996.5 293.44,-1007.09 299.95,-1004.5"/>
</g>
<!-- Node_19 -->
<g id="node19" class="node">
<title>Node_19</title>
<path fill="#ffded7" stroke="black" d="M182,-645.5C182,-645.5 324,-645.5 324,-645.5 330,-645.5 336,-651.5 336,-657.5 336,-657.5 336,-725.5 336,-725.5 336,-731.5 330,-737.5 324,-737.5 324,-737.5 182,-737.5 182,-737.5 176,-737.5 170,-731.5 170,-725.5 170,-725.5 170,-657.5 170,-657.5 170,-651.5 176,-645.5 182,-645.5"/>
<text text-anchor="middle" x="207" y="-687.8" font-family="Times,serif" font-size="14.00">Destructor</text>
<polyline fill="none" stroke="black" points="244,-645.5 244,-737.5 "/>
<text text-anchor="middle" x="290" y="-722.3" font-family="Times,serif" font-size="14.00">tmp_3</text>
<polyline fill="none" stroke="black" points="244,-714.5 336,-714.5 "/>
<text text-anchor="middle" x="290" y="-699.3" font-family="Times,serif" font-size="14.00">#9</text>
<polyline fill="none" stroke="black" points="244,-691.5 336,-691.5 "/>
<text text-anchor="middle" x="290" y="-676.3" font-family="Times,serif" font-size="14.00">0x16F633050</text>
<polyline fill="none" stroke="black" points="244,-668.5 336,-668.5 "/>
<text text-anchor="middle" x="290" y="-653.3" font-family="Times,serif" font-size="14.00">value = 20</text>
</g>
<!-- Node_18&#45;&gt;Node_19 -->
<g id="edge30" class="edge">
<title>Node_18&#45;&gt;Node_19</title>
<path fill="none" stroke="blue" d="M253,-774.37C253,-765.86 253,-756.87 253,-748.09"/>
<polygon fill="blue" stroke="blue" points="256.5,-747.92 253,-737.92 249.5,-747.92 256.5,-747.92"/>
</g>
<!-- Node_19&#45;&gt;Node_17 -->
<g id="edge31" class="edge">
<title>Node_19:f1&#45;&gt;Node_17:f1</title>
<path fill="none" stroke="grey" stroke-dasharray="5,2" d="M337,-726.5C448.2,-726.5 454.39,-969.12 350.09,-983.8"/>
<polygon fill="grey" stroke="grey" points="349.74,-980.32 340,-984.5 350.22,-987.3 349.74,-980.32"/>
</g>
<!-- Node_20 -->
<g id="node20" class="node">
<title>Node_20</title>
<path fill="#ffded7" stroke="black" d="M182,-516.5C182,-516.5 324,-516.5 324,-516.5 330,-516.5 336,-522.5 336,-528.5 336,-528.5 336,-596.5 336,-596.5 336,-602.5 330,-608.5 324,-608.5 324,-608.5 182,-608.5 182,-608.5 176,-608.5 170,-602.5 170,-596.5 170,-596.5 170,-528.5 170,-528.5 170,-522.5 176,-516.5 182,-516.5"/>
<text text-anchor="middle" x="207" y="-558.8" font-family="Times,serif" font-size="14.00">Destructor</text>
<polyline fill="none" stroke="black" points="244,-516.5 244,-608.5 "/>
<text text-anchor="middle" x="290" y="-593.3" font-family="Times,serif" font-size="14.00">val</text>
<polyline fill="none" stroke="black" points="244,-585.5 336,-585.5 "/>
<text text-anchor="middle" x="290" y="-570.3" font-family="Times,serif" font-size="14.00">#8</text>
<polyline fill="none" stroke="black" points="244,-562.5 336,-562.5 "/>
<text text-anchor="middle" x="290" y="-547.3" font-family="Times,serif" font-size="14.00">0x16F633028</text>
<polyline fill="none" stroke="black" points="244,-539.5 336,-539.5 "/>
<text text-anchor="middle" x="290" y="-524.3" font-family="Times,serif" font-size="14.00">value = 10</text>
</g>
<!-- Node_19&#45;&gt;Node_20 -->
<g id="edge32" class="edge">
<title>Node_19&#45;&gt;Node_20</title>
<path fill="none" stroke="blue" d="M253,-645.37C253,-636.86 253,-627.87 253,-619.09"/>
<polygon fill="blue" stroke="blue" points="256.5,-618.92 253,-608.92 249.5,-618.92 256.5,-618.92"/>
</g>
<!-- Node_20&#45;&gt;Node_15 -->
<g id="edge33" class="edge">
<title>Node_20:f1&#45;&gt;Node_15:f1</title>
<path fill="none" stroke="grey" stroke-dasharray="5,2" d="M337,-597.5C453.47,-597.5 449,-741.51 449,-819.5 449,-950.5 449,-950.5 449,-950.5 449,-1006.64 374.4,-1196.8 347.3,-1235.57"/>
<polygon fill="grey" stroke="grey" points="344.84,-1233.08 340,-1242.5 349.66,-1238.15 344.84,-1233.08"/>
</g>
<!-- Node_21 -->
<g id="node21" class="node">
<title>Node_21</title>
<path fill="#ffded7" stroke="black" d="M181,-387.5C181,-387.5 325,-387.5 325,-387.5 331,-387.5 337,-393.5 337,-399.5 337,-399.5 337,-467.5 337,-467.5 337,-473.5 331,-479.5 325,-479.5 325,-479.5 181,-479.5 181,-479.5 175,-479.5 169,-473.5 169,-467.5 169,-467.5 169,-399.5 169,-399.5 169,-393.5 175,-387.5 181,-387.5"/>
<text text-anchor="middle" x="206" y="-429.8" font-family="Times,serif" font-size="14.00">Destructor</text>
<polyline fill="none" stroke="black" points="243,-387.5 243,-479.5 "/>
<text text-anchor="middle" x="290" y="-464.3" font-family="Times,serif" font-size="14.00">d</text>
<polyline fill="none" stroke="black" points="243,-456.5 337,-456.5 "/>
<text text-anchor="middle" x="290" y="-441.3" font-family="Times,serif" font-size="14.00">#7</text>
<polyline fill="none" stroke="black" points="243,-433.5 337,-433.5 "/>
<text text-anchor="middle" x="290" y="-418.3" font-family="Times,serif" font-size="14.00">0x16F6330B8</text>
<polyline fill="none" stroke="black" points="243,-410.5 337,-410.5 "/>
<text text-anchor="middle" x="290" y="-395.3" font-family="Times,serif" font-size="14.00">value = 13</text>
</g>
<!-- Node_20&#45;&gt;Node_21 -->
<g id="edge34" class="edge">
<title>Node_20&#45;&gt;Node_21</title>
<path fill="none" stroke="blue" d="M253,-516.37C253,-507.86 253,-498.87 253,-490.09"/>
<polygon fill="blue" stroke="blue" points="256.5,-489.92 253,-479.92 249.5,-489.92 256.5,-489.92"/>
</g>
<!-- Node_21&#45;&gt;Node_13 -->
<g id="edge35" class="edge">
<title>Node_21:f1&#45;&gt;Node_13:f1</title>
<path fill="none" stroke="grey" stroke-dasharray="5,2" d="M338,-468.5C456.83,-468.5 487,-571.67 487,-690.5 487,-1208.5 487,-1208.5 487,-1208.5 487,-1348.31 513.54,-1426.56 402.5,-1511.5 392.19,-1519.39 300.68,-1525.63 272.33,-1518.15"/>
<polygon fill="grey" stroke="grey" points="274.24,-1515.21 264,-1512.5 270.31,-1521.01 274.24,-1515.21"/>
</g>
<!-- Node_22 -->
<g id="node22" class="node">
<title>Node_22</title>
<path fill="#ffded7" stroke="black" d="M182,-258.5C182,-258.5 324,-258.5 324,-258.5 330,-258.5 336,-264.5 336,-270.5 336,-270.5 336,-338.5 336,-338.5 336,-344.5 330,-350.5 324,-350.5 324,-350.5 182,-350.5 182,-350.5 176,-350.5 170,-344.5 170,-338.5 170,-338.5 170,-270.5 170,-270.5 170,-264.5 176,-258.5 182,-258.5"/>
<text text-anchor="middle" x="207" y="-300.8" font-family="Times,serif" font-size="14.00">Destructor</text>
<polyline fill="none" stroke="black" points="244,-258.5 244,-350.5 "/>
<text text-anchor="middle" x="290" y="-335.3" font-family="Times,serif" font-size="14.00">c</text>
<polyline fill="none" stroke="black" points="244,-327.5 336,-327.5 "/>
<text text-anchor="middle" x="290" y="-312.3" font-family="Times,serif" font-size="14.00">#3</text>
<polyline fill="none" stroke="black" points="244,-304.5 336,-304.5 "/>
<text text-anchor="middle" x="290" y="-289.3" font-family="Times,serif" font-size="14.00">0x16F633120</text>
<polyline fill="none" stroke="black" points="244,-281.5 336,-281.5 "/>
<text text-anchor="middle" x="290" y="-266.3" font-family="Times,serif" font-size="14.00">value = 10</text>
</g>
<!-- Node_21&#45;&gt;Node_22 -->
<g id="edge36" class="edge">
<title>Node_21&#45;&gt;Node_22</title>
<path fill="none" stroke="blue" d="M253,-387.37C253,-378.86 253,-369.87 253,-361.09"/>
<polygon fill="blue" stroke="blue" points="256.5,-360.92 253,-350.92 249.5,-360.92 256.5,-360.92"/>
</g>
<!-- Node_22&#45;&gt;Node_4 -->
<g id="edge37" class="edge">
<title>Node_22:f1&#45;&gt;Node_4:f1</title>
<path fill="none" stroke="grey" stroke-dasharray="5,2" d="M337,-339.5C466.29,-339.5 525,-432.21 525,-561.5 525,-2369.5 525,-2369.5 525,-2369.5 525,-2514.92 527.87,-2600.53 401.5,-2672.5 378.16,-2685.79 289.63,-2700.1 268.53,-2682.62"/>
<polygon fill="grey" stroke="grey" points="271.59,-2680.9 264,-2673.5 265.32,-2684.01 271.59,-2680.9"/>
</g>
<!-- Node_23 -->
<g id="node23" class="node">
<title>Node_23</title>
<path fill="#ffded7" stroke="black" d="M182,-129.5C182,-129.5 324,-129.5 324,-129.5 330,-129.5 336,-135.5 336,-141.5 336,-141.5 336,-209.5 336,-209.5 336,-215.5 330,-221.5 324,-221.5 324,-221.5 182,-221.5 182,-221.5 176,-221.5 170,-215.5 170,-209.5 170,-209.5 170,-141.5 170,-141.5 170,-135.5 176,-129.5 182,-129.5"/>
<text text-anchor="middle" x="207" y="-171.8" font-family="Times,serif" font-size="14.00">Destructor</text>
<polyline fill="none" stroke="black" points="244,-129.5 244,-221.5 "/>
<text text-anchor="middle" x="290" y="-206.3" font-family="Times,serif" font-size="14.00">b</text>
<polyline fill="none" stroke="black" points="244,-198.5 336,-198.5 "/>
<text text-anchor="middle" x="290" y="-183.3" font-family="Times,serif" font-size="14.00">#1</text>
<polyline fill="none" stroke="black" points="244,-175.5 336,-175.5 "/>
<text text-anchor="middle" x="290" y="-160.3" font-family="Times,serif" font-size="14.00">0x16F633160</text>
<polyline fill="none" stroke="black" points="244,-152.5 336,-152.5 "/>
<text text-anchor="middle" x="290" y="-137.3" font-family="Times,serif" font-size="14.00">value = 2</text>
</g>
<!-- Node_22&#45;&gt;Node_23 -->
<g id="edge38" class="edge">
<title>Node_22&#45;&gt;Node_23</title>
<path fill="none" stroke="blue" d="M253,-258.37C253,-249.86 253,-240.87 253,-232.09"/>
<polygon fill="blue" stroke="blue" points="256.5,-231.92 253,-221.92 249.5,-231.92 256.5,-231.92"/>
</g>
<!-- Node_23&#45;&gt;Node_2 -->
<g id="edge39" class="edge">
<title>Node_23:f1&#45;&gt;Node_2:f1</title>
<path fill="none" stroke="grey" stroke-dasharray="5,2" d="M337,-210.5C477.8,-210.5 563,-291.7 563,-432.5 563,-2627.5 563,-2627.5 563,-2627.5 563,-2787.29 505.83,-2913.95 350.38,-2919.32"/>
<polygon fill="grey" stroke="grey" points="349.94,-2915.83 340,-2919.5 350.06,-2922.83 349.94,-2915.83"/>
</g>
<!-- Node_24 -->
<g id="node24" class="node">
<title>Node_24</title>
<path fill="#ffded7" stroke="black" d="M181,-0.5C181,-0.5 325,-0.5 325,-0.5 331,-0.5 337,-6.5 337,-12.5 337,-12.5 337,-80.5 337,-80.5 337,-86.5 331,-92.5 325,-92.5 325,-92.5 181,-92.5 181,-92.5 175,-92.5 169,-86.5 169,-80.5 169,-80.5 169,-12.5 169,-12.5 169,-6.5 175,-0.5 181,-0.5"/>
<text text-anchor="middle" x="206" y="-42.8" font-family="Times,serif" font-size="14.00">Destructor</text>
<polyline fill="none" stroke="black" points="243,-0.5 243,-92.5 "/>
<text text-anchor="middle" x="290" y="-77.3" font-family="Times,serif" font-size="14.00">a</text>
<polyline fill="none" stroke="black" points="243,-69.5 337,-69.5 "/>
<text text-anchor="middle" x="290" y="-54.3" font-family="Times,serif" font-size="14.00">#0</text>
<polyline fill="none" stroke="black" points="243,-46.5 337,-46.5 "/>
<text text-anchor="middle" x="290" y="-31.3" font-family="Times,serif" font-size="14.00">0x16F6331B0</text>
<polyline fill="none" stroke="black" points="243,-23.5 337,-23.5 "/>
<text text-anchor="middle" x="290" y="-8.3" font-family="Times,serif" font-size="14.00">value = 20</text>
</g>
<!-- Node_23&#45;&gt;Node_24 -->
<g id="edge40" class="edge">
<title>Node_23&#45;&gt;Node_24</title>
<path fill="none" stroke="blue" d="M253,-129.37C253,-120.86 253,-111.87 253,-103.09"/>
<polygon fill="blue" stroke="blue" points="256.5,-102.92 253,-92.92 249.5,-102.92 256.5,-102.92"/>
</g>
<!-- Node_24&#45;&gt;Node_1 -->
<g id="edge41" class="edge">
<title>Node_24:f1&#45;&gt;Node_1:f1</title>
<path fill="none" stroke="grey" stroke-dasharray="5,2" d="M338,-81.5C490.96,-81.5 601,-150.54 601,-303.5 601,-2756.5 601,-2756.5 601,-2756.5 601,-2926.87 518.1,-3043.86 351.08,-3048.37"/>
<polygon fill="grey" stroke="grey" points="350.95,-3044.87 341,-3048.5 351.05,-3051.87 350.95,-3044.87"/>
</g>
</g>
</svg>
