<?xml version="1.0" encoding="UTF-8" standalone="no"?>
<!DOCTYPE svg PUBLIC "-//W3C//DTD SVG 1.1//EN"
 "http://www.w3.org/Graphics/SVG/1.1/DTD/svg11.dtd">
<!-- Generated by graphviz version 2.50.0 (20211204.2007)
 -->
<!-- Title: G Pages: 1 -->
<svg width="452pt" height="1133pt"
 viewBox="0.00 0.00 451.71 1133.00" xmlns="http://www.w3.org/2000/svg" xmlns:xlink="http://www.w3.org/1999/xlink">
<g id="graph0" class="graph" transform="scale(1 1) rotate(0) translate(4 1129)">
<title>G</title>
<polygon fill="white" stroke="transparent" points="-4,4 -4,-1129 447.71,-1129 447.71,4 -4,4"/>
<!-- Node_1 -->
<g id="node1" class="node">
<title>Node_1</title>
<polygon fill="darkcyan" stroke="black" points="82.71,-1032.5 82.71,-1124.5 258.71,-1124.5 258.71,-1032.5 82.71,-1032.5"/>
<text text-anchor="middle" x="122.71" y="-1074.8" font-family="Times,serif" font-size="14.00">Constructor</text>
<polyline fill="none" stroke="black" points="162.71,-1032.5 162.71,-1124.5 "/>
<text text-anchor="middle" x="210.71" y="-1109.3" font-family="Times,serif" font-size="14.00">a</text>
<polyline fill="none" stroke="black" points="162.71,-1101.5 258.71,-1101.5 "/>
<text text-anchor="middle" x="210.71" y="-1086.3" font-family="Times,serif" font-size="14.00">#0</text>
<polyline fill="none" stroke="black" points="162.71,-1078.5 258.71,-1078.5 "/>
<text text-anchor="middle" x="210.71" y="-1063.3" font-family="Times,serif" font-size="14.00">0x16D7971B0</text>
<polyline fill="none" stroke="black" points="162.71,-1055.5 258.71,-1055.5 "/>
<text text-anchor="middle" x="210.71" y="-1040.3" font-family="Times,serif" font-size="14.00">value = 0</text>
</g>
<!-- Node_2 -->
<g id="node2" class="node">
<title>Node_2</title>
<polygon fill="darkcyan" stroke="black" points="83.71,-903.5 83.71,-995.5 257.71,-995.5 257.71,-903.5 83.71,-903.5"/>
<text text-anchor="middle" x="123.71" y="-945.8" font-family="Times,serif" font-size="14.00">Constructor</text>
<polyline fill="none" stroke="black" points="163.71,-903.5 163.71,-995.5 "/>
<text text-anchor="middle" x="210.71" y="-980.3" font-family="Times,serif" font-size="14.00">c</text>
<polyline fill="none" stroke="black" points="163.71,-972.5 257.71,-972.5 "/>
<text text-anchor="middle" x="210.71" y="-957.3" font-family="Times,serif" font-size="14.00">#1</text>
<polyline fill="none" stroke="black" points="163.71,-949.5 257.71,-949.5 "/>
<text text-anchor="middle" x="210.71" y="-934.3" font-family="Times,serif" font-size="14.00">0x16D797160</text>
<polyline fill="none" stroke="black" points="163.71,-926.5 257.71,-926.5 "/>
<text text-anchor="middle" x="210.71" y="-911.3" font-family="Times,serif" font-size="14.00">value = 2</text>
</g>
<!-- Node_1&#45;&gt;Node_2 -->
<g id="edge1" class="edge">
<title>Node_1&#45;&gt;Node_2</title>
<path fill="none" stroke="blue" d="M170.71,-1032.37C170.71,-1023.86 170.71,-1014.87 170.71,-1006.09"/>
<polygon fill="blue" stroke="blue" points="174.21,-1005.92 170.71,-995.92 167.21,-1005.92 174.21,-1005.92"/>
</g>
<!-- Node_3 -->
<g id="node3" class="node">
<title>Node_3</title>
<polygon fill="#ff6e50" stroke="black" points="18.71,-774.5 18.71,-866.5 322.71,-866.5 322.71,-774.5 18.71,-774.5"/>
<text text-anchor="middle" x="75.21" y="-816.8" font-family="Times,serif" font-size="14.00">Copy Constructor</text>
<polyline fill="none" stroke="black" points="131.71,-774.5 131.71,-866.5 "/>
<text text-anchor="middle" x="179.21" y="-851.3" font-family="Times,serif" font-size="14.00">tmp_1</text>
<polyline fill="none" stroke="black" points="131.71,-843.5 226.71,-843.5 "/>
<text text-anchor="middle" x="179.21" y="-828.3" font-family="Times,serif" font-size="14.00">#2</text>
<polyline fill="none" stroke="black" points="131.71,-820.5 226.71,-820.5 "/>
<text text-anchor="middle" x="179.21" y="-805.3" font-family="Times,serif" font-size="14.00">0x16D7970F8</text>
<polyline fill="none" stroke="black" points="131.71,-797.5 226.71,-797.5 "/>
<text text-anchor="middle" x="179.21" y="-782.3" font-family="Times,serif" font-size="14.00">value = 0</text>
<polyline fill="none" stroke="black" points="226.71,-774.5 226.71,-866.5 "/>
<text text-anchor="middle" x="274.71" y="-851.3" font-family="Times,serif" font-size="14.00">a</text>
<polyline fill="none" stroke="black" points="226.71,-843.5 322.71,-843.5 "/>
<text text-anchor="middle" x="274.71" y="-828.3" font-family="Times,serif" font-size="14.00">#0</text>
<polyline fill="none" stroke="black" points="226.71,-820.5 322.71,-820.5 "/>
<text text-anchor="middle" x="274.71" y="-805.3" font-family="Times,serif" font-size="14.00">0x16D7971B0</text>
<polyline fill="none" stroke="black" points="226.71,-797.5 322.71,-797.5 "/>
<text text-anchor="middle" x="274.71" y="-782.3" font-family="Times,serif" font-size="14.00">value = 0</text>
</g>
<!-- Node_2&#45;&gt;Node_3 -->
<g id="edge2" class="edge">
<title>Node_2&#45;&gt;Node_3</title>
<path fill="none" stroke="blue" d="M170.71,-903.37C170.71,-894.86 170.71,-885.87 170.71,-877.09"/>
<polygon fill="blue" stroke="blue" points="174.21,-876.92 170.71,-866.92 167.21,-876.92 174.21,-876.92"/>
</g>
<!-- Node_4 -->
<g id="node4" class="node">
<title>Node_4</title>
<polygon fill="#ff6e50" stroke="black" points="19.71,-645.5 19.71,-737.5 321.71,-737.5 321.71,-645.5 19.71,-645.5"/>
<text text-anchor="middle" x="76.21" y="-687.8" font-family="Times,serif" font-size="14.00">Copy Constructor</text>
<polyline fill="none" stroke="black" points="132.71,-645.5 132.71,-737.5 "/>
<text text-anchor="middle" x="179.71" y="-722.3" font-family="Times,serif" font-size="14.00">tmp_2</text>
<polyline fill="none" stroke="black" points="132.71,-714.5 226.71,-714.5 "/>
<text text-anchor="middle" x="179.71" y="-699.3" font-family="Times,serif" font-size="14.00">#3</text>
<polyline fill="none" stroke="black" points="132.71,-691.5 226.71,-691.5 "/>
<text text-anchor="middle" x="179.71" y="-676.3" font-family="Times,serif" font-size="14.00">0x16D797120</text>
<polyline fill="none" stroke="black" points="132.71,-668.5 226.71,-668.5 "/>
<text text-anchor="middle" x="179.71" y="-653.3" font-family="Times,serif" font-size="14.00">value = 0</text>
<polyline fill="none" stroke="black" points="226.71,-645.5 226.71,-737.5 "/>
<text text-anchor="middle" x="274.21" y="-722.3" font-family="Times,serif" font-size="14.00">tmp_1</text>
<polyline fill="none" stroke="black" points="226.71,-714.5 321.71,-714.5 "/>
<text text-anchor="middle" x="274.21" y="-699.3" font-family="Times,serif" font-size="14.00">#2</text>
<polyline fill="none" stroke="black" points="226.71,-691.5 321.71,-691.5 "/>
<text text-anchor="middle" x="274.21" y="-676.3" font-family="Times,serif" font-size="14.00">0x16D7970F8</text>
<polyline fill="none" stroke="black" points="226.71,-668.5 321.71,-668.5 "/>
<text text-anchor="middle" x="274.21" y="-653.3" font-family="Times,serif" font-size="14.00">value = 0</text>
</g>
<!-- Node_3&#45;&gt;Node_4 -->
<g id="edge3" class="edge">
<title>Node_3&#45;&gt;Node_4</title>
<path fill="none" stroke="blue" d="M170.71,-774.37C170.71,-765.86 170.71,-756.87 170.71,-748.09"/>
<polygon fill="blue" stroke="blue" points="174.21,-747.92 170.71,-737.92 167.21,-747.92 174.21,-747.92"/>
</g>
<!-- Node_5 -->
<g id="node5" class="node">
<title>Node_5</title>
<path fill="#ff6e50" stroke="black" d="M51.71,-516.5C51.71,-516.5 289.71,-516.5 289.71,-516.5 295.71,-516.5 301.71,-522.5 301.71,-528.5 301.71,-528.5 301.71,-596.5 301.71,-596.5 301.71,-602.5 295.71,-608.5 289.71,-608.5 289.71,-608.5 51.71,-608.5 51.71,-608.5 45.71,-608.5 39.71,-602.5 39.71,-596.5 39.71,-596.5 39.71,-528.5 39.71,-528.5 39.71,-522.5 45.71,-516.5 51.71,-516.5"/>
<text text-anchor="middle" x="76.71" y="-558.8" font-family="Times,serif" font-size="14.00">[COPY] =</text>
<polyline fill="none" stroke="black" points="113.71,-516.5 113.71,-608.5 "/>
<text text-anchor="middle" x="160.71" y="-593.3" font-family="Times,serif" font-size="14.00">c</text>
<polyline fill="none" stroke="black" points="113.71,-585.5 207.71,-585.5 "/>
<text text-anchor="middle" x="160.71" y="-570.3" font-family="Times,serif" font-size="14.00">#1</text>
<polyline fill="none" stroke="black" points="113.71,-562.5 207.71,-562.5 "/>
<text text-anchor="middle" x="160.71" y="-547.3" font-family="Times,serif" font-size="14.00">0x16D797160</text>
<polyline fill="none" stroke="black" points="113.71,-539.5 207.71,-539.5 "/>
<text text-anchor="middle" x="160.71" y="-524.3" font-family="Times,serif" font-size="14.00">value = 2</text>
<polyline fill="none" stroke="black" points="207.71,-516.5 207.71,-608.5 "/>
<text text-anchor="middle" x="254.71" y="-593.3" font-family="Times,serif" font-size="14.00">tmp_2</text>
<polyline fill="none" stroke="black" points="207.71,-585.5 301.71,-585.5 "/>
<text text-anchor="middle" x="254.71" y="-570.3" font-family="Times,serif" font-size="14.00">#3</text>
<polyline fill="none" stroke="black" points="207.71,-562.5 301.71,-562.5 "/>
<text text-anchor="middle" x="254.71" y="-547.3" font-family="Times,serif" font-size="14.00">0x16D797120</text>
<polyline fill="none" stroke="black" points="207.71,-539.5 301.71,-539.5 "/>
<text text-anchor="middle" x="254.71" y="-524.3" font-family="Times,serif" font-size="14.00">value = 0</text>
</g>
<!-- Node_4&#45;&gt;Node_5 -->
<g id="edge4" class="edge">
<title>Node_4&#45;&gt;Node_5</title>
<path fill="none" stroke="blue" d="M170.71,-645.37C170.71,-636.86 170.71,-627.87 170.71,-619.09"/>
<polygon fill="blue" stroke="blue" points="174.21,-618.92 170.71,-608.92 167.21,-618.92 174.21,-618.92"/>
</g>
<!-- Node_5&#45;&gt;Node_2 -->
<g id="edge5" class="edge">
<title>Node_5:f1&#45;&gt;Node_2:f1</title>
<path fill="none" stroke="grey" stroke-dasharray="5,2" d="M160.71,-609C160.71,-677.56 53.37,-591.33 10.71,-645 -4.32,-663.92 -2.32,-853.1 9.71,-867 82.59,-951.22 184.83,-818.78 257.71,-903 284.61,-934.09 286.47,-966.12 257.71,-995.5 246.07,-1007.4 223.14,-1014.24 214.3,-1005.95"/>
<polygon fill="grey" stroke="grey" points="217.53,-1004.61 210.71,-996.5 210.99,-1007.09 217.53,-1004.61"/>
</g>
<!-- Node_5&#45;&gt;Node_4 -->
<g id="edge6" class="edge">
<title>Node_5:f2&#45;&gt;Node_4:f1</title>
<path fill="none" stroke="gray" stroke-dasharray="5,2" d="M254.71,-609C254.71,-642.8 304.37,-615.99 321.71,-645 342.81,-680.29 350.68,-708.33 321.71,-737.5 312.29,-746.99 216.81,-752.45 187.94,-744.28"/>
<polygon fill="gray" stroke="gray" points="189.91,-741.38 179.71,-738.5 185.88,-747.11 189.91,-741.38"/>
</g>
<!-- Node_6 -->
<g id="node6" class="node">
<title>Node_6</title>
<path fill="#ffded7" stroke="black" d="M98.71,-387.5C98.71,-387.5 242.71,-387.5 242.71,-387.5 248.71,-387.5 254.71,-393.5 254.71,-399.5 254.71,-399.5 254.71,-467.5 254.71,-467.5 254.71,-473.5 248.71,-479.5 242.71,-479.5 242.71,-479.5 98.71,-479.5 98.71,-479.5 92.71,-479.5 86.71,-473.5 86.71,-467.5 86.71,-467.5 86.71,-399.5 86.71,-399.5 86.71,-393.5 92.71,-387.5 98.71,-387.5"/>
<text text-anchor="middle" x="123.71" y="-429.8" font-family="Times,serif" font-size="14.00">Destructor</text>
<polyline fill="none" stroke="black" points="160.71,-387.5 160.71,-479.5 "/>
<text text-anchor="middle" x="207.71" y="-464.3" font-family="Times,serif" font-size="14.00">tmp_2</text>
<polyline fill="none" stroke="black" points="160.71,-456.5 254.71,-456.5 "/>
<text text-anchor="middle" x="207.71" y="-441.3" font-family="Times,serif" font-size="14.00">#3</text>
<polyline fill="none" stroke="black" points="160.71,-433.5 254.71,-433.5 "/>
<text text-anchor="middle" x="207.71" y="-418.3" font-family="Times,serif" font-size="14.00">0x16D797120</text>
<polyline fill="none" stroke="black" points="160.71,-410.5 254.71,-410.5 "/>
<text text-anchor="middle" x="207.71" y="-395.3" font-family="Times,serif" font-size="14.00">value = 0</text>
</g>
<!-- Node_5&#45;&gt;Node_6 -->
<g id="edge7" class="edge">
<title>Node_5&#45;&gt;Node_6</title>
<path fill="none" stroke="blue" d="M170.71,-516.37C170.71,-507.86 170.71,-498.87 170.71,-490.09"/>
<polygon fill="blue" stroke="blue" points="174.21,-489.92 170.71,-479.92 167.21,-489.92 174.21,-489.92"/>
</g>
<!-- Node_6&#45;&gt;Node_4 -->
<g id="edge8" class="edge">
<title>Node_6:f1&#45;&gt;Node_4:f1</title>
<path fill="none" stroke="grey" stroke-dasharray="5,2" d="M255.71,-468.5C288.01,-468.5 296.03,-487.23 310.71,-516 318.1,-530.48 339.96,-719.12 321.71,-737.5 312.29,-746.99 216.81,-752.45 187.94,-744.28"/>
<polygon fill="grey" stroke="grey" points="189.91,-741.38 179.71,-738.5 185.88,-747.11 189.91,-741.38"/>
</g>
<!-- Node_7 -->
<g id="node7" class="node">
<title>Node_7</title>
<path fill="#ffded7" stroke="black" d="M98.21,-258.5C98.21,-258.5 243.21,-258.5 243.21,-258.5 249.21,-258.5 255.21,-264.5 255.21,-270.5 255.21,-270.5 255.21,-338.5 255.21,-338.5 255.21,-344.5 249.21,-350.5 243.21,-350.5 243.21,-350.5 98.21,-350.5 98.21,-350.5 92.21,-350.5 86.21,-344.5 86.21,-338.5 86.21,-338.5 86.21,-270.5 86.21,-270.5 86.21,-264.5 92.21,-258.5 98.21,-258.5"/>
<text text-anchor="middle" x="123.21" y="-300.8" font-family="Times,serif" font-size="14.00">Destructor</text>
<polyline fill="none" stroke="black" points="160.21,-258.5 160.21,-350.5 "/>
<text text-anchor="middle" x="207.71" y="-335.3" font-family="Times,serif" font-size="14.00">tmp_1</text>
<polyline fill="none" stroke="black" points="160.21,-327.5 255.21,-327.5 "/>
<text text-anchor="middle" x="207.71" y="-312.3" font-family="Times,serif" font-size="14.00">#2</text>
<polyline fill="none" stroke="black" points="160.21,-304.5 255.21,-304.5 "/>
<text text-anchor="middle" x="207.71" y="-289.3" font-family="Times,serif" font-size="14.00">0x16D7970F8</text>
<polyline fill="none" stroke="black" points="160.21,-281.5 255.21,-281.5 "/>
<text text-anchor="middle" x="207.71" y="-266.3" font-family="Times,serif" font-size="14.00">value = 0</text>
</g>
<!-- Node_6&#45;&gt;Node_7 -->
<g id="edge9" class="edge">
<title>Node_6&#45;&gt;Node_7</title>
<path fill="none" stroke="blue" d="M170.71,-387.37C170.71,-378.86 170.71,-369.87 170.71,-361.09"/>
<polygon fill="blue" stroke="blue" points="174.21,-360.92 170.71,-350.92 167.21,-360.92 174.21,-360.92"/>
</g>
<!-- Node_7&#45;&gt;Node_3 -->
<g id="edge10" class="edge">
<title>Node_7:f1&#45;&gt;Node_3:f1</title>
<path fill="none" stroke="grey" stroke-dasharray="5,2" d="M256.71,-339.5C374.74,-339.5 408.44,-785.38 322.71,-866.5 312.93,-875.76 216.98,-881.46 187.98,-873.3"/>
<polygon fill="grey" stroke="grey" points="189.91,-870.38 179.71,-867.5 185.89,-876.11 189.91,-870.38"/>
</g>
<!-- Node_8 -->
<g id="node8" class="node">
<title>Node_8</title>
<path fill="#ffded7" stroke="black" d="M98.71,-129.5C98.71,-129.5 242.71,-129.5 242.71,-129.5 248.71,-129.5 254.71,-135.5 254.71,-141.5 254.71,-141.5 254.71,-209.5 254.71,-209.5 254.71,-215.5 248.71,-221.5 242.71,-221.5 242.71,-221.5 98.71,-221.5 98.71,-221.5 92.71,-221.5 86.71,-215.5 86.71,-209.5 86.71,-209.5 86.71,-141.5 86.71,-141.5 86.71,-135.5 92.71,-129.5 98.71,-129.5"/>
<text text-anchor="middle" x="123.71" y="-171.8" font-family="Times,serif" font-size="14.00">Destructor</text>
<polyline fill="none" stroke="black" points="160.71,-129.5 160.71,-221.5 "/>
<text text-anchor="middle" x="207.71" y="-206.3" font-family="Times,serif" font-size="14.00">c</text>
<polyline fill="none" stroke="black" points="160.71,-198.5 254.71,-198.5 "/>
<text text-anchor="middle" x="207.71" y="-183.3" font-family="Times,serif" font-size="14.00">#1</text>
<polyline fill="none" stroke="black" points="160.71,-175.5 254.71,-175.5 "/>
<text text-anchor="middle" x="207.71" y="-160.3" font-family="Times,serif" font-size="14.00">0x16D797160</text>
<polyline fill="none" stroke="black" points="160.71,-152.5 254.71,-152.5 "/>
<text text-anchor="middle" x="207.71" y="-137.3" font-family="Times,serif" font-size="14.00">value = 0</text>
</g>
<!-- Node_7&#45;&gt;Node_8 -->
<g id="edge11" class="edge">
<title>Node_7&#45;&gt;Node_8</title>
<path fill="none" stroke="blue" d="M170.71,-258.37C170.71,-249.86 170.71,-240.87 170.71,-232.09"/>
<polygon fill="blue" stroke="blue" points="174.21,-231.92 170.71,-221.92 167.21,-231.92 174.21,-231.92"/>
</g>
<!-- Node_8&#45;&gt;Node_2 -->
<g id="edge12" class="edge">
<title>Node_8:f1&#45;&gt;Node_2:f1</title>
<path fill="none" stroke="grey" stroke-dasharray="5,2" d="M255.71,-210.5C374.79,-210.5 405.71,-313.42 405.71,-432.5 405.71,-692.5 405.71,-692.5 405.71,-692.5 405.71,-714.53 322.1,-952.88 268.64,-981.66"/>
<polygon fill="grey" stroke="grey" points="267.36,-978.39 258.71,-984.5 269.29,-985.12 267.36,-978.39"/>
</g>
<!-- Node_9 -->
<g id="node9" class="node">
<title>Node_9</title>
<path fill="#ffded7" stroke="black" d="M97.71,-0.5C97.71,-0.5 243.71,-0.5 243.71,-0.5 249.71,-0.5 255.71,-6.5 255.71,-12.5 255.71,-12.5 255.71,-80.5 255.71,-80.5 255.71,-86.5 249.71,-92.5 243.71,-92.5 243.71,-92.5 97.71,-92.5 97.71,-92.5 91.71,-92.5 85.71,-86.5 85.71,-80.5 85.71,-80.5 85.71,-12.5 85.71,-12.5 85.71,-6.5 91.71,-0.5 97.71,-0.5"/>
<text text-anchor="middle" x="122.71" y="-42.8" font-family="Times,serif" font-size="14.00">Destructor</text>
<polyline fill="none" stroke="black" points="159.71,-0.5 159.71,-92.5 "/>
<text text-anchor="middle" x="207.71" y="-77.3" font-family="Times,serif" font-size="14.00">a</text>
<polyline fill="none" stroke="black" points="159.71,-69.5 255.71,-69.5 "/>
<text text-anchor="middle" x="207.71" y="-54.3" font-family="Times,serif" font-size="14.00">#0</text>
<polyline fill="none" stroke="black" points="159.71,-46.5 255.71,-46.5 "/>
<text text-anchor="middle" x="207.71" y="-31.3" font-family="Times,serif" font-size="14.00">0x16D7971B0</text>
<polyline fill="none" stroke="black" points="159.71,-23.5 255.71,-23.5 "/>
<text text-anchor="middle" x="207.71" y="-8.3" font-family="Times,serif" font-size="14.00">value = 0</text>
</g>
<!-- Node_8&#45;&gt;Node_9 -->
<g id="edge13" class="edge">
<title>Node_8&#45;&gt;Node_9</title>
<path fill="none" stroke="blue" d="M170.71,-129.37C170.71,-120.86 170.71,-111.87 170.71,-103.09"/>
<polygon fill="blue" stroke="blue" points="174.21,-102.92 170.71,-92.92 167.21,-102.92 174.21,-102.92"/>
</g>
<!-- Node_9&#45;&gt;Node_1 -->
<g id="edge14" class="edge">
<title>Node_9:f1&#45;&gt;Node_1:f1</title>
<path fill="none" stroke="grey" stroke-dasharray="5,2" d="M256.71,-81.5C385.72,-81.5 443.71,-174.49 443.71,-303.5 443.71,-821.5 443.71,-821.5 443.71,-821.5 443.71,-971.45 414.47,-1107.27 269.86,-1113.29"/>
<polygon fill="grey" stroke="grey" points="269.64,-1109.8 259.71,-1113.5 269.78,-1116.79 269.64,-1109.8"/>
</g>
</g>
</svg>
