<?xml version="1.0" encoding="UTF-8" standalone="no"?>
<!DOCTYPE svg PUBLIC "-//W3C//DTD SVG 1.1//EN"
 "http://www.w3.org/Graphics/SVG/1.1/DTD/svg11.dtd">
<!-- Generated by graphviz version 2.50.0 (20211204.2007)
 -->
<!-- Title: G Pages: 1 -->
<svg width="406pt" height="875pt"
 viewBox="0.00 0.00 406.37 875.00" xmlns="http://www.w3.org/2000/svg" xmlns:xlink="http://www.w3.org/1999/xlink">
<g id="graph0" class="graph" transform="scale(1 1) rotate(0) translate(4 871)">
<title>G</title>
<polygon fill="white" stroke="transparent" points="-4,4 -4,-871 402.37,-871 402.37,4 -4,4"/>
<!-- Node_1 -->
<g id="node1" class="node">
<title>Node_1</title>
<polygon fill="darkcyan" stroke="black" points="102.48,-774.5 102.48,-866.5 283.48,-866.5 283.48,-774.5 102.48,-774.5"/>
<text text-anchor="middle" x="142.48" y="-816.8" font-family="Times,serif" font-size="14.00">Constructor</text>
<polyline fill="none" stroke="black" points="182.48,-774.5 182.48,-866.5 "/>
<text text-anchor="middle" x="232.98" y="-851.3" font-family="Times,serif" font-size="14.00">a</text>
<polyline fill="none" stroke="black" points="182.48,-843.5 283.48,-843.5 "/>
<text text-anchor="middle" x="232.98" y="-828.3" font-family="Times,serif" font-size="14.00">#0</text>
<polyline fill="none" stroke="black" points="182.48,-820.5 283.48,-820.5 "/>
<text text-anchor="middle" x="232.98" y="-805.3" font-family="Times,serif" font-size="14.00">0x16DAFF1C0</text>
<polyline fill="none" stroke="black" points="182.48,-797.5 283.48,-797.5 "/>
<text text-anchor="middle" x="232.98" y="-782.3" font-family="Times,serif" font-size="14.00">value = 0</text>
</g>
<!-- Node_2 -->
<g id="node2" class="node">
<title>Node_2</title>
<polygon fill="darkcyan" stroke="black" points="103.98,-645.5 103.98,-737.5 281.98,-737.5 281.98,-645.5 103.98,-645.5"/>
<text text-anchor="middle" x="143.98" y="-687.8" font-family="Times,serif" font-size="14.00">Constructor</text>
<polyline fill="none" stroke="black" points="183.98,-645.5 183.98,-737.5 "/>
<text text-anchor="middle" x="232.98" y="-722.3" font-family="Times,serif" font-size="14.00">nrvo</text>
<polyline fill="none" stroke="black" points="183.98,-714.5 281.98,-714.5 "/>
<text text-anchor="middle" x="232.98" y="-699.3" font-family="Times,serif" font-size="14.00">#1</text>
<polyline fill="none" stroke="black" points="183.98,-691.5 281.98,-691.5 "/>
<text text-anchor="middle" x="232.98" y="-676.3" font-family="Times,serif" font-size="14.00">0x16DAFF128</text>
<polyline fill="none" stroke="black" points="183.98,-668.5 281.98,-668.5 "/>
<text text-anchor="middle" x="232.98" y="-653.3" font-family="Times,serif" font-size="14.00">value = 10</text>
</g>
<!-- Node_1&#45;&gt;Node_2 -->
<g id="edge1" class="edge">
<title>Node_1&#45;&gt;Node_2</title>
<path fill="none" stroke="blue" d="M192.98,-774.37C192.98,-765.86 192.98,-756.87 192.98,-748.09"/>
<polygon fill="blue" stroke="blue" points="196.48,-747.92 192.98,-737.92 189.48,-747.92 196.48,-747.92"/>
</g>
<!-- Node_3 -->
<g id="node3" class="node">
<title>Node_3</title>
<polygon fill="#ff6e50" stroke="black" points="38.48,-516.5 38.48,-608.5 347.48,-608.5 347.48,-516.5 38.48,-516.5"/>
<text text-anchor="middle" x="94.98" y="-558.8" font-family="Times,serif" font-size="14.00">Copy Constructor</text>
<polyline fill="none" stroke="black" points="151.48,-516.5 151.48,-608.5 "/>
<text text-anchor="middle" x="200.48" y="-593.3" font-family="Times,serif" font-size="14.00">tmp_1</text>
<polyline fill="none" stroke="black" points="151.48,-585.5 249.48,-585.5 "/>
<text text-anchor="middle" x="200.48" y="-570.3" font-family="Times,serif" font-size="14.00">#2</text>
<polyline fill="none" stroke="black" points="151.48,-562.5 249.48,-562.5 "/>
<text text-anchor="middle" x="200.48" y="-547.3" font-family="Times,serif" font-size="14.00">0x16DAFF170</text>
<polyline fill="none" stroke="black" points="151.48,-539.5 249.48,-539.5 "/>
<text text-anchor="middle" x="200.48" y="-524.3" font-family="Times,serif" font-size="14.00">value = 10</text>
<polyline fill="none" stroke="black" points="249.48,-516.5 249.48,-608.5 "/>
<text text-anchor="middle" x="298.48" y="-593.3" font-family="Times,serif" font-size="14.00">nrvo</text>
<polyline fill="none" stroke="black" points="249.48,-585.5 347.48,-585.5 "/>
<text text-anchor="middle" x="298.48" y="-570.3" font-family="Times,serif" font-size="14.00">#1</text>
<polyline fill="none" stroke="black" points="249.48,-562.5 347.48,-562.5 "/>
<text text-anchor="middle" x="298.48" y="-547.3" font-family="Times,serif" font-size="14.00">0x16DAFF128</text>
<polyline fill="none" stroke="black" points="249.48,-539.5 347.48,-539.5 "/>
<text text-anchor="middle" x="298.48" y="-524.3" font-family="Times,serif" font-size="14.00">value = 10</text>
</g>
<!-- Node_2&#45;&gt;Node_3 -->
<g id="edge2" class="edge">
<title>Node_2&#45;&gt;Node_3</title>
<path fill="none" stroke="blue" d="M192.98,-645.37C192.98,-636.86 192.98,-627.87 192.98,-619.09"/>
<polygon fill="blue" stroke="blue" points="196.48,-618.92 192.98,-608.92 189.48,-618.92 196.48,-618.92"/>
</g>
<!-- Node_4 -->
<g id="node4" class="node">
<title>Node_4</title>
<path fill="#ffded7" stroke="black" d="M118.98,-387.5C118.98,-387.5 266.98,-387.5 266.98,-387.5 272.98,-387.5 278.98,-393.5 278.98,-399.5 278.98,-399.5 278.98,-467.5 278.98,-467.5 278.98,-473.5 272.98,-479.5 266.98,-479.5 266.98,-479.5 118.98,-479.5 118.98,-479.5 112.98,-479.5 106.98,-473.5 106.98,-467.5 106.98,-467.5 106.98,-399.5 106.98,-399.5 106.98,-393.5 112.98,-387.5 118.98,-387.5"/>
<text text-anchor="middle" x="143.98" y="-429.8" font-family="Times,serif" font-size="14.00">Destructor</text>
<polyline fill="none" stroke="black" points="180.98,-387.5 180.98,-479.5 "/>
<text text-anchor="middle" x="229.98" y="-464.3" font-family="Times,serif" font-size="14.00">nrvo</text>
<polyline fill="none" stroke="black" points="180.98,-456.5 278.98,-456.5 "/>
<text text-anchor="middle" x="229.98" y="-441.3" font-family="Times,serif" font-size="14.00">#1</text>
<polyline fill="none" stroke="black" points="180.98,-433.5 278.98,-433.5 "/>
<text text-anchor="middle" x="229.98" y="-418.3" font-family="Times,serif" font-size="14.00">0x16DAFF128</text>
<polyline fill="none" stroke="black" points="180.98,-410.5 278.98,-410.5 "/>
<text text-anchor="middle" x="229.98" y="-395.3" font-family="Times,serif" font-size="14.00">value = 10</text>
</g>
<!-- Node_3&#45;&gt;Node_4 -->
<g id="edge3" class="edge">
<title>Node_3&#45;&gt;Node_4</title>
<path fill="none" stroke="blue" d="M192.98,-516.37C192.98,-507.86 192.98,-498.87 192.98,-490.09"/>
<polygon fill="blue" stroke="blue" points="196.48,-489.92 192.98,-479.92 189.48,-489.92 196.48,-489.92"/>
</g>
<!-- Node_4&#45;&gt;Node_2 -->
<g id="edge4" class="edge">
<title>Node_4:f1&#45;&gt;Node_2:f1</title>
<path fill="none" stroke="grey" stroke-dasharray="5,2" d="M229.98,-480C229.98,-570.32 87.91,-446.71 29.98,-516 3.47,-547.71 2.9,-577.77 29.98,-609 104.11,-694.47 207.85,-559.53 281.98,-645 308.91,-676.06 310.75,-708.13 281.98,-737.5 269.71,-750.02 245.46,-757.14 236.45,-748.1"/>
<polygon fill="grey" stroke="grey" points="239.67,-746.71 232.98,-738.5 233.09,-749.09 239.67,-746.71"/>
</g>
<!-- Node_5 -->
<g id="node5" class="node">
<title>Node_5</title>
<path fill="#ff6e50" stroke="black" d="M68.48,-258.5C68.48,-258.5 317.48,-258.5 317.48,-258.5 323.48,-258.5 329.48,-264.5 329.48,-270.5 329.48,-270.5 329.48,-338.5 329.48,-338.5 329.48,-344.5 323.48,-350.5 317.48,-350.5 317.48,-350.5 68.48,-350.5 68.48,-350.5 62.48,-350.5 56.48,-344.5 56.48,-338.5 56.48,-338.5 56.48,-270.5 56.48,-270.5 56.48,-264.5 62.48,-258.5 68.48,-258.5"/>
<text text-anchor="middle" x="93.48" y="-300.8" font-family="Times,serif" font-size="14.00">[COPY] =</text>
<polyline fill="none" stroke="black" points="130.48,-258.5 130.48,-350.5 "/>
<text text-anchor="middle" x="180.98" y="-335.3" font-family="Times,serif" font-size="14.00">a</text>
<polyline fill="none" stroke="black" points="130.48,-327.5 231.48,-327.5 "/>
<text text-anchor="middle" x="180.98" y="-312.3" font-family="Times,serif" font-size="14.00">#0</text>
<polyline fill="none" stroke="black" points="130.48,-304.5 231.48,-304.5 "/>
<text text-anchor="middle" x="180.98" y="-289.3" font-family="Times,serif" font-size="14.00">0x16DAFF1C0</text>
<polyline fill="none" stroke="black" points="130.48,-281.5 231.48,-281.5 "/>
<text text-anchor="middle" x="180.98" y="-266.3" font-family="Times,serif" font-size="14.00">value = 0</text>
<polyline fill="none" stroke="black" points="231.48,-258.5 231.48,-350.5 "/>
<text text-anchor="middle" x="280.48" y="-335.3" font-family="Times,serif" font-size="14.00">tmp_1</text>
<polyline fill="none" stroke="black" points="231.48,-327.5 329.48,-327.5 "/>
<text text-anchor="middle" x="280.48" y="-312.3" font-family="Times,serif" font-size="14.00">#2</text>
<polyline fill="none" stroke="black" points="231.48,-304.5 329.48,-304.5 "/>
<text text-anchor="middle" x="280.48" y="-289.3" font-family="Times,serif" font-size="14.00">0x16DAFF170</text>
<polyline fill="none" stroke="black" points="231.48,-281.5 329.48,-281.5 "/>
<text text-anchor="middle" x="280.48" y="-266.3" font-family="Times,serif" font-size="14.00">value = 10</text>
</g>
<!-- Node_4&#45;&gt;Node_5 -->
<g id="edge5" class="edge">
<title>Node_4&#45;&gt;Node_5</title>
<path fill="none" stroke="blue" d="M192.98,-387.37C192.98,-378.86 192.98,-369.87 192.98,-361.09"/>
<polygon fill="blue" stroke="blue" points="196.48,-360.92 192.98,-350.92 189.48,-360.92 196.48,-360.92"/>
</g>
<!-- Node_5&#45;&gt;Node_1 -->
<g id="edge6" class="edge">
<title>Node_5:f1&#45;&gt;Node_1:f1</title>
<path fill="none" stroke="grey" stroke-dasharray="5,2" d="M180.98,-351C180.98,-391.21 127.47,-359.67 97.98,-387 22.3,-457.15 -37.82,-531.21 29.98,-609 106.92,-697.28 214.04,-556.72 290.98,-645 350.07,-712.8 376.48,-844.67 295.4,-854.87"/>
<polygon fill="grey" stroke="grey" points="294.75,-851.4 284.98,-855.5 295.17,-858.39 294.75,-851.4"/>
</g>
<!-- Node_5&#45;&gt;Node_3 -->
<g id="edge7" class="edge">
<title>Node_5:f2&#45;&gt;Node_3:f1</title>
<path fill="none" stroke="gray" stroke-dasharray="5,2" d="M280.98,-351C280.98,-377.38 401.57,-554.04 347.48,-608.5 337.76,-618.29 239.25,-623.9 209.47,-615.46"/>
<polygon fill="gray" stroke="gray" points="211.17,-612.39 200.98,-609.5 207.15,-618.11 211.17,-612.39"/>
</g>
<!-- Node_6 -->
<g id="node6" class="node">
<title>Node_6</title>
<path fill="#ffded7" stroke="black" d="M118.98,-129.5C118.98,-129.5 266.98,-129.5 266.98,-129.5 272.98,-129.5 278.98,-135.5 278.98,-141.5 278.98,-141.5 278.98,-209.5 278.98,-209.5 278.98,-215.5 272.98,-221.5 266.98,-221.5 266.98,-221.5 118.98,-221.5 118.98,-221.5 112.98,-221.5 106.98,-215.5 106.98,-209.5 106.98,-209.5 106.98,-141.5 106.98,-141.5 106.98,-135.5 112.98,-129.5 118.98,-129.5"/>
<text text-anchor="middle" x="143.98" y="-171.8" font-family="Times,serif" font-size="14.00">Destructor</text>
<polyline fill="none" stroke="black" points="180.98,-129.5 180.98,-221.5 "/>
<text text-anchor="middle" x="229.98" y="-206.3" font-family="Times,serif" font-size="14.00">tmp_1</text>
<polyline fill="none" stroke="black" points="180.98,-198.5 278.98,-198.5 "/>
<text text-anchor="middle" x="229.98" y="-183.3" font-family="Times,serif" font-size="14.00">#2</text>
<polyline fill="none" stroke="black" points="180.98,-175.5 278.98,-175.5 "/>
<text text-anchor="middle" x="229.98" y="-160.3" font-family="Times,serif" font-size="14.00">0x16DAFF170</text>
<polyline fill="none" stroke="black" points="180.98,-152.5 278.98,-152.5 "/>
<text text-anchor="middle" x="229.98" y="-137.3" font-family="Times,serif" font-size="14.00">value = 10</text>
</g>
<!-- Node_5&#45;&gt;Node_6 -->
<g id="edge8" class="edge">
<title>Node_5&#45;&gt;Node_6</title>
<path fill="none" stroke="blue" d="M192.98,-258.37C192.98,-249.86 192.98,-240.87 192.98,-232.09"/>
<polygon fill="blue" stroke="blue" points="196.48,-231.92 192.98,-221.92 189.48,-231.92 196.48,-231.92"/>
</g>
<!-- Node_6&#45;&gt;Node_3 -->
<g id="edge9" class="edge">
<title>Node_6:f1&#45;&gt;Node_3:f1</title>
<path fill="none" stroke="grey" stroke-dasharray="5,2" d="M279.98,-210.5C313.64,-210.5 323.94,-227.88 338.98,-258 383.24,-346.68 365.61,-590.24 347.48,-608.5 337.76,-618.29 239.25,-623.9 209.47,-615.46"/>
<polygon fill="grey" stroke="grey" points="211.17,-612.39 200.98,-609.5 207.15,-618.11 211.17,-612.39"/>
</g>
<!-- Node_7 -->
<g id="node7" class="node">
<title>Node_7</title>
<path fill="#ffded7" stroke="black" d="M117.48,-0.5C117.48,-0.5 268.48,-0.5 268.48,-0.5 274.48,-0.5 280.48,-6.5 280.48,-12.5 280.48,-12.5 280.48,-80.5 280.48,-80.5 280.48,-86.5 274.48,-92.5 268.48,-92.5 268.48,-92.5 117.48,-92.5 117.48,-92.5 111.48,-92.5 105.48,-86.5 105.48,-80.5 105.48,-80.5 105.48,-12.5 105.48,-12.5 105.48,-6.5 111.48,-0.5 117.48,-0.5"/>
<text text-anchor="middle" x="142.48" y="-42.8" font-family="Times,serif" font-size="14.00">Destructor</text>
<polyline fill="none" stroke="black" points="179.48,-0.5 179.48,-92.5 "/>
<text text-anchor="middle" x="229.98" y="-77.3" font-family="Times,serif" font-size="14.00">a</text>
<polyline fill="none" stroke="black" points="179.48,-69.5 280.48,-69.5 "/>
<text text-anchor="middle" x="229.98" y="-54.3" font-family="Times,serif" font-size="14.00">#0</text>
<polyline fill="none" stroke="black" points="179.48,-46.5 280.48,-46.5 "/>
<text text-anchor="middle" x="229.98" y="-31.3" font-family="Times,serif" font-size="14.00">0x16DAFF1C0</text>
<polyline fill="none" stroke="black" points="179.48,-23.5 280.48,-23.5 "/>
<text text-anchor="middle" x="229.98" y="-8.3" font-family="Times,serif" font-size="14.00">value = 10</text>
</g>
<!-- Node_6&#45;&gt;Node_7 -->
<g id="edge10" class="edge">
<title>Node_6&#45;&gt;Node_7</title>
<path fill="none" stroke="blue" d="M192.98,-129.37C192.98,-120.86 192.98,-111.87 192.98,-103.09"/>
<polygon fill="blue" stroke="blue" points="196.48,-102.92 192.98,-92.92 189.48,-102.92 196.48,-102.92"/>
</g>
<!-- Node_7&#45;&gt;Node_1 -->
<g id="edge11" class="edge">
<title>Node_7:f1&#45;&gt;Node_1:f1</title>
<path fill="none" stroke="grey" stroke-dasharray="5,2" d="M281.98,-81.5C392.89,-81.5 395.98,-192.58 395.98,-303.5 395.98,-563.5 395.98,-563.5 395.98,-563.5 395.98,-698.81 422.42,-847.73 295.23,-855.21"/>
<polygon fill="grey" stroke="grey" points="294.87,-851.72 284.98,-855.5 295.07,-858.71 294.87,-851.72"/>
</g>
</g>
</svg>
