<?xml version="1.0" encoding="UTF-8" standalone="no"?>
<!DOCTYPE svg PUBLIC "-//W3C//DTD SVG 1.1//EN"
 "http://www.w3.org/Graphics/SVG/1.1/DTD/svg11.dtd">
<!-- Generated by graphviz version 2.50.0 (20211204.2007)
 -->
<!-- Title: G Pages: 1 -->
<svg width="410pt" height="1405pt"
 viewBox="0.00 0.00 409.50 1404.82" xmlns="http://www.w3.org/2000/svg" xmlns:xlink="http://www.w3.org/1999/xlink">
<g id="graph0" class="graph" transform="scale(1 1) rotate(0) translate(4 1400.82)">
<title>G</title>
<polygon fill="white" stroke="transparent" points="-4,4 -4,-1400.82 405.5,-1400.82 405.5,4 -4,4"/>
<!-- Node_1 -->
<g id="node1" class="node">
<title>Node_1</title>
<polygon fill="darkcyan" stroke="black" points="61.5,-1290.5 61.5,-1382.5 235.5,-1382.5 235.5,-1290.5 61.5,-1290.5"/>
<text text-anchor="middle" x="101.5" y="-1332.8" font-family="Times,serif" font-size="14.00">Constructor</text>
<polyline fill="none" stroke="black" points="141.5,-1290.5 141.5,-1382.5 "/>
<text text-anchor="middle" x="188.5" y="-1367.3" font-family="Times,serif" font-size="14.00">a</text>
<polyline fill="none" stroke="black" points="141.5,-1359.5 235.5,-1359.5 "/>
<text text-anchor="middle" x="188.5" y="-1344.3" font-family="Times,serif" font-size="14.00">#0</text>
<polyline fill="none" stroke="black" points="141.5,-1336.5 235.5,-1336.5 "/>
<text text-anchor="middle" x="188.5" y="-1321.3" font-family="Times,serif" font-size="14.00">0x16F6471B0</text>
<polyline fill="none" stroke="black" points="141.5,-1313.5 235.5,-1313.5 "/>
<text text-anchor="middle" x="188.5" y="-1298.3" font-family="Times,serif" font-size="14.00">value = 0</text>
</g>
<!-- Node_2 -->
<g id="node2" class="node">
<title>Node_2</title>
<polygon fill="darkcyan" stroke="black" points="62.5,-1161.5 62.5,-1253.5 234.5,-1253.5 234.5,-1161.5 62.5,-1161.5"/>
<text text-anchor="middle" x="102.5" y="-1203.8" font-family="Times,serif" font-size="14.00">Constructor</text>
<polyline fill="none" stroke="black" points="142.5,-1161.5 142.5,-1253.5 "/>
<text text-anchor="middle" x="188.5" y="-1238.3" font-family="Times,serif" font-size="14.00">b</text>
<polyline fill="none" stroke="black" points="142.5,-1230.5 234.5,-1230.5 "/>
<text text-anchor="middle" x="188.5" y="-1215.3" font-family="Times,serif" font-size="14.00">#1</text>
<polyline fill="none" stroke="black" points="142.5,-1207.5 234.5,-1207.5 "/>
<text text-anchor="middle" x="188.5" y="-1192.3" font-family="Times,serif" font-size="14.00">0x16F647160</text>
<polyline fill="none" stroke="black" points="142.5,-1184.5 234.5,-1184.5 "/>
<text text-anchor="middle" x="188.5" y="-1169.3" font-family="Times,serif" font-size="14.00">value = 0</text>
</g>
<!-- Node_1&#45;&gt;Node_2 -->
<g id="edge1" class="edge">
<title>Node_1&#45;&gt;Node_2</title>
<path fill="none" stroke="blue" d="M148.5,-1290.37C148.5,-1281.86 148.5,-1272.87 148.5,-1264.09"/>
<polygon fill="blue" stroke="blue" points="152,-1263.92 148.5,-1253.92 145,-1263.92 152,-1263.92"/>
</g>
<!-- Node_3 -->
<g id="node3" class="node">
<title>Node_3</title>
<path fill="Yellow" stroke="black" d="M37,-1032.5C37,-1032.5 260,-1032.5 260,-1032.5 266,-1032.5 272,-1038.5 272,-1044.5 272,-1044.5 272,-1112.5 272,-1112.5 272,-1118.5 266,-1124.5 260,-1124.5 260,-1124.5 37,-1124.5 37,-1124.5 31,-1124.5 25,-1118.5 25,-1112.5 25,-1112.5 25,-1044.5 25,-1044.5 25,-1038.5 31,-1032.5 37,-1032.5"/>
<text text-anchor="middle" x="55.5" y="-1074.8" font-family="Times,serif" font-size="14.00">[BIN] +</text>
<polyline fill="none" stroke="black" points="86,-1032.5 86,-1124.5 "/>
<text text-anchor="middle" x="133" y="-1109.3" font-family="Times,serif" font-size="14.00">a</text>
<polyline fill="none" stroke="black" points="86,-1101.5 180,-1101.5 "/>
<text text-anchor="middle" x="133" y="-1086.3" font-family="Times,serif" font-size="14.00">#0</text>
<polyline fill="none" stroke="black" points="86,-1078.5 180,-1078.5 "/>
<text text-anchor="middle" x="133" y="-1063.3" font-family="Times,serif" font-size="14.00">0x16F6471B0</text>
<polyline fill="none" stroke="black" points="86,-1055.5 180,-1055.5 "/>
<text text-anchor="middle" x="133" y="-1040.3" font-family="Times,serif" font-size="14.00">value = 0</text>
<polyline fill="none" stroke="black" points="180,-1032.5 180,-1124.5 "/>
<text text-anchor="middle" x="226" y="-1109.3" font-family="Times,serif" font-size="14.00">b</text>
<polyline fill="none" stroke="black" points="180,-1101.5 272,-1101.5 "/>
<text text-anchor="middle" x="226" y="-1086.3" font-family="Times,serif" font-size="14.00">#1</text>
<polyline fill="none" stroke="black" points="180,-1078.5 272,-1078.5 "/>
<text text-anchor="middle" x="226" y="-1063.3" font-family="Times,serif" font-size="14.00">0x16F647160</text>
<polyline fill="none" stroke="black" points="180,-1055.5 272,-1055.5 "/>
<text text-anchor="middle" x="226" y="-1040.3" font-family="Times,serif" font-size="14.00">value = 0</text>
</g>
<!-- Node_2&#45;&gt;Node_3 -->
<g id="edge2" class="edge">
<title>Node_2&#45;&gt;Node_3</title>
<path fill="none" stroke="blue" d="M148.5,-1161.37C148.5,-1152.86 148.5,-1143.87 148.5,-1135.09"/>
<polygon fill="blue" stroke="blue" points="152,-1134.92 148.5,-1124.92 145,-1134.92 152,-1134.92"/>
</g>
<!-- Node_3&#45;&gt;Node_1 -->
<g id="edge3" class="edge">
<title>Node_3:f1&#45;&gt;Node_1:f1</title>
<path fill="none" stroke="grey" stroke-dasharray="5,2" d="M132.5,-1125C132.5,-1163.58 74.37,-1128.55 53.5,-1161 31.14,-1195.76 27.26,-1222.06 53.5,-1254 105.84,-1317.71 183.16,-1226.29 235.5,-1290 261.6,-1321.77 264.26,-1353.12 235.5,-1382.5 223.85,-1394.4 200.92,-1401.24 192.09,-1392.95"/>
<polygon fill="grey" stroke="grey" points="195.32,-1391.61 188.5,-1383.5 188.78,-1394.09 195.32,-1391.61"/>
</g>
<!-- Node_3&#45;&gt;Node_2 -->
<g id="edge4" class="edge">
<title>Node_3:f2&#45;&gt;Node_2:f1</title>
<path fill="none" stroke="gray" stroke-dasharray="5,2" d="M226.5,-1125C226.5,-1141.39 232.71,-1144.71 234.5,-1161 238.99,-1201.87 263.25,-1224.12 234.5,-1253.5 223.21,-1265.03 201.1,-1271.72 192.27,-1263.98"/>
<polygon fill="gray" stroke="gray" points="195.45,-1262.5 188.5,-1254.5 188.94,-1265.09 195.45,-1262.5"/>
</g>
<!-- Node_4 -->
<g id="node4" class="node">
<title>Node_4</title>
<polygon fill="darkcyan" stroke="black" points="62.5,-903.5 62.5,-995.5 234.5,-995.5 234.5,-903.5 62.5,-903.5"/>
<text text-anchor="middle" x="102.5" y="-945.8" font-family="Times,serif" font-size="14.00">Constructor</text>
<polyline fill="none" stroke="black" points="142.5,-903.5 142.5,-995.5 "/>
<text text-anchor="middle" x="188.5" y="-980.3" font-family="Times,serif" font-size="14.00">tmp_1</text>
<polyline fill="none" stroke="black" points="142.5,-972.5 234.5,-972.5 "/>
<text text-anchor="middle" x="188.5" y="-957.3" font-family="Times,serif" font-size="14.00">#2</text>
<polyline fill="none" stroke="black" points="142.5,-949.5 234.5,-949.5 "/>
<text text-anchor="middle" x="188.5" y="-934.3" font-family="Times,serif" font-size="14.00">0x16F647080</text>
<polyline fill="none" stroke="black" points="142.5,-926.5 234.5,-926.5 "/>
<text text-anchor="middle" x="188.5" y="-911.3" font-family="Times,serif" font-size="14.00">value = 0</text>
</g>
<!-- Node_3&#45;&gt;Node_4 -->
<g id="edge5" class="edge">
<title>Node_3&#45;&gt;Node_4</title>
<path fill="none" stroke="blue" d="M148.5,-1032.37C148.5,-1023.86 148.5,-1014.87 148.5,-1006.09"/>
<polygon fill="blue" stroke="blue" points="152,-1005.92 148.5,-995.92 145,-1005.92 152,-1005.92"/>
</g>
<!-- Node_5 -->
<g id="node5" class="node">
<title>Node_5</title>
<polygon fill="#ff6e50" stroke="black" points="0,-774.5 0,-866.5 297,-866.5 297,-774.5 0,-774.5"/>
<text text-anchor="middle" x="56.5" y="-816.8" font-family="Times,serif" font-size="14.00">Copy Constructor</text>
<polyline fill="none" stroke="black" points="113,-774.5 113,-866.5 "/>
<text text-anchor="middle" x="159" y="-851.3" font-family="Times,serif" font-size="14.00">res</text>
<polyline fill="none" stroke="black" points="113,-843.5 205,-843.5 "/>
<text text-anchor="middle" x="159" y="-828.3" font-family="Times,serif" font-size="14.00">#3</text>
<polyline fill="none" stroke="black" points="113,-820.5 205,-820.5 "/>
<text text-anchor="middle" x="159" y="-805.3" font-family="Times,serif" font-size="14.00">0x16F6470F8</text>
<polyline fill="none" stroke="black" points="113,-797.5 205,-797.5 "/>
<text text-anchor="middle" x="159" y="-782.3" font-family="Times,serif" font-size="14.00">value = 0</text>
<polyline fill="none" stroke="black" points="205,-774.5 205,-866.5 "/>
<text text-anchor="middle" x="251" y="-851.3" font-family="Times,serif" font-size="14.00">tmp_1</text>
<polyline fill="none" stroke="black" points="205,-843.5 297,-843.5 "/>
<text text-anchor="middle" x="251" y="-828.3" font-family="Times,serif" font-size="14.00">#2</text>
<polyline fill="none" stroke="black" points="205,-820.5 297,-820.5 "/>
<text text-anchor="middle" x="251" y="-805.3" font-family="Times,serif" font-size="14.00">0x16F647080</text>
<polyline fill="none" stroke="black" points="205,-797.5 297,-797.5 "/>
<text text-anchor="middle" x="251" y="-782.3" font-family="Times,serif" font-size="14.00">value = 0</text>
</g>
<!-- Node_4&#45;&gt;Node_5 -->
<g id="edge6" class="edge">
<title>Node_4&#45;&gt;Node_5</title>
<path fill="none" stroke="blue" d="M148.5,-903.37C148.5,-894.86 148.5,-885.87 148.5,-877.09"/>
<polygon fill="blue" stroke="blue" points="152,-876.92 148.5,-866.92 145,-876.92 152,-876.92"/>
</g>
<!-- Node_6 -->
<g id="node6" class="node">
<title>Node_6</title>
<path fill="#ffded7" stroke="black" d="M77.5,-645.5C77.5,-645.5 219.5,-645.5 219.5,-645.5 225.5,-645.5 231.5,-651.5 231.5,-657.5 231.5,-657.5 231.5,-725.5 231.5,-725.5 231.5,-731.5 225.5,-737.5 219.5,-737.5 219.5,-737.5 77.5,-737.5 77.5,-737.5 71.5,-737.5 65.5,-731.5 65.5,-725.5 65.5,-725.5 65.5,-657.5 65.5,-657.5 65.5,-651.5 71.5,-645.5 77.5,-645.5"/>
<text text-anchor="middle" x="102.5" y="-687.8" font-family="Times,serif" font-size="14.00">Destructor</text>
<polyline fill="none" stroke="black" points="139.5,-645.5 139.5,-737.5 "/>
<text text-anchor="middle" x="185.5" y="-722.3" font-family="Times,serif" font-size="14.00">tmp_1</text>
<polyline fill="none" stroke="black" points="139.5,-714.5 231.5,-714.5 "/>
<text text-anchor="middle" x="185.5" y="-699.3" font-family="Times,serif" font-size="14.00">#2</text>
<polyline fill="none" stroke="black" points="139.5,-691.5 231.5,-691.5 "/>
<text text-anchor="middle" x="185.5" y="-676.3" font-family="Times,serif" font-size="14.00">0x16F647080</text>
<polyline fill="none" stroke="black" points="139.5,-668.5 231.5,-668.5 "/>
<text text-anchor="middle" x="185.5" y="-653.3" font-family="Times,serif" font-size="14.00">value = 0</text>
</g>
<!-- Node_5&#45;&gt;Node_6 -->
<g id="edge7" class="edge">
<title>Node_5&#45;&gt;Node_6</title>
<path fill="none" stroke="blue" d="M148.5,-774.37C148.5,-765.86 148.5,-756.87 148.5,-748.09"/>
<polygon fill="blue" stroke="blue" points="152,-747.92 148.5,-737.92 145,-747.92 152,-747.92"/>
</g>
<!-- Node_6&#45;&gt;Node_4 -->
<g id="edge8" class="edge">
<title>Node_6:f1&#45;&gt;Node_4:f1</title>
<path fill="none" stroke="grey" stroke-dasharray="5,2" d="M232.5,-726.5C271.58,-726.5 287.76,-739.7 306.5,-774 352.18,-857.6 335.53,-975.84 245.62,-984.05"/>
<polygon fill="grey" stroke="grey" points="245.33,-980.56 235.5,-984.5 245.65,-987.55 245.33,-980.56"/>
</g>
<!-- Node_7 -->
<g id="node7" class="node">
<title>Node_7</title>
<polygon fill="#ff6e50" stroke="black" points="0,-516.5 0,-608.5 297,-608.5 297,-516.5 0,-516.5"/>
<text text-anchor="middle" x="56.5" y="-558.8" font-family="Times,serif" font-size="14.00">Copy Constructor</text>
<polyline fill="none" stroke="black" points="113,-516.5 113,-608.5 "/>
<text text-anchor="middle" x="159" y="-593.3" font-family="Times,serif" font-size="14.00">c</text>
<polyline fill="none" stroke="black" points="113,-585.5 205,-585.5 "/>
<text text-anchor="middle" x="159" y="-570.3" font-family="Times,serif" font-size="14.00">#4</text>
<polyline fill="none" stroke="black" points="113,-562.5 205,-562.5 "/>
<text text-anchor="middle" x="159" y="-547.3" font-family="Times,serif" font-size="14.00">0x16F647120</text>
<polyline fill="none" stroke="black" points="113,-539.5 205,-539.5 "/>
<text text-anchor="middle" x="159" y="-524.3" font-family="Times,serif" font-size="14.00">value = 0</text>
<polyline fill="none" stroke="black" points="205,-516.5 205,-608.5 "/>
<text text-anchor="middle" x="251" y="-593.3" font-family="Times,serif" font-size="14.00">res</text>
<polyline fill="none" stroke="black" points="205,-585.5 297,-585.5 "/>
<text text-anchor="middle" x="251" y="-570.3" font-family="Times,serif" font-size="14.00">#3</text>
<polyline fill="none" stroke="black" points="205,-562.5 297,-562.5 "/>
<text text-anchor="middle" x="251" y="-547.3" font-family="Times,serif" font-size="14.00">0x16F6470F8</text>
<polyline fill="none" stroke="black" points="205,-539.5 297,-539.5 "/>
<text text-anchor="middle" x="251" y="-524.3" font-family="Times,serif" font-size="14.00">value = 0</text>
</g>
<!-- Node_6&#45;&gt;Node_7 -->
<g id="edge9" class="edge">
<title>Node_6&#45;&gt;Node_7</title>
<path fill="none" stroke="blue" d="M148.5,-645.37C148.5,-636.86 148.5,-627.87 148.5,-619.09"/>
<polygon fill="blue" stroke="blue" points="152,-618.92 148.5,-608.92 145,-618.92 152,-618.92"/>
</g>
<!-- Node_8 -->
<g id="node8" class="node">
<title>Node_8</title>
<path fill="#ffded7" stroke="black" d="M77.5,-387.5C77.5,-387.5 219.5,-387.5 219.5,-387.5 225.5,-387.5 231.5,-393.5 231.5,-399.5 231.5,-399.5 231.5,-467.5 231.5,-467.5 231.5,-473.5 225.5,-479.5 219.5,-479.5 219.5,-479.5 77.5,-479.5 77.5,-479.5 71.5,-479.5 65.5,-473.5 65.5,-467.5 65.5,-467.5 65.5,-399.5 65.5,-399.5 65.5,-393.5 71.5,-387.5 77.5,-387.5"/>
<text text-anchor="middle" x="102.5" y="-429.8" font-family="Times,serif" font-size="14.00">Destructor</text>
<polyline fill="none" stroke="black" points="139.5,-387.5 139.5,-479.5 "/>
<text text-anchor="middle" x="185.5" y="-464.3" font-family="Times,serif" font-size="14.00">res</text>
<polyline fill="none" stroke="black" points="139.5,-456.5 231.5,-456.5 "/>
<text text-anchor="middle" x="185.5" y="-441.3" font-family="Times,serif" font-size="14.00">#3</text>
<polyline fill="none" stroke="black" points="139.5,-433.5 231.5,-433.5 "/>
<text text-anchor="middle" x="185.5" y="-418.3" font-family="Times,serif" font-size="14.00">0x16F6470F8</text>
<polyline fill="none" stroke="black" points="139.5,-410.5 231.5,-410.5 "/>
<text text-anchor="middle" x="185.5" y="-395.3" font-family="Times,serif" font-size="14.00">value = 0</text>
</g>
<!-- Node_7&#45;&gt;Node_8 -->
<g id="edge10" class="edge">
<title>Node_7&#45;&gt;Node_8</title>
<path fill="none" stroke="blue" d="M148.5,-516.37C148.5,-507.86 148.5,-498.87 148.5,-490.09"/>
<polygon fill="blue" stroke="blue" points="152,-489.92 148.5,-479.92 145,-489.92 152,-489.92"/>
</g>
<!-- Node_8&#45;&gt;Node_5 -->
<g id="edge11" class="edge">
<title>Node_8:f1&#45;&gt;Node_5:f1</title>
<path fill="none" stroke="grey" stroke-dasharray="5,2" d="M232.5,-468.5C271.58,-468.5 287.76,-481.7 306.5,-516 343.86,-584.38 352.91,-812.23 297,-866.5 287.75,-875.48 196.22,-880.89 167.84,-873.19"/>
<polygon fill="grey" stroke="grey" points="169.73,-870.24 159.5,-867.5 165.79,-876.03 169.73,-870.24"/>
</g>
<!-- Node_9 -->
<g id="node9" class="node">
<title>Node_9</title>
<path fill="#ffded7" stroke="black" d="M77.5,-258.5C77.5,-258.5 219.5,-258.5 219.5,-258.5 225.5,-258.5 231.5,-264.5 231.5,-270.5 231.5,-270.5 231.5,-338.5 231.5,-338.5 231.5,-344.5 225.5,-350.5 219.5,-350.5 219.5,-350.5 77.5,-350.5 77.5,-350.5 71.5,-350.5 65.5,-344.5 65.5,-338.5 65.5,-338.5 65.5,-270.5 65.5,-270.5 65.5,-264.5 71.5,-258.5 77.5,-258.5"/>
<text text-anchor="middle" x="102.5" y="-300.8" font-family="Times,serif" font-size="14.00">Destructor</text>
<polyline fill="none" stroke="black" points="139.5,-258.5 139.5,-350.5 "/>
<text text-anchor="middle" x="185.5" y="-335.3" font-family="Times,serif" font-size="14.00">c</text>
<polyline fill="none" stroke="black" points="139.5,-327.5 231.5,-327.5 "/>
<text text-anchor="middle" x="185.5" y="-312.3" font-family="Times,serif" font-size="14.00">#4</text>
<polyline fill="none" stroke="black" points="139.5,-304.5 231.5,-304.5 "/>
<text text-anchor="middle" x="185.5" y="-289.3" font-family="Times,serif" font-size="14.00">0x16F647120</text>
<polyline fill="none" stroke="black" points="139.5,-281.5 231.5,-281.5 "/>
<text text-anchor="middle" x="185.5" y="-266.3" font-family="Times,serif" font-size="14.00">value = 0</text>
</g>
<!-- Node_8&#45;&gt;Node_9 -->
<g id="edge12" class="edge">
<title>Node_8&#45;&gt;Node_9</title>
<path fill="none" stroke="blue" d="M148.5,-387.37C148.5,-378.86 148.5,-369.87 148.5,-361.09"/>
<polygon fill="blue" stroke="blue" points="152,-360.92 148.5,-350.92 145,-360.92 152,-360.92"/>
</g>
<!-- Node_9&#45;&gt;Node_7 -->
<g id="edge13" class="edge">
<title>Node_9:f1&#45;&gt;Node_7:f1</title>
<path fill="none" stroke="grey" stroke-dasharray="5,2" d="M232.5,-339.5C277.61,-339.5 368.48,-536.5 297,-608.5 287.92,-617.65 196.27,-622.95 167.86,-615.2"/>
<polygon fill="grey" stroke="grey" points="169.73,-612.25 159.5,-609.5 165.79,-618.03 169.73,-612.25"/>
</g>
<!-- Node_10 -->
<g id="node10" class="node">
<title>Node_10</title>
<path fill="#ffded7" stroke="black" d="M77.5,-129.5C77.5,-129.5 219.5,-129.5 219.5,-129.5 225.5,-129.5 231.5,-135.5 231.5,-141.5 231.5,-141.5 231.5,-209.5 231.5,-209.5 231.5,-215.5 225.5,-221.5 219.5,-221.5 219.5,-221.5 77.5,-221.5 77.5,-221.5 71.5,-221.5 65.5,-215.5 65.5,-209.5 65.5,-209.5 65.5,-141.5 65.5,-141.5 65.5,-135.5 71.5,-129.5 77.5,-129.5"/>
<text text-anchor="middle" x="102.5" y="-171.8" font-family="Times,serif" font-size="14.00">Destructor</text>
<polyline fill="none" stroke="black" points="139.5,-129.5 139.5,-221.5 "/>
<text text-anchor="middle" x="185.5" y="-206.3" font-family="Times,serif" font-size="14.00">b</text>
<polyline fill="none" stroke="black" points="139.5,-198.5 231.5,-198.5 "/>
<text text-anchor="middle" x="185.5" y="-183.3" font-family="Times,serif" font-size="14.00">#1</text>
<polyline fill="none" stroke="black" points="139.5,-175.5 231.5,-175.5 "/>
<text text-anchor="middle" x="185.5" y="-160.3" font-family="Times,serif" font-size="14.00">0x16F647160</text>
<polyline fill="none" stroke="black" points="139.5,-152.5 231.5,-152.5 "/>
<text text-anchor="middle" x="185.5" y="-137.3" font-family="Times,serif" font-size="14.00">value = 0</text>
</g>
<!-- Node_9&#45;&gt;Node_10 -->
<g id="edge14" class="edge">
<title>Node_9&#45;&gt;Node_10</title>
<path fill="none" stroke="blue" d="M148.5,-258.37C148.5,-249.86 148.5,-240.87 148.5,-232.09"/>
<polygon fill="blue" stroke="blue" points="152,-231.92 148.5,-221.92 145,-231.92 152,-231.92"/>
</g>
<!-- Node_10&#45;&gt;Node_2 -->
<g id="edge15" class="edge">
<title>Node_10:f1&#45;&gt;Node_2:f1</title>
<path fill="none" stroke="grey" stroke-dasharray="5,2" d="M232.5,-210.5C347.06,-210.5 363.5,-317.94 363.5,-432.5 363.5,-950.5 363.5,-950.5 363.5,-950.5 363.5,-1088.74 376.54,-1235.17 245.6,-1242.23"/>
<polygon fill="grey" stroke="grey" points="245.4,-1238.74 235.5,-1242.5 245.59,-1245.74 245.4,-1238.74"/>
</g>
<!-- Node_11 -->
<g id="node11" class="node">
<title>Node_11</title>
<path fill="#ffded7" stroke="black" d="M76.5,-0.5C76.5,-0.5 220.5,-0.5 220.5,-0.5 226.5,-0.5 232.5,-6.5 232.5,-12.5 232.5,-12.5 232.5,-80.5 232.5,-80.5 232.5,-86.5 226.5,-92.5 220.5,-92.5 220.5,-92.5 76.5,-92.5 76.5,-92.5 70.5,-92.5 64.5,-86.5 64.5,-80.5 64.5,-80.5 64.5,-12.5 64.5,-12.5 64.5,-6.5 70.5,-0.5 76.5,-0.5"/>
<text text-anchor="middle" x="101.5" y="-42.8" font-family="Times,serif" font-size="14.00">Destructor</text>
<polyline fill="none" stroke="black" points="138.5,-0.5 138.5,-92.5 "/>
<text text-anchor="middle" x="185.5" y="-77.3" font-family="Times,serif" font-size="14.00">a</text>
<polyline fill="none" stroke="black" points="138.5,-69.5 232.5,-69.5 "/>
<text text-anchor="middle" x="185.5" y="-54.3" font-family="Times,serif" font-size="14.00">#0</text>
<polyline fill="none" stroke="black" points="138.5,-46.5 232.5,-46.5 "/>
<text text-anchor="middle" x="185.5" y="-31.3" font-family="Times,serif" font-size="14.00">0x16F6471B0</text>
<polyline fill="none" stroke="black" points="138.5,-23.5 232.5,-23.5 "/>
<text text-anchor="middle" x="185.5" y="-8.3" font-family="Times,serif" font-size="14.00">value = 0</text>
</g>
<!-- Node_10&#45;&gt;Node_11 -->
<g id="edge16" class="edge">
<title>Node_10&#45;&gt;Node_11</title>
<path fill="none" stroke="blue" d="M148.5,-129.37C148.5,-120.86 148.5,-111.87 148.5,-103.09"/>
<polygon fill="blue" stroke="blue" points="152,-102.92 148.5,-92.92 145,-102.92 152,-102.92"/>
</g>
<!-- Node_11&#45;&gt;Node_1 -->
<g id="edge17" class="edge">
<title>Node_11:f1&#45;&gt;Node_1:f1</title>
<path fill="none" stroke="grey" stroke-dasharray="5,2" d="M233.5,-81.5C357.23,-81.5 401.5,-179.77 401.5,-303.5 401.5,-1079.5 401.5,-1079.5 401.5,-1079.5 401.5,-1225.07 386.3,-1364.8 246.76,-1371.27"/>
<polygon fill="grey" stroke="grey" points="246.42,-1367.77 236.5,-1371.5 246.58,-1374.77 246.42,-1367.77"/>
</g>
</g>
</svg>
