<?xml version="1.0" encoding="UTF-8" standalone="no"?>
<!DOCTYPE svg PUBLIC "-//W3C//DTD SVG 1.1//EN"
 "http://www.w3.org/Graphics/SVG/1.1/DTD/svg11.dtd">
<!-- Generated by graphviz version 2.50.0 (20211204.2007)
 -->
<!-- Title: G Pages: 1 -->
<svg width="458pt" height="1133pt"
 viewBox="0.00 0.00 457.73 1133.00" xmlns="http://www.w3.org/2000/svg" xmlns:xlink="http://www.w3.org/1999/xlink">
<g id="graph0" class="graph" transform="scale(1 1) rotate(0) translate(4 1129)">
<title>G</title>
<polygon fill="white" stroke="transparent" points="-4,4 -4,-1129 453.73,-1129 453.73,4 -4,4"/>
<!-- Node_1 -->
<g id="node1" class="node">
<title>Node_1</title>
<polygon fill="darkcyan" stroke="black" points="84.23,-1032.5 84.23,-1124.5 263.23,-1124.5 263.23,-1032.5 84.23,-1032.5"/>
<text text-anchor="middle" x="124.23" y="-1074.8" font-family="Times,serif" font-size="14.00">Constructor</text>
<polyline fill="none" stroke="black" points="164.23,-1032.5 164.23,-1124.5 "/>
<text text-anchor="middle" x="213.73" y="-1109.3" font-family="Times,serif" font-size="14.00">a</text>
<polyline fill="none" stroke="black" points="164.23,-1101.5 263.23,-1101.5 "/>
<text text-anchor="middle" x="213.73" y="-1086.3" font-family="Times,serif" font-size="14.00">#0</text>
<polyline fill="none" stroke="black" points="164.23,-1078.5 263.23,-1078.5 "/>
<text text-anchor="middle" x="213.73" y="-1063.3" font-family="Times,serif" font-size="14.00">0x16D8BF1B0</text>
<polyline fill="none" stroke="black" points="164.23,-1055.5 263.23,-1055.5 "/>
<text text-anchor="middle" x="213.73" y="-1040.3" font-family="Times,serif" font-size="14.00">value = 0</text>
</g>
<!-- Node_2 -->
<g id="node2" class="node">
<title>Node_2</title>
<polygon fill="darkcyan" stroke="black" points="85.23,-903.5 85.23,-995.5 262.23,-995.5 262.23,-903.5 85.23,-903.5"/>
<text text-anchor="middle" x="125.23" y="-945.8" font-family="Times,serif" font-size="14.00">Constructor</text>
<polyline fill="none" stroke="black" points="165.23,-903.5 165.23,-995.5 "/>
<text text-anchor="middle" x="213.73" y="-980.3" font-family="Times,serif" font-size="14.00">c</text>
<polyline fill="none" stroke="black" points="165.23,-972.5 262.23,-972.5 "/>
<text text-anchor="middle" x="213.73" y="-957.3" font-family="Times,serif" font-size="14.00">#1</text>
<polyline fill="none" stroke="black" points="165.23,-949.5 262.23,-949.5 "/>
<text text-anchor="middle" x="213.73" y="-934.3" font-family="Times,serif" font-size="14.00">0x16D8BF160</text>
<polyline fill="none" stroke="black" points="165.23,-926.5 262.23,-926.5 "/>
<text text-anchor="middle" x="213.73" y="-911.3" font-family="Times,serif" font-size="14.00">value = 2</text>
</g>
<!-- Node_1&#45;&gt;Node_2 -->
<g id="edge1" class="edge">
<title>Node_1&#45;&gt;Node_2</title>
<path fill="none" stroke="blue" d="M173.73,-1032.37C173.73,-1023.86 173.73,-1014.87 173.73,-1006.09"/>
<polygon fill="blue" stroke="blue" points="177.23,-1005.92 173.73,-995.92 170.23,-1005.92 177.23,-1005.92"/>
</g>
<!-- Node_3 -->
<g id="node3" class="node">
<title>Node_3</title>
<polygon fill="#ff6e50" stroke="black" points="18.73,-774.5 18.73,-866.5 328.73,-866.5 328.73,-774.5 18.73,-774.5"/>
<text text-anchor="middle" x="75.23" y="-816.8" font-family="Times,serif" font-size="14.00">Copy Constructor</text>
<polyline fill="none" stroke="black" points="131.73,-774.5 131.73,-866.5 "/>
<text text-anchor="middle" x="180.73" y="-851.3" font-family="Times,serif" font-size="14.00">tmp_1</text>
<polyline fill="none" stroke="black" points="131.73,-843.5 229.73,-843.5 "/>
<text text-anchor="middle" x="180.73" y="-828.3" font-family="Times,serif" font-size="14.00">#2</text>
<polyline fill="none" stroke="black" points="131.73,-820.5 229.73,-820.5 "/>
<text text-anchor="middle" x="180.73" y="-805.3" font-family="Times,serif" font-size="14.00">0x16D8BF0F8</text>
<polyline fill="none" stroke="black" points="131.73,-797.5 229.73,-797.5 "/>
<text text-anchor="middle" x="180.73" y="-782.3" font-family="Times,serif" font-size="14.00">value = 0</text>
<polyline fill="none" stroke="black" points="229.73,-774.5 229.73,-866.5 "/>
<text text-anchor="middle" x="279.23" y="-851.3" font-family="Times,serif" font-size="14.00">a</text>
<polyline fill="none" stroke="black" points="229.73,-843.5 328.73,-843.5 "/>
<text text-anchor="middle" x="279.23" y="-828.3" font-family="Times,serif" font-size="14.00">#0</text>
<polyline fill="none" stroke="black" points="229.73,-820.5 328.73,-820.5 "/>
<text text-anchor="middle" x="279.23" y="-805.3" font-family="Times,serif" font-size="14.00">0x16D8BF1B0</text>
<polyline fill="none" stroke="black" points="229.73,-797.5 328.73,-797.5 "/>
<text text-anchor="middle" x="279.23" y="-782.3" font-family="Times,serif" font-size="14.00">value = 0</text>
</g>
<!-- Node_2&#45;&gt;Node_3 -->
<g id="edge2" class="edge">
<title>Node_2&#45;&gt;Node_3</title>
<path fill="none" stroke="blue" d="M173.73,-903.37C173.73,-894.86 173.73,-885.87 173.73,-877.09"/>
<polygon fill="blue" stroke="blue" points="177.23,-876.92 173.73,-866.92 170.23,-876.92 177.23,-876.92"/>
</g>
<!-- Node_4 -->
<g id="node4" class="node">
<title>Node_4</title>
<polygon fill="#ff6e50" stroke="black" points="19.73,-645.5 19.73,-737.5 327.73,-737.5 327.73,-645.5 19.73,-645.5"/>
<text text-anchor="middle" x="76.23" y="-687.8" font-family="Times,serif" font-size="14.00">Copy Constructor</text>
<polyline fill="none" stroke="black" points="132.73,-645.5 132.73,-737.5 "/>
<text text-anchor="middle" x="181.23" y="-722.3" font-family="Times,serif" font-size="14.00">tmp_2</text>
<polyline fill="none" stroke="black" points="132.73,-714.5 229.73,-714.5 "/>
<text text-anchor="middle" x="181.23" y="-699.3" font-family="Times,serif" font-size="14.00">#3</text>
<polyline fill="none" stroke="black" points="132.73,-691.5 229.73,-691.5 "/>
<text text-anchor="middle" x="181.23" y="-676.3" font-family="Times,serif" font-size="14.00">0x16D8BF120</text>
<polyline fill="none" stroke="black" points="132.73,-668.5 229.73,-668.5 "/>
<text text-anchor="middle" x="181.23" y="-653.3" font-family="Times,serif" font-size="14.00">value = 0</text>
<polyline fill="none" stroke="black" points="229.73,-645.5 229.73,-737.5 "/>
<text text-anchor="middle" x="278.73" y="-722.3" font-family="Times,serif" font-size="14.00">tmp_1</text>
<polyline fill="none" stroke="black" points="229.73,-714.5 327.73,-714.5 "/>
<text text-anchor="middle" x="278.73" y="-699.3" font-family="Times,serif" font-size="14.00">#2</text>
<polyline fill="none" stroke="black" points="229.73,-691.5 327.73,-691.5 "/>
<text text-anchor="middle" x="278.73" y="-676.3" font-family="Times,serif" font-size="14.00">0x16D8BF0F8</text>
<polyline fill="none" stroke="black" points="229.73,-668.5 327.73,-668.5 "/>
<text text-anchor="middle" x="278.73" y="-653.3" font-family="Times,serif" font-size="14.00">value = 0</text>
</g>
<!-- Node_3&#45;&gt;Node_4 -->
<g id="edge3" class="edge">
<title>Node_3&#45;&gt;Node_4</title>
<path fill="none" stroke="blue" d="M173.73,-774.37C173.73,-765.86 173.73,-756.87 173.73,-748.09"/>
<polygon fill="blue" stroke="blue" points="177.23,-747.92 173.73,-737.92 170.23,-747.92 177.23,-747.92"/>
</g>
<!-- Node_5 -->
<g id="node5" class="node">
<title>Node_5</title>
<path fill="#ff6e50" stroke="black" d="M51.73,-516.5C51.73,-516.5 295.73,-516.5 295.73,-516.5 301.73,-516.5 307.73,-522.5 307.73,-528.5 307.73,-528.5 307.73,-596.5 307.73,-596.5 307.73,-602.5 301.73,-608.5 295.73,-608.5 295.73,-608.5 51.73,-608.5 51.73,-608.5 45.73,-608.5 39.73,-602.5 39.73,-596.5 39.73,-596.5 39.73,-528.5 39.73,-528.5 39.73,-522.5 45.73,-516.5 51.73,-516.5"/>
<text text-anchor="middle" x="76.73" y="-558.8" font-family="Times,serif" font-size="14.00">[COPY] =</text>
<polyline fill="none" stroke="black" points="113.73,-516.5 113.73,-608.5 "/>
<text text-anchor="middle" x="162.23" y="-593.3" font-family="Times,serif" font-size="14.00">c</text>
<polyline fill="none" stroke="black" points="113.73,-585.5 210.73,-585.5 "/>
<text text-anchor="middle" x="162.23" y="-570.3" font-family="Times,serif" font-size="14.00">#1</text>
<polyline fill="none" stroke="black" points="113.73,-562.5 210.73,-562.5 "/>
<text text-anchor="middle" x="162.23" y="-547.3" font-family="Times,serif" font-size="14.00">0x16D8BF160</text>
<polyline fill="none" stroke="black" points="113.73,-539.5 210.73,-539.5 "/>
<text text-anchor="middle" x="162.23" y="-524.3" font-family="Times,serif" font-size="14.00">value = 2</text>
<polyline fill="none" stroke="black" points="210.73,-516.5 210.73,-608.5 "/>
<text text-anchor="middle" x="259.23" y="-593.3" font-family="Times,serif" font-size="14.00">tmp_2</text>
<polyline fill="none" stroke="black" points="210.73,-585.5 307.73,-585.5 "/>
<text text-anchor="middle" x="259.23" y="-570.3" font-family="Times,serif" font-size="14.00">#3</text>
<polyline fill="none" stroke="black" points="210.73,-562.5 307.73,-562.5 "/>
<text text-anchor="middle" x="259.23" y="-547.3" font-family="Times,serif" font-size="14.00">0x16D8BF120</text>
<polyline fill="none" stroke="black" points="210.73,-539.5 307.73,-539.5 "/>
<text text-anchor="middle" x="259.23" y="-524.3" font-family="Times,serif" font-size="14.00">value = 0</text>
</g>
<!-- Node_4&#45;&gt;Node_5 -->
<g id="edge4" class="edge">
<title>Node_4&#45;&gt;Node_5</title>
<path fill="none" stroke="blue" d="M173.73,-645.37C173.73,-636.86 173.73,-627.87 173.73,-619.09"/>
<polygon fill="blue" stroke="blue" points="177.23,-618.92 173.73,-608.92 170.23,-618.92 177.23,-618.92"/>
</g>
<!-- Node_5&#45;&gt;Node_2 -->
<g id="edge5" class="edge">
<title>Node_5:f1&#45;&gt;Node_2:f1</title>
<path fill="none" stroke="grey" stroke-dasharray="5,2" d="M161.73,-609C161.73,-677.99 53.7,-591.02 10.73,-645 -4.33,-663.93 -2.32,-853.11 9.73,-867 84.02,-952.63 187.95,-817.37 262.23,-903 289.17,-934.05 291,-966.13 262.23,-995.5 250.09,-1007.89 226.09,-1014.95 217.17,-1006"/>
<polygon fill="grey" stroke="grey" points="220.43,-1004.71 213.73,-996.5 213.85,-1007.09 220.43,-1004.71"/>
</g>
<!-- Node_5&#45;&gt;Node_4 -->
<g id="edge6" class="edge">
<title>Node_5:f2&#45;&gt;Node_4:f1</title>
<path fill="none" stroke="gray" stroke-dasharray="5,2" d="M259.73,-609C259.73,-643.2 310.1,-615.7 327.73,-645 348.94,-680.22 356.7,-708.33 327.73,-737.5 318.04,-747.26 219.88,-752.85 190.19,-744.44"/>
<polygon fill="gray" stroke="gray" points="191.93,-741.39 181.73,-738.5 187.9,-747.11 191.93,-741.39"/>
</g>
<!-- Node_6 -->
<g id="node6" class="node">
<title>Node_6</title>
<path fill="#ffded7" stroke="black" d="M100.23,-387.5C100.23,-387.5 247.23,-387.5 247.23,-387.5 253.23,-387.5 259.23,-393.5 259.23,-399.5 259.23,-399.5 259.23,-467.5 259.23,-467.5 259.23,-473.5 253.23,-479.5 247.23,-479.5 247.23,-479.5 100.23,-479.5 100.23,-479.5 94.23,-479.5 88.23,-473.5 88.23,-467.5 88.23,-467.5 88.23,-399.5 88.23,-399.5 88.23,-393.5 94.23,-387.5 100.23,-387.5"/>
<text text-anchor="middle" x="125.23" y="-429.8" font-family="Times,serif" font-size="14.00">Destructor</text>
<polyline fill="none" stroke="black" points="162.23,-387.5 162.23,-479.5 "/>
<text text-anchor="middle" x="210.73" y="-464.3" font-family="Times,serif" font-size="14.00">tmp_2</text>
<polyline fill="none" stroke="black" points="162.23,-456.5 259.23,-456.5 "/>
<text text-anchor="middle" x="210.73" y="-441.3" font-family="Times,serif" font-size="14.00">#3</text>
<polyline fill="none" stroke="black" points="162.23,-433.5 259.23,-433.5 "/>
<text text-anchor="middle" x="210.73" y="-418.3" font-family="Times,serif" font-size="14.00">0x16D8BF120</text>
<polyline fill="none" stroke="black" points="162.23,-410.5 259.23,-410.5 "/>
<text text-anchor="middle" x="210.73" y="-395.3" font-family="Times,serif" font-size="14.00">value = 0</text>
</g>
<!-- Node_5&#45;&gt;Node_6 -->
<g id="edge7" class="edge">
<title>Node_5&#45;&gt;Node_6</title>
<path fill="none" stroke="blue" d="M173.73,-516.37C173.73,-507.86 173.73,-498.87 173.73,-490.09"/>
<polygon fill="blue" stroke="blue" points="177.23,-489.92 173.73,-479.92 170.23,-489.92 177.23,-489.92"/>
</g>
<!-- Node_6&#45;&gt;Node_4 -->
<g id="edge8" class="edge">
<title>Node_6:f1&#45;&gt;Node_4:f1</title>
<path fill="none" stroke="grey" stroke-dasharray="5,2" d="M260.73,-468.5C293.37,-468.5 301.77,-486.99 316.73,-516 324.17,-530.42 346.02,-719.08 327.73,-737.5 318.04,-747.26 219.88,-752.85 190.19,-744.44"/>
<polygon fill="grey" stroke="grey" points="191.93,-741.39 181.73,-738.5 187.9,-747.11 191.93,-741.39"/>
</g>
<!-- Node_7 -->
<g id="node7" class="node">
<title>Node_7</title>
<path fill="#ffded7" stroke="black" d="M99.73,-258.5C99.73,-258.5 247.73,-258.5 247.73,-258.5 253.73,-258.5 259.73,-264.5 259.73,-270.5 259.73,-270.5 259.73,-338.5 259.73,-338.5 259.73,-344.5 253.73,-350.5 247.73,-350.5 247.73,-350.5 99.73,-350.5 99.73,-350.5 93.73,-350.5 87.73,-344.5 87.73,-338.5 87.73,-338.5 87.73,-270.5 87.73,-270.5 87.73,-264.5 93.73,-258.5 99.73,-258.5"/>
<text text-anchor="middle" x="124.73" y="-300.8" font-family="Times,serif" font-size="14.00">Destructor</text>
<polyline fill="none" stroke="black" points="161.73,-258.5 161.73,-350.5 "/>
<text text-anchor="middle" x="210.73" y="-335.3" font-family="Times,serif" font-size="14.00">tmp_1</text>
<polyline fill="none" stroke="black" points="161.73,-327.5 259.73,-327.5 "/>
<text text-anchor="middle" x="210.73" y="-312.3" font-family="Times,serif" font-size="14.00">#2</text>
<polyline fill="none" stroke="black" points="161.73,-304.5 259.73,-304.5 "/>
<text text-anchor="middle" x="210.73" y="-289.3" font-family="Times,serif" font-size="14.00">0x16D8BF0F8</text>
<polyline fill="none" stroke="black" points="161.73,-281.5 259.73,-281.5 "/>
<text text-anchor="middle" x="210.73" y="-266.3" font-family="Times,serif" font-size="14.00">value = 0</text>
</g>
<!-- Node_6&#45;&gt;Node_7 -->
<g id="edge9" class="edge">
<title>Node_6&#45;&gt;Node_7</title>
<path fill="none" stroke="blue" d="M173.73,-387.37C173.73,-378.86 173.73,-369.87 173.73,-361.09"/>
<polygon fill="blue" stroke="blue" points="177.23,-360.92 173.73,-350.92 170.23,-360.92 177.23,-360.92"/>
</g>
<!-- Node_7&#45;&gt;Node_3 -->
<g id="edge10" class="edge">
<title>Node_7:f1&#45;&gt;Node_3:f1</title>
<path fill="none" stroke="grey" stroke-dasharray="5,2" d="M260.73,-339.5C378.82,-339.5 414.51,-785.35 328.73,-866.5 318.56,-876.12 218.39,-882.01 188.88,-873.39"/>
<polygon fill="grey" stroke="grey" points="190.89,-870.52 180.73,-867.5 186.79,-876.2 190.89,-870.52"/>
</g>
<!-- Node_8 -->
<g id="node8" class="node">
<title>Node_8</title>
<path fill="#ffded7" stroke="black" d="M100.23,-129.5C100.23,-129.5 247.23,-129.5 247.23,-129.5 253.23,-129.5 259.23,-135.5 259.23,-141.5 259.23,-141.5 259.23,-209.5 259.23,-209.5 259.23,-215.5 253.23,-221.5 247.23,-221.5 247.23,-221.5 100.23,-221.5 100.23,-221.5 94.23,-221.5 88.23,-215.5 88.23,-209.5 88.23,-209.5 88.23,-141.5 88.23,-141.5 88.23,-135.5 94.23,-129.5 100.23,-129.5"/>
<text text-anchor="middle" x="125.23" y="-171.8" font-family="Times,serif" font-size="14.00">Destructor</text>
<polyline fill="none" stroke="black" points="162.23,-129.5 162.23,-221.5 "/>
<text text-anchor="middle" x="210.73" y="-206.3" font-family="Times,serif" font-size="14.00">c</text>
<polyline fill="none" stroke="black" points="162.23,-198.5 259.23,-198.5 "/>
<text text-anchor="middle" x="210.73" y="-183.3" font-family="Times,serif" font-size="14.00">#1</text>
<polyline fill="none" stroke="black" points="162.23,-175.5 259.23,-175.5 "/>
<text text-anchor="middle" x="210.73" y="-160.3" font-family="Times,serif" font-size="14.00">0x16D8BF160</text>
<polyline fill="none" stroke="black" points="162.23,-152.5 259.23,-152.5 "/>
<text text-anchor="middle" x="210.73" y="-137.3" font-family="Times,serif" font-size="14.00">value = 0</text>
</g>
<!-- Node_7&#45;&gt;Node_8 -->
<g id="edge11" class="edge">
<title>Node_7&#45;&gt;Node_8</title>
<path fill="none" stroke="blue" d="M173.73,-258.37C173.73,-249.86 173.73,-240.87 173.73,-232.09"/>
<polygon fill="blue" stroke="blue" points="177.23,-231.92 173.73,-221.92 170.23,-231.92 177.23,-231.92"/>
</g>
<!-- Node_8&#45;&gt;Node_2 -->
<g id="edge12" class="edge">
<title>Node_8:f1&#45;&gt;Node_2:f1</title>
<path fill="none" stroke="grey" stroke-dasharray="5,2" d="M260.73,-210.5C380.06,-210.5 411.73,-313.17 411.73,-432.5 411.73,-692.5 411.73,-692.5 411.73,-692.5 411.73,-712.89 328.09,-953.67 273.55,-981.82"/>
<polygon fill="grey" stroke="grey" points="272.46,-978.49 263.73,-984.5 274.3,-985.24 272.46,-978.49"/>
</g>
<!-- Node_9 -->
<g id="node9" class="node">
<title>Node_9</title>
<path fill="#ffded7" stroke="black" d="M99.23,-0.5C99.23,-0.5 248.23,-0.5 248.23,-0.5 254.23,-0.5 260.23,-6.5 260.23,-12.5 260.23,-12.5 260.23,-80.5 260.23,-80.5 260.23,-86.5 254.23,-92.5 248.23,-92.5 248.23,-92.5 99.23,-92.5 99.23,-92.5 93.23,-92.5 87.23,-86.5 87.23,-80.5 87.23,-80.5 87.23,-12.5 87.23,-12.5 87.23,-6.5 93.23,-0.5 99.23,-0.5"/>
<text text-anchor="middle" x="124.23" y="-42.8" font-family="Times,serif" font-size="14.00">Destructor</text>
<polyline fill="none" stroke="black" points="161.23,-0.5 161.23,-92.5 "/>
<text text-anchor="middle" x="210.73" y="-77.3" font-family="Times,serif" font-size="14.00">a</text>
<polyline fill="none" stroke="black" points="161.23,-69.5 260.23,-69.5 "/>
<text text-anchor="middle" x="210.73" y="-54.3" font-family="Times,serif" font-size="14.00">#0</text>
<polyline fill="none" stroke="black" points="161.23,-46.5 260.23,-46.5 "/>
<text text-anchor="middle" x="210.73" y="-31.3" font-family="Times,serif" font-size="14.00">0x16D8BF1B0</text>
<polyline fill="none" stroke="black" points="161.23,-23.5 260.23,-23.5 "/>
<text text-anchor="middle" x="210.73" y="-8.3" font-family="Times,serif" font-size="14.00">value = 0</text>
</g>
<!-- Node_8&#45;&gt;Node_9 -->
<g id="edge13" class="edge">
<title>Node_8&#45;&gt;Node_9</title>
<path fill="none" stroke="blue" d="M173.73,-129.37C173.73,-120.86 173.73,-111.87 173.73,-103.09"/>
<polygon fill="blue" stroke="blue" points="177.23,-102.92 173.73,-92.92 170.23,-102.92 177.23,-102.92"/>
</g>
<!-- Node_9&#45;&gt;Node_1 -->
<g id="edge14" class="edge">
<title>Node_9:f1&#45;&gt;Node_1:f1</title>
<path fill="none" stroke="grey" stroke-dasharray="5,2" d="M261.73,-81.5C391.03,-81.5 449.73,-174.21 449.73,-303.5 449.73,-821.5 449.73,-821.5 449.73,-821.5 449.73,-971.68 419.76,-1107.28 274.9,-1113.29"/>
<polygon fill="grey" stroke="grey" points="274.66,-1109.8 264.73,-1113.5 274.8,-1116.79 274.66,-1109.8"/>
</g>
</g>
</svg>
