<?xml version="1.0" encoding="UTF-8" standalone="no"?>
<!DOCTYPE svg PUBLIC "-//W3C//DTD SVG 1.1//EN"
 "http://www.w3.org/Graphics/SVG/1.1/DTD/svg11.dtd">
<!-- Generated by graphviz version 2.50.0 (20211204.2007)
 -->
<!-- Title: G Pages: 1 -->
<svg width="447pt" height="1133pt"
 viewBox="0.00 0.00 446.68 1133.00" xmlns="http://www.w3.org/2000/svg" xmlns:xlink="http://www.w3.org/1999/xlink">
<g id="graph0" class="graph" transform="scale(1 1) rotate(0) translate(4 1129)">
<title>G</title>
<polygon fill="white" stroke="transparent" points="-4,4 -4,-1129 442.68,-1129 442.68,4 -4,4"/>
<!-- Node_1 -->
<g id="node1" class="node">
<title>Node_1</title>
<polygon fill="darkcyan" stroke="black" points="80.68,-1032.5 80.68,-1124.5 254.68,-1124.5 254.68,-1032.5 80.68,-1032.5"/>
<text text-anchor="middle" x="120.68" y="-1074.8" font-family="Times,serif" font-size="14.00">Constructor</text>
<polyline fill="none" stroke="black" points="160.68,-1032.5 160.68,-1124.5 "/>
<text text-anchor="middle" x="207.68" y="-1109.3" font-family="Times,serif" font-size="14.00">a</text>
<polyline fill="none" stroke="black" points="160.68,-1101.5 254.68,-1101.5 "/>
<text text-anchor="middle" x="207.68" y="-1086.3" font-family="Times,serif" font-size="14.00">#0</text>
<polyline fill="none" stroke="black" points="160.68,-1078.5 254.68,-1078.5 "/>
<text text-anchor="middle" x="207.68" y="-1063.3" font-family="Times,serif" font-size="14.00">0x16F6531B0</text>
<polyline fill="none" stroke="black" points="160.68,-1055.5 254.68,-1055.5 "/>
<text text-anchor="middle" x="207.68" y="-1040.3" font-family="Times,serif" font-size="14.00">value = 0</text>
</g>
<!-- Node_2 -->
<g id="node2" class="node">
<title>Node_2</title>
<polygon fill="darkcyan" stroke="black" points="81.68,-903.5 81.68,-995.5 253.68,-995.5 253.68,-903.5 81.68,-903.5"/>
<text text-anchor="middle" x="121.68" y="-945.8" font-family="Times,serif" font-size="14.00">Constructor</text>
<polyline fill="none" stroke="black" points="161.68,-903.5 161.68,-995.5 "/>
<text text-anchor="middle" x="207.68" y="-980.3" font-family="Times,serif" font-size="14.00">c</text>
<polyline fill="none" stroke="black" points="161.68,-972.5 253.68,-972.5 "/>
<text text-anchor="middle" x="207.68" y="-957.3" font-family="Times,serif" font-size="14.00">#1</text>
<polyline fill="none" stroke="black" points="161.68,-949.5 253.68,-949.5 "/>
<text text-anchor="middle" x="207.68" y="-934.3" font-family="Times,serif" font-size="14.00">0x16F653160</text>
<polyline fill="none" stroke="black" points="161.68,-926.5 253.68,-926.5 "/>
<text text-anchor="middle" x="207.68" y="-911.3" font-family="Times,serif" font-size="14.00">value = 2</text>
</g>
<!-- Node_1&#45;&gt;Node_2 -->
<g id="edge1" class="edge">
<title>Node_1&#45;&gt;Node_2</title>
<path fill="none" stroke="blue" d="M167.68,-1032.37C167.68,-1023.86 167.68,-1014.87 167.68,-1006.09"/>
<polygon fill="blue" stroke="blue" points="171.18,-1005.92 167.68,-995.92 164.18,-1005.92 171.18,-1005.92"/>
</g>
<!-- Node_3 -->
<g id="node3" class="node">
<title>Node_3</title>
<polygon fill="#ff6e50" stroke="black" points="18.18,-774.5 18.18,-866.5 317.18,-866.5 317.18,-774.5 18.18,-774.5"/>
<text text-anchor="middle" x="74.68" y="-816.8" font-family="Times,serif" font-size="14.00">Copy Constructor</text>
<polyline fill="none" stroke="black" points="131.18,-774.5 131.18,-866.5 "/>
<text text-anchor="middle" x="177.18" y="-851.3" font-family="Times,serif" font-size="14.00">tmp_1</text>
<polyline fill="none" stroke="black" points="131.18,-843.5 223.18,-843.5 "/>
<text text-anchor="middle" x="177.18" y="-828.3" font-family="Times,serif" font-size="14.00">#2</text>
<polyline fill="none" stroke="black" points="131.18,-820.5 223.18,-820.5 "/>
<text text-anchor="middle" x="177.18" y="-805.3" font-family="Times,serif" font-size="14.00">0x16F6530F8</text>
<polyline fill="none" stroke="black" points="131.18,-797.5 223.18,-797.5 "/>
<text text-anchor="middle" x="177.18" y="-782.3" font-family="Times,serif" font-size="14.00">value = 0</text>
<polyline fill="none" stroke="black" points="223.18,-774.5 223.18,-866.5 "/>
<text text-anchor="middle" x="270.18" y="-851.3" font-family="Times,serif" font-size="14.00">a</text>
<polyline fill="none" stroke="black" points="223.18,-843.5 317.18,-843.5 "/>
<text text-anchor="middle" x="270.18" y="-828.3" font-family="Times,serif" font-size="14.00">#0</text>
<polyline fill="none" stroke="black" points="223.18,-820.5 317.18,-820.5 "/>
<text text-anchor="middle" x="270.18" y="-805.3" font-family="Times,serif" font-size="14.00">0x16F6531B0</text>
<polyline fill="none" stroke="black" points="223.18,-797.5 317.18,-797.5 "/>
<text text-anchor="middle" x="270.18" y="-782.3" font-family="Times,serif" font-size="14.00">value = 0</text>
</g>
<!-- Node_2&#45;&gt;Node_3 -->
<g id="edge2" class="edge">
<title>Node_2&#45;&gt;Node_3</title>
<path fill="none" stroke="blue" d="M167.68,-903.37C167.68,-894.86 167.68,-885.87 167.68,-877.09"/>
<polygon fill="blue" stroke="blue" points="171.18,-876.92 167.68,-866.92 164.18,-876.92 171.18,-876.92"/>
</g>
<!-- Node_4 -->
<g id="node4" class="node">
<title>Node_4</title>
<polygon fill="#ff6e50" stroke="black" points="19.18,-645.5 19.18,-737.5 316.18,-737.5 316.18,-645.5 19.18,-645.5"/>
<text text-anchor="middle" x="75.68" y="-687.8" font-family="Times,serif" font-size="14.00">Copy Constructor</text>
<polyline fill="none" stroke="black" points="132.18,-645.5 132.18,-737.5 "/>
<text text-anchor="middle" x="178.18" y="-722.3" font-family="Times,serif" font-size="14.00">tmp_2</text>
<polyline fill="none" stroke="black" points="132.18,-714.5 224.18,-714.5 "/>
<text text-anchor="middle" x="178.18" y="-699.3" font-family="Times,serif" font-size="14.00">#3</text>
<polyline fill="none" stroke="black" points="132.18,-691.5 224.18,-691.5 "/>
<text text-anchor="middle" x="178.18" y="-676.3" font-family="Times,serif" font-size="14.00">0x16F653120</text>
<polyline fill="none" stroke="black" points="132.18,-668.5 224.18,-668.5 "/>
<text text-anchor="middle" x="178.18" y="-653.3" font-family="Times,serif" font-size="14.00">value = 0</text>
<polyline fill="none" stroke="black" points="224.18,-645.5 224.18,-737.5 "/>
<text text-anchor="middle" x="270.18" y="-722.3" font-family="Times,serif" font-size="14.00">tmp_1</text>
<polyline fill="none" stroke="black" points="224.18,-714.5 316.18,-714.5 "/>
<text text-anchor="middle" x="270.18" y="-699.3" font-family="Times,serif" font-size="14.00">#2</text>
<polyline fill="none" stroke="black" points="224.18,-691.5 316.18,-691.5 "/>
<text text-anchor="middle" x="270.18" y="-676.3" font-family="Times,serif" font-size="14.00">0x16F6530F8</text>
<polyline fill="none" stroke="black" points="224.18,-668.5 316.18,-668.5 "/>
<text text-anchor="middle" x="270.18" y="-653.3" font-family="Times,serif" font-size="14.00">value = 0</text>
</g>
<!-- Node_3&#45;&gt;Node_4 -->
<g id="edge3" class="edge">
<title>Node_3&#45;&gt;Node_4</title>
<path fill="none" stroke="blue" d="M167.68,-774.37C167.68,-765.86 167.68,-756.87 167.68,-748.09"/>
<polygon fill="blue" stroke="blue" points="171.18,-747.92 167.68,-737.92 164.18,-747.92 171.18,-747.92"/>
</g>
<!-- Node_5 -->
<g id="node5" class="node">
<title>Node_5</title>
<path fill="#ff6e50" stroke="black" d="M50.68,-516.5C50.68,-516.5 284.68,-516.5 284.68,-516.5 290.68,-516.5 296.68,-522.5 296.68,-528.5 296.68,-528.5 296.68,-596.5 296.68,-596.5 296.68,-602.5 290.68,-608.5 284.68,-608.5 284.68,-608.5 50.68,-608.5 50.68,-608.5 44.68,-608.5 38.68,-602.5 38.68,-596.5 38.68,-596.5 38.68,-528.5 38.68,-528.5 38.68,-522.5 44.68,-516.5 50.68,-516.5"/>
<text text-anchor="middle" x="75.68" y="-558.8" font-family="Times,serif" font-size="14.00">[COPY] =</text>
<polyline fill="none" stroke="black" points="112.68,-516.5 112.68,-608.5 "/>
<text text-anchor="middle" x="158.68" y="-593.3" font-family="Times,serif" font-size="14.00">c</text>
<polyline fill="none" stroke="black" points="112.68,-585.5 204.68,-585.5 "/>
<text text-anchor="middle" x="158.68" y="-570.3" font-family="Times,serif" font-size="14.00">#1</text>
<polyline fill="none" stroke="black" points="112.68,-562.5 204.68,-562.5 "/>
<text text-anchor="middle" x="158.68" y="-547.3" font-family="Times,serif" font-size="14.00">0x16F653160</text>
<polyline fill="none" stroke="black" points="112.68,-539.5 204.68,-539.5 "/>
<text text-anchor="middle" x="158.68" y="-524.3" font-family="Times,serif" font-size="14.00">value = 2</text>
<polyline fill="none" stroke="black" points="204.68,-516.5 204.68,-608.5 "/>
<text text-anchor="middle" x="250.68" y="-593.3" font-family="Times,serif" font-size="14.00">tmp_2</text>
<polyline fill="none" stroke="black" points="204.68,-585.5 296.68,-585.5 "/>
<text text-anchor="middle" x="250.68" y="-570.3" font-family="Times,serif" font-size="14.00">#3</text>
<polyline fill="none" stroke="black" points="204.68,-562.5 296.68,-562.5 "/>
<text text-anchor="middle" x="250.68" y="-547.3" font-family="Times,serif" font-size="14.00">0x16F653120</text>
<polyline fill="none" stroke="black" points="204.68,-539.5 296.68,-539.5 "/>
<text text-anchor="middle" x="250.68" y="-524.3" font-family="Times,serif" font-size="14.00">value = 0</text>
</g>
<!-- Node_4&#45;&gt;Node_5 -->
<g id="edge4" class="edge">
<title>Node_4&#45;&gt;Node_5</title>
<path fill="none" stroke="blue" d="M167.68,-645.37C167.68,-636.86 167.68,-627.87 167.68,-619.09"/>
<polygon fill="blue" stroke="blue" points="171.18,-618.92 167.68,-608.92 164.18,-618.92 171.18,-618.92"/>
</g>
<!-- Node_5&#45;&gt;Node_2 -->
<g id="edge5" class="edge">
<title>Node_5:f1&#45;&gt;Node_2:f1</title>
<path fill="none" stroke="grey" stroke-dasharray="5,2" d="M158.68,-609C158.68,-676.7 52.72,-591.94 10.68,-645 -4.31,-663.92 -2.32,-853.1 9.68,-867 81.32,-949.98 182.05,-820.02 253.68,-903 280.55,-934.12 282.44,-966.12 253.68,-995.5 242.4,-1007.03 220.28,-1013.72 211.45,-1005.98"/>
<polygon fill="grey" stroke="grey" points="214.63,-1004.5 207.68,-996.5 208.13,-1007.09 214.63,-1004.5"/>
</g>
<!-- Node_5&#45;&gt;Node_4 -->
<g id="edge6" class="edge">
<title>Node_5:f2&#45;&gt;Node_4:f1</title>
<path fill="none" stroke="gray" stroke-dasharray="5,2" d="M250.68,-609C250.68,-642.22 299.27,-616.41 316.18,-645 337.11,-680.38 345.15,-708.32 316.18,-737.5 307.1,-746.65 215.46,-751.95 187.04,-744.2"/>
<polygon fill="gray" stroke="gray" points="188.92,-741.25 178.68,-738.5 184.97,-747.03 188.92,-741.25"/>
</g>
<!-- Node_6 -->
<g id="node6" class="node">
<title>Node_6</title>
<path fill="#ffded7" stroke="black" d="M96.68,-387.5C96.68,-387.5 238.68,-387.5 238.68,-387.5 244.68,-387.5 250.68,-393.5 250.68,-399.5 250.68,-399.5 250.68,-467.5 250.68,-467.5 250.68,-473.5 244.68,-479.5 238.68,-479.5 238.68,-479.5 96.68,-479.5 96.68,-479.5 90.68,-479.5 84.68,-473.5 84.68,-467.5 84.68,-467.5 84.68,-399.5 84.68,-399.5 84.68,-393.5 90.68,-387.5 96.68,-387.5"/>
<text text-anchor="middle" x="121.68" y="-429.8" font-family="Times,serif" font-size="14.00">Destructor</text>
<polyline fill="none" stroke="black" points="158.68,-387.5 158.68,-479.5 "/>
<text text-anchor="middle" x="204.68" y="-464.3" font-family="Times,serif" font-size="14.00">tmp_2</text>
<polyline fill="none" stroke="black" points="158.68,-456.5 250.68,-456.5 "/>
<text text-anchor="middle" x="204.68" y="-441.3" font-family="Times,serif" font-size="14.00">#3</text>
<polyline fill="none" stroke="black" points="158.68,-433.5 250.68,-433.5 "/>
<text text-anchor="middle" x="204.68" y="-418.3" font-family="Times,serif" font-size="14.00">0x16F653120</text>
<polyline fill="none" stroke="black" points="158.68,-410.5 250.68,-410.5 "/>
<text text-anchor="middle" x="204.68" y="-395.3" font-family="Times,serif" font-size="14.00">value = 0</text>
</g>
<!-- Node_5&#45;&gt;Node_6 -->
<g id="edge7" class="edge">
<title>Node_5&#45;&gt;Node_6</title>
<path fill="none" stroke="blue" d="M167.68,-516.37C167.68,-507.86 167.68,-498.87 167.68,-490.09"/>
<polygon fill="blue" stroke="blue" points="171.18,-489.92 167.68,-479.92 164.18,-489.92 171.18,-489.92"/>
</g>
<!-- Node_6&#45;&gt;Node_4 -->
<g id="edge8" class="edge">
<title>Node_6:f1&#45;&gt;Node_4:f1</title>
<path fill="none" stroke="grey" stroke-dasharray="5,2" d="M251.68,-468.5C283.65,-468.5 291.34,-487.43 305.68,-516 313.23,-531.02 333.96,-719.59 316.18,-737.5 307.1,-746.65 215.46,-751.95 187.04,-744.2"/>
<polygon fill="grey" stroke="grey" points="188.92,-741.25 178.68,-738.5 184.97,-747.03 188.92,-741.25"/>
</g>
<!-- Node_7 -->
<g id="node7" class="node">
<title>Node_7</title>
<path fill="#ffded7" stroke="black" d="M96.68,-258.5C96.68,-258.5 238.68,-258.5 238.68,-258.5 244.68,-258.5 250.68,-264.5 250.68,-270.5 250.68,-270.5 250.68,-338.5 250.68,-338.5 250.68,-344.5 244.68,-350.5 238.68,-350.5 238.68,-350.5 96.68,-350.5 96.68,-350.5 90.68,-350.5 84.68,-344.5 84.68,-338.5 84.68,-338.5 84.68,-270.5 84.68,-270.5 84.68,-264.5 90.68,-258.5 96.68,-258.5"/>
<text text-anchor="middle" x="121.68" y="-300.8" font-family="Times,serif" font-size="14.00">Destructor</text>
<polyline fill="none" stroke="black" points="158.68,-258.5 158.68,-350.5 "/>
<text text-anchor="middle" x="204.68" y="-335.3" font-family="Times,serif" font-size="14.00">tmp_1</text>
<polyline fill="none" stroke="black" points="158.68,-327.5 250.68,-327.5 "/>
<text text-anchor="middle" x="204.68" y="-312.3" font-family="Times,serif" font-size="14.00">#2</text>
<polyline fill="none" stroke="black" points="158.68,-304.5 250.68,-304.5 "/>
<text text-anchor="middle" x="204.68" y="-289.3" font-family="Times,serif" font-size="14.00">0x16F6530F8</text>
<polyline fill="none" stroke="black" points="158.68,-281.5 250.68,-281.5 "/>
<text text-anchor="middle" x="204.68" y="-266.3" font-family="Times,serif" font-size="14.00">value = 0</text>
</g>
<!-- Node_6&#45;&gt;Node_7 -->
<g id="edge9" class="edge">
<title>Node_6&#45;&gt;Node_7</title>
<path fill="none" stroke="blue" d="M167.68,-387.37C167.68,-378.86 167.68,-369.87 167.68,-361.09"/>
<polygon fill="blue" stroke="blue" points="171.18,-360.92 167.68,-350.92 164.18,-360.92 171.18,-360.92"/>
</g>
<!-- Node_7&#45;&gt;Node_3 -->
<g id="edge10" class="edge">
<title>Node_7:f1&#45;&gt;Node_3:f1</title>
<path fill="none" stroke="grey" stroke-dasharray="5,2" d="M251.68,-339.5C369.7,-339.5 403.05,-785.55 317.18,-866.5 307.67,-875.47 214.9,-881.05 186.14,-873.26"/>
<polygon fill="grey" stroke="grey" points="187.92,-870.24 177.68,-867.5 183.98,-876.02 187.92,-870.24"/>
</g>
<!-- Node_8 -->
<g id="node8" class="node">
<title>Node_8</title>
<path fill="#ffded7" stroke="black" d="M96.68,-129.5C96.68,-129.5 238.68,-129.5 238.68,-129.5 244.68,-129.5 250.68,-135.5 250.68,-141.5 250.68,-141.5 250.68,-209.5 250.68,-209.5 250.68,-215.5 244.68,-221.5 238.68,-221.5 238.68,-221.5 96.68,-221.5 96.68,-221.5 90.68,-221.5 84.68,-215.5 84.68,-209.5 84.68,-209.5 84.68,-141.5 84.68,-141.5 84.68,-135.5 90.68,-129.5 96.68,-129.5"/>
<text text-anchor="middle" x="121.68" y="-171.8" font-family="Times,serif" font-size="14.00">Destructor</text>
<polyline fill="none" stroke="black" points="158.68,-129.5 158.68,-221.5 "/>
<text text-anchor="middle" x="204.68" y="-206.3" font-family="Times,serif" font-size="14.00">c</text>
<polyline fill="none" stroke="black" points="158.68,-198.5 250.68,-198.5 "/>
<text text-anchor="middle" x="204.68" y="-183.3" font-family="Times,serif" font-size="14.00">#1</text>
<polyline fill="none" stroke="black" points="158.68,-175.5 250.68,-175.5 "/>
<text text-anchor="middle" x="204.68" y="-160.3" font-family="Times,serif" font-size="14.00">0x16F653160</text>
<polyline fill="none" stroke="black" points="158.68,-152.5 250.68,-152.5 "/>
<text text-anchor="middle" x="204.68" y="-137.3" font-family="Times,serif" font-size="14.00">value = 0</text>
</g>
<!-- Node_7&#45;&gt;Node_8 -->
<g id="edge11" class="edge">
<title>Node_7&#45;&gt;Node_8</title>
<path fill="none" stroke="blue" d="M167.68,-258.37C167.68,-249.86 167.68,-240.87 167.68,-232.09"/>
<polygon fill="blue" stroke="blue" points="171.18,-231.92 167.68,-221.92 164.18,-231.92 171.18,-231.92"/>
</g>
<!-- Node_8&#45;&gt;Node_2 -->
<g id="edge12" class="edge">
<title>Node_8:f1&#45;&gt;Node_2:f1</title>
<path fill="none" stroke="grey" stroke-dasharray="5,2" d="M251.68,-210.5C370.51,-210.5 400.68,-313.67 400.68,-432.5 400.68,-692.5 400.68,-692.5 400.68,-692.5 400.68,-716.2 316.75,-953.08 264.38,-981.68"/>
<polygon fill="grey" stroke="grey" points="263.31,-978.35 254.68,-984.5 265.26,-985.07 263.31,-978.35"/>
</g>
<!-- Node_9 -->
<g id="node9" class="node">
<title>Node_9</title>
<path fill="#ffded7" stroke="black" d="M95.68,-0.5C95.68,-0.5 239.68,-0.5 239.68,-0.5 245.68,-0.5 251.68,-6.5 251.68,-12.5 251.68,-12.5 251.68,-80.5 251.68,-80.5 251.68,-86.5 245.68,-92.5 239.68,-92.5 239.68,-92.5 95.68,-92.5 95.68,-92.5 89.68,-92.5 83.68,-86.5 83.68,-80.5 83.68,-80.5 83.68,-12.5 83.68,-12.5 83.68,-6.5 89.68,-0.5 95.68,-0.5"/>
<text text-anchor="middle" x="120.68" y="-42.8" font-family="Times,serif" font-size="14.00">Destructor</text>
<polyline fill="none" stroke="black" points="157.68,-0.5 157.68,-92.5 "/>
<text text-anchor="middle" x="204.68" y="-77.3" font-family="Times,serif" font-size="14.00">a</text>
<polyline fill="none" stroke="black" points="157.68,-69.5 251.68,-69.5 "/>
<text text-anchor="middle" x="204.68" y="-54.3" font-family="Times,serif" font-size="14.00">#0</text>
<polyline fill="none" stroke="black" points="157.68,-46.5 251.68,-46.5 "/>
<text text-anchor="middle" x="204.68" y="-31.3" font-family="Times,serif" font-size="14.00">0x16F6531B0</text>
<polyline fill="none" stroke="black" points="157.68,-23.5 251.68,-23.5 "/>
<text text-anchor="middle" x="204.68" y="-8.3" font-family="Times,serif" font-size="14.00">value = 0</text>
</g>
<!-- Node_8&#45;&gt;Node_9 -->
<g id="edge13" class="edge">
<title>Node_8&#45;&gt;Node_9</title>
<path fill="none" stroke="blue" d="M167.68,-129.37C167.68,-120.86 167.68,-111.87 167.68,-103.09"/>
<polygon fill="blue" stroke="blue" points="171.18,-102.92 167.68,-92.92 164.18,-102.92 171.18,-102.92"/>
</g>
<!-- Node_9&#45;&gt;Node_1 -->
<g id="edge14" class="edge">
<title>Node_9:f1&#45;&gt;Node_1:f1</title>
<path fill="none" stroke="grey" stroke-dasharray="5,2" d="M252.68,-81.5C381.4,-81.5 438.68,-174.78 438.68,-303.5 438.68,-821.5 438.68,-821.5 438.68,-821.5 438.68,-971.22 410.17,-1107.26 265.82,-1113.29"/>
<polygon fill="grey" stroke="grey" points="265.61,-1109.79 255.68,-1113.5 265.75,-1116.79 265.61,-1109.79"/>
</g>
</g>
</svg>
