<?xml version="1.0" encoding="UTF-8" standalone="no"?>
<!DOCTYPE svg PUBLIC "-//W3C//DTD SVG 1.1//EN"
 "http://www.w3.org/Graphics/SVG/1.1/DTD/svg11.dtd">
<!-- Generated by graphviz version 2.50.0 (20211204.2007)
 -->
<!-- Title: G Pages: 1 -->
<svg width="612pt" height="3082pt"
 viewBox="0.00 0.00 612.00 3081.82" xmlns="http://www.w3.org/2000/svg" xmlns:xlink="http://www.w3.org/1999/xlink">
<g id="graph0" class="graph" transform="scale(1 1) rotate(0) translate(4 3077.82)">
<title>G</title>
<polygon fill="white" stroke="transparent" points="-4,4 -4,-3077.82 608,-3077.82 608,4 -4,4"/>
<!-- Node_1 -->
<g id="node1" class="node">
<title>Node_1</title>
<polygon fill="darkcyan" stroke="black" points="167,-2967.5 167,-3059.5 341,-3059.5 341,-2967.5 167,-2967.5"/>
<text text-anchor="middle" x="207" y="-3009.8" font-family="Times,serif" font-size="14.00">Constructor</text>
<polyline fill="none" stroke="black" points="247,-2967.5 247,-3059.5 "/>
<text text-anchor="middle" x="294" y="-3044.3" font-family="Times,serif" font-size="14.00">a</text>
<polyline fill="none" stroke="black" points="247,-3036.5 341,-3036.5 "/>
<text text-anchor="middle" x="294" y="-3021.3" font-family="Times,serif" font-size="14.00">#0</text>
<polyline fill="none" stroke="black" points="247,-3013.5 341,-3013.5 "/>
<text text-anchor="middle" x="294" y="-2998.3" font-family="Times,serif" font-size="14.00">0x16F4031B0</text>
<polyline fill="none" stroke="black" points="247,-2990.5 341,-2990.5 "/>
<text text-anchor="middle" x="294" y="-2975.3" font-family="Times,serif" font-size="14.00">value = 1</text>
</g>
<!-- Node_2 -->
<g id="node2" class="node">
<title>Node_2</title>
<polygon fill="darkcyan" stroke="black" points="168,-2838.5 168,-2930.5 340,-2930.5 340,-2838.5 168,-2838.5"/>
<text text-anchor="middle" x="208" y="-2880.8" font-family="Times,serif" font-size="14.00">Constructor</text>
<polyline fill="none" stroke="black" points="248,-2838.5 248,-2930.5 "/>
<text text-anchor="middle" x="294" y="-2915.3" font-family="Times,serif" font-size="14.00">b</text>
<polyline fill="none" stroke="black" points="248,-2907.5 340,-2907.5 "/>
<text text-anchor="middle" x="294" y="-2892.3" font-family="Times,serif" font-size="14.00">#1</text>
<polyline fill="none" stroke="black" points="248,-2884.5 340,-2884.5 "/>
<text text-anchor="middle" x="294" y="-2869.3" font-family="Times,serif" font-size="14.00">0x16F403160</text>
<polyline fill="none" stroke="black" points="248,-2861.5 340,-2861.5 "/>
<text text-anchor="middle" x="294" y="-2846.3" font-family="Times,serif" font-size="14.00">value = 2</text>
</g>
<!-- Node_1&#45;&gt;Node_2 -->
<g id="edge1" class="edge">
<title>Node_1&#45;&gt;Node_2</title>
<path fill="none" stroke="blue" d="M254,-2967.37C254,-2958.86 254,-2949.87 254,-2941.09"/>
<polygon fill="blue" stroke="blue" points="257.5,-2940.92 254,-2930.92 250.5,-2940.92 257.5,-2940.92"/>
</g>
<!-- Node_3 -->
<g id="node3" class="node">
<title>Node_3</title>
<polygon fill="darkcyan" stroke="black" points="168,-2709.5 168,-2801.5 340,-2801.5 340,-2709.5 168,-2709.5"/>
<text text-anchor="middle" x="208" y="-2751.8" font-family="Times,serif" font-size="14.00">Constructor</text>
<polyline fill="none" stroke="black" points="248,-2709.5 248,-2801.5 "/>
<text text-anchor="middle" x="294" y="-2786.3" font-family="Times,serif" font-size="14.00">val</text>
<polyline fill="none" stroke="black" points="248,-2778.5 340,-2778.5 "/>
<text text-anchor="middle" x="294" y="-2763.3" font-family="Times,serif" font-size="14.00">#2</text>
<polyline fill="none" stroke="black" points="248,-2755.5 340,-2755.5 "/>
<text text-anchor="middle" x="294" y="-2740.3" font-family="Times,serif" font-size="14.00">0x16F4030F8</text>
<polyline fill="none" stroke="black" points="248,-2732.5 340,-2732.5 "/>
<text text-anchor="middle" x="294" y="-2717.3" font-family="Times,serif" font-size="14.00">value = 10</text>
</g>
<!-- Node_2&#45;&gt;Node_3 -->
<g id="edge2" class="edge">
<title>Node_2&#45;&gt;Node_3</title>
<path fill="none" stroke="blue" d="M254,-2838.37C254,-2829.86 254,-2820.87 254,-2812.09"/>
<polygon fill="blue" stroke="blue" points="257.5,-2811.92 254,-2801.92 250.5,-2811.92 257.5,-2811.92"/>
</g>
<!-- Node_4 -->
<g id="node4" class="node">
<title>Node_4</title>
<polygon fill="#03c500" stroke="black" points="104,-2580.5 104,-2672.5 404,-2672.5 404,-2580.5 104,-2580.5"/>
<text text-anchor="middle" x="162" y="-2622.8" font-family="Times,serif" font-size="14.00">Move Constructor</text>
<polyline fill="none" stroke="black" points="220,-2580.5 220,-2672.5 "/>
<text text-anchor="middle" x="266" y="-2657.3" font-family="Times,serif" font-size="14.00">c</text>
<polyline fill="none" stroke="black" points="220,-2649.5 312,-2649.5 "/>
<text text-anchor="middle" x="266" y="-2634.3" font-family="Times,serif" font-size="14.00">#3</text>
<polyline fill="none" stroke="black" points="220,-2626.5 312,-2626.5 "/>
<text text-anchor="middle" x="266" y="-2611.3" font-family="Times,serif" font-size="14.00">0x16F403120</text>
<polyline fill="none" stroke="black" points="220,-2603.5 312,-2603.5 "/>
<text text-anchor="middle" x="266" y="-2588.3" font-family="Times,serif" font-size="14.00">value = 10</text>
<polyline fill="none" stroke="black" points="312,-2580.5 312,-2672.5 "/>
<text text-anchor="middle" x="358" y="-2657.3" font-family="Times,serif" font-size="14.00">val</text>
<polyline fill="none" stroke="black" points="312,-2649.5 404,-2649.5 "/>
<text text-anchor="middle" x="358" y="-2634.3" font-family="Times,serif" font-size="14.00">#2</text>
<polyline fill="none" stroke="black" points="312,-2626.5 404,-2626.5 "/>
<text text-anchor="middle" x="358" y="-2611.3" font-family="Times,serif" font-size="14.00">0x16F4030F8</text>
<polyline fill="none" stroke="black" points="312,-2603.5 404,-2603.5 "/>
<text text-anchor="middle" x="358" y="-2588.3" font-family="Times,serif" font-size="14.00">value = 0</text>
</g>
<!-- Node_3&#45;&gt;Node_4 -->
<g id="edge3" class="edge">
<title>Node_3&#45;&gt;Node_4</title>
<path fill="none" stroke="blue" d="M254,-2709.37C254,-2700.86 254,-2691.87 254,-2683.09"/>
<polygon fill="blue" stroke="blue" points="257.5,-2682.92 254,-2672.92 250.5,-2682.92 257.5,-2682.92"/>
</g>
<!-- Node_5 -->
<g id="node5" class="node">
<title>Node_5</title>
<path fill="#ffded7" stroke="black" d="M183,-2451.5C183,-2451.5 325,-2451.5 325,-2451.5 331,-2451.5 337,-2457.5 337,-2463.5 337,-2463.5 337,-2531.5 337,-2531.5 337,-2537.5 331,-2543.5 325,-2543.5 325,-2543.5 183,-2543.5 183,-2543.5 177,-2543.5 171,-2537.5 171,-2531.5 171,-2531.5 171,-2463.5 171,-2463.5 171,-2457.5 177,-2451.5 183,-2451.5"/>
<text text-anchor="middle" x="208" y="-2493.8" font-family="Times,serif" font-size="14.00">Destructor</text>
<polyline fill="none" stroke="black" points="245,-2451.5 245,-2543.5 "/>
<text text-anchor="middle" x="291" y="-2528.3" font-family="Times,serif" font-size="14.00">val</text>
<polyline fill="none" stroke="black" points="245,-2520.5 337,-2520.5 "/>
<text text-anchor="middle" x="291" y="-2505.3" font-family="Times,serif" font-size="14.00">#2</text>
<polyline fill="none" stroke="black" points="245,-2497.5 337,-2497.5 "/>
<text text-anchor="middle" x="291" y="-2482.3" font-family="Times,serif" font-size="14.00">0x16F4030F8</text>
<polyline fill="none" stroke="black" points="245,-2474.5 337,-2474.5 "/>
<text text-anchor="middle" x="291" y="-2459.3" font-family="Times,serif" font-size="14.00">value = 0</text>
</g>
<!-- Node_4&#45;&gt;Node_5 -->
<g id="edge4" class="edge">
<title>Node_4&#45;&gt;Node_5</title>
<path fill="none" stroke="blue" d="M254,-2580.37C254,-2571.86 254,-2562.87 254,-2554.09"/>
<polygon fill="blue" stroke="blue" points="257.5,-2553.92 254,-2543.92 250.5,-2553.92 257.5,-2553.92"/>
</g>
<!-- Node_5&#45;&gt;Node_3 -->
<g id="edge5" class="edge">
<title>Node_5:f1&#45;&gt;Node_3:f1</title>
<path fill="none" stroke="grey" stroke-dasharray="5,2" d="M338,-2532.5C377.46,-2532.5 393.98,-2545.43 413,-2580 459,-2663.58 441.25,-2781.84 351.14,-2790.05"/>
<polygon fill="grey" stroke="grey" points="350.83,-2786.56 341,-2790.5 351.15,-2793.55 350.83,-2786.56"/>
</g>
<!-- Node_6 -->
<g id="node6" class="node">
<title>Node_6</title>
<path fill="Yellow" stroke="black" d="M142.5,-2322.5C142.5,-2322.5 365.5,-2322.5 365.5,-2322.5 371.5,-2322.5 377.5,-2328.5 377.5,-2334.5 377.5,-2334.5 377.5,-2402.5 377.5,-2402.5 377.5,-2408.5 371.5,-2414.5 365.5,-2414.5 365.5,-2414.5 142.5,-2414.5 142.5,-2414.5 136.5,-2414.5 130.5,-2408.5 130.5,-2402.5 130.5,-2402.5 130.5,-2334.5 130.5,-2334.5 130.5,-2328.5 136.5,-2322.5 142.5,-2322.5"/>
<text text-anchor="middle" x="161" y="-2364.8" font-family="Times,serif" font-size="14.00">[BIN] +</text>
<polyline fill="none" stroke="black" points="191.5,-2322.5 191.5,-2414.5 "/>
<text text-anchor="middle" x="238.5" y="-2399.3" font-family="Times,serif" font-size="14.00">a</text>
<polyline fill="none" stroke="black" points="191.5,-2391.5 285.5,-2391.5 "/>
<text text-anchor="middle" x="238.5" y="-2376.3" font-family="Times,serif" font-size="14.00">#0</text>
<polyline fill="none" stroke="black" points="191.5,-2368.5 285.5,-2368.5 "/>
<text text-anchor="middle" x="238.5" y="-2353.3" font-family="Times,serif" font-size="14.00">0x16F4031B0</text>
<polyline fill="none" stroke="black" points="191.5,-2345.5 285.5,-2345.5 "/>
<text text-anchor="middle" x="238.5" y="-2330.3" font-family="Times,serif" font-size="14.00">value = 1</text>
<polyline fill="none" stroke="black" points="285.5,-2322.5 285.5,-2414.5 "/>
<text text-anchor="middle" x="331.5" y="-2399.3" font-family="Times,serif" font-size="14.00">b</text>
<polyline fill="none" stroke="black" points="285.5,-2391.5 377.5,-2391.5 "/>
<text text-anchor="middle" x="331.5" y="-2376.3" font-family="Times,serif" font-size="14.00">#1</text>
<polyline fill="none" stroke="black" points="285.5,-2368.5 377.5,-2368.5 "/>
<text text-anchor="middle" x="331.5" y="-2353.3" font-family="Times,serif" font-size="14.00">0x16F403160</text>
<polyline fill="none" stroke="black" points="285.5,-2345.5 377.5,-2345.5 "/>
<text text-anchor="middle" x="331.5" y="-2330.3" font-family="Times,serif" font-size="14.00">value = 2</text>
</g>
<!-- Node_5&#45;&gt;Node_6 -->
<g id="edge6" class="edge">
<title>Node_5&#45;&gt;Node_6</title>
<path fill="none" stroke="blue" d="M254,-2451.37C254,-2442.86 254,-2433.87 254,-2425.09"/>
<polygon fill="blue" stroke="blue" points="257.5,-2424.92 254,-2414.92 250.5,-2424.92 257.5,-2424.92"/>
</g>
<!-- Node_6&#45;&gt;Node_1 -->
<g id="edge7" class="edge">
<title>Node_6:f1&#45;&gt;Node_1:f1</title>
<path fill="none" stroke="grey" stroke-dasharray="5,2" d="M238,-2415C238,-2452.38 188.91,-2425.06 162,-2451 113.36,-2497.89 76,-2586.06 76,-2625.5 76,-2756.5 76,-2756.5 76,-2756.5 76,-2842.38 91.21,-2878.27 159,-2931 224.09,-2981.62 288.66,-2903.29 341,-2967 367.1,-2998.77 369.76,-3030.12 341,-3059.5 329.35,-3071.4 306.42,-3078.24 297.59,-3069.95"/>
<polygon fill="grey" stroke="grey" points="300.82,-3068.61 294,-3060.5 294.28,-3071.09 300.82,-3068.61"/>
</g>
<!-- Node_6&#45;&gt;Node_2 -->
<g id="edge8" class="edge">
<title>Node_6:f2&#45;&gt;Node_2:f1</title>
<path fill="none" stroke="gray" stroke-dasharray="5,2" d="M379,-2403.5C605.47,-2403.5 572.04,-2904 351.31,-2919.15"/>
<polygon fill="gray" stroke="gray" points="350.88,-2915.66 341,-2919.5 351.11,-2922.66 350.88,-2915.66"/>
</g>
<!-- Node_7 -->
<g id="node7" class="node">
<title>Node_7</title>
<polygon fill="darkcyan" stroke="black" points="168,-2193.5 168,-2285.5 340,-2285.5 340,-2193.5 168,-2193.5"/>
<text text-anchor="middle" x="208" y="-2235.8" font-family="Times,serif" font-size="14.00">Constructor</text>
<polyline fill="none" stroke="black" points="248,-2193.5 248,-2285.5 "/>
<text text-anchor="middle" x="294" y="-2270.3" font-family="Times,serif" font-size="14.00">tmp_1</text>
<polyline fill="none" stroke="black" points="248,-2262.5 340,-2262.5 "/>
<text text-anchor="middle" x="294" y="-2247.3" font-family="Times,serif" font-size="14.00">#4</text>
<polyline fill="none" stroke="black" points="248,-2239.5 340,-2239.5 "/>
<text text-anchor="middle" x="294" y="-2224.3" font-family="Times,serif" font-size="14.00">0x16F402F60</text>
<polyline fill="none" stroke="black" points="248,-2216.5 340,-2216.5 "/>
<text text-anchor="middle" x="294" y="-2201.3" font-family="Times,serif" font-size="14.00">value = 3</text>
</g>
<!-- Node_6&#45;&gt;Node_7 -->
<g id="edge9" class="edge">
<title>Node_6&#45;&gt;Node_7</title>
<path fill="none" stroke="blue" d="M254,-2322.37C254,-2313.86 254,-2304.87 254,-2296.09"/>
<polygon fill="blue" stroke="blue" points="257.5,-2295.92 254,-2285.92 250.5,-2295.92 257.5,-2295.92"/>
</g>
<!-- Node_8 -->
<g id="node8" class="node">
<title>Node_8</title>
<path fill="Yellow" stroke="black" d="M143.5,-2064.5C143.5,-2064.5 364.5,-2064.5 364.5,-2064.5 370.5,-2064.5 376.5,-2070.5 376.5,-2076.5 376.5,-2076.5 376.5,-2144.5 376.5,-2144.5 376.5,-2150.5 370.5,-2156.5 364.5,-2156.5 364.5,-2156.5 143.5,-2156.5 143.5,-2156.5 137.5,-2156.5 131.5,-2150.5 131.5,-2144.5 131.5,-2144.5 131.5,-2076.5 131.5,-2076.5 131.5,-2070.5 137.5,-2064.5 143.5,-2064.5"/>
<text text-anchor="middle" x="162" y="-2106.8" font-family="Times,serif" font-size="14.00">[BIN] +</text>
<polyline fill="none" stroke="black" points="192.5,-2064.5 192.5,-2156.5 "/>
<text text-anchor="middle" x="238.5" y="-2141.3" font-family="Times,serif" font-size="14.00">tmp_1</text>
<polyline fill="none" stroke="black" points="192.5,-2133.5 284.5,-2133.5 "/>
<text text-anchor="middle" x="238.5" y="-2118.3" font-family="Times,serif" font-size="14.00">#4</text>
<polyline fill="none" stroke="black" points="192.5,-2110.5 284.5,-2110.5 "/>
<text text-anchor="middle" x="238.5" y="-2095.3" font-family="Times,serif" font-size="14.00">0x16F402F60</text>
<polyline fill="none" stroke="black" points="192.5,-2087.5 284.5,-2087.5 "/>
<text text-anchor="middle" x="238.5" y="-2072.3" font-family="Times,serif" font-size="14.00">value = 3</text>
<polyline fill="none" stroke="black" points="284.5,-2064.5 284.5,-2156.5 "/>
<text text-anchor="middle" x="330.5" y="-2141.3" font-family="Times,serif" font-size="14.00">c</text>
<polyline fill="none" stroke="black" points="284.5,-2133.5 376.5,-2133.5 "/>
<text text-anchor="middle" x="330.5" y="-2118.3" font-family="Times,serif" font-size="14.00">#3</text>
<polyline fill="none" stroke="black" points="284.5,-2110.5 376.5,-2110.5 "/>
<text text-anchor="middle" x="330.5" y="-2095.3" font-family="Times,serif" font-size="14.00">0x16F403120</text>
<polyline fill="none" stroke="black" points="284.5,-2087.5 376.5,-2087.5 "/>
<text text-anchor="middle" x="330.5" y="-2072.3" font-family="Times,serif" font-size="14.00">value = 10</text>
</g>
<!-- Node_7&#45;&gt;Node_8 -->
<g id="edge10" class="edge">
<title>Node_7&#45;&gt;Node_8</title>
<path fill="none" stroke="blue" d="M254,-2193.37C254,-2184.86 254,-2175.87 254,-2167.09"/>
<polygon fill="blue" stroke="blue" points="257.5,-2166.92 254,-2156.92 250.5,-2166.92 257.5,-2166.92"/>
</g>
<!-- Node_8&#45;&gt;Node_4 -->
<g id="edge12" class="edge">
<title>Node_8:f2&#45;&gt;Node_4:f1</title>
<path fill="none" stroke="gray" stroke-dasharray="5,2" d="M378,-2145.5C584.74,-2145.5 449.91,-2626.26 404,-2672.5 394.88,-2681.68 302.91,-2687 274.39,-2679.22"/>
<polygon fill="gray" stroke="gray" points="276.23,-2676.25 266,-2673.5 272.29,-2682.03 276.23,-2676.25"/>
</g>
<!-- Node_8&#45;&gt;Node_7 -->
<g id="edge11" class="edge">
<title>Node_8:f1&#45;&gt;Node_7:f1</title>
<path fill="none" stroke="grey" stroke-dasharray="5,2" d="M238,-2157C238,-2205.07 312.23,-2153.76 340,-2193 363.74,-2226.56 368.75,-2256.12 340,-2285.5 328.71,-2297.03 306.6,-2303.72 297.77,-2295.98"/>
<polygon fill="grey" stroke="grey" points="300.95,-2294.5 294,-2286.5 294.44,-2297.09 300.95,-2294.5"/>
</g>
<!-- Node_9 -->
<g id="node9" class="node">
<title>Node_9</title>
<polygon fill="darkcyan" stroke="black" points="168,-1935.5 168,-2027.5 340,-2027.5 340,-1935.5 168,-1935.5"/>
<text text-anchor="middle" x="208" y="-1977.8" font-family="Times,serif" font-size="14.00">Constructor</text>
<polyline fill="none" stroke="black" points="248,-1935.5 248,-2027.5 "/>
<text text-anchor="middle" x="294" y="-2012.3" font-family="Times,serif" font-size="14.00">tmp_2</text>
<polyline fill="none" stroke="black" points="248,-2004.5 340,-2004.5 "/>
<text text-anchor="middle" x="294" y="-1989.3" font-family="Times,serif" font-size="14.00">#5</text>
<polyline fill="none" stroke="black" points="248,-1981.5 340,-1981.5 "/>
<text text-anchor="middle" x="294" y="-1966.3" font-family="Times,serif" font-size="14.00">0x16F402F88</text>
<polyline fill="none" stroke="black" points="248,-1958.5 340,-1958.5 "/>
<text text-anchor="middle" x="294" y="-1943.3" font-family="Times,serif" font-size="14.00">value = 13</text>
</g>
<!-- Node_8&#45;&gt;Node_9 -->
<g id="edge13" class="edge">
<title>Node_8&#45;&gt;Node_9</title>
<path fill="none" stroke="blue" d="M254,-2064.37C254,-2055.86 254,-2046.87 254,-2038.09"/>
<polygon fill="blue" stroke="blue" points="257.5,-2037.92 254,-2027.92 250.5,-2037.92 257.5,-2037.92"/>
</g>
<!-- Node_10 -->
<g id="node10" class="node">
<title>Node_10</title>
<polygon fill="#03c500" stroke="black" points="104,-1806.5 104,-1898.5 404,-1898.5 404,-1806.5 104,-1806.5"/>
<text text-anchor="middle" x="162" y="-1848.8" font-family="Times,serif" font-size="14.00">Move Constructor</text>
<polyline fill="none" stroke="black" points="220,-1806.5 220,-1898.5 "/>
<text text-anchor="middle" x="266" y="-1883.3" font-family="Times,serif" font-size="14.00">res</text>
<polyline fill="none" stroke="black" points="220,-1875.5 312,-1875.5 "/>
<text text-anchor="middle" x="266" y="-1860.3" font-family="Times,serif" font-size="14.00">#6</text>
<polyline fill="none" stroke="black" points="220,-1852.5 312,-1852.5 "/>
<text text-anchor="middle" x="266" y="-1837.3" font-family="Times,serif" font-size="14.00">0x16F403090</text>
<polyline fill="none" stroke="black" points="220,-1829.5 312,-1829.5 "/>
<text text-anchor="middle" x="266" y="-1814.3" font-family="Times,serif" font-size="14.00">value = 13</text>
<polyline fill="none" stroke="black" points="312,-1806.5 312,-1898.5 "/>
<text text-anchor="middle" x="358" y="-1883.3" font-family="Times,serif" font-size="14.00">tmp_2</text>
<polyline fill="none" stroke="black" points="312,-1875.5 404,-1875.5 "/>
<text text-anchor="middle" x="358" y="-1860.3" font-family="Times,serif" font-size="14.00">#5</text>
<polyline fill="none" stroke="black" points="312,-1852.5 404,-1852.5 "/>
<text text-anchor="middle" x="358" y="-1837.3" font-family="Times,serif" font-size="14.00">0x16F402F88</text>
<polyline fill="none" stroke="black" points="312,-1829.5 404,-1829.5 "/>
<text text-anchor="middle" x="358" y="-1814.3" font-family="Times,serif" font-size="14.00">value = 0</text>
</g>
<!-- Node_9&#45;&gt;Node_10 -->
<g id="edge14" class="edge">
<title>Node_9&#45;&gt;Node_10</title>
<path fill="none" stroke="blue" d="M254,-1935.37C254,-1926.86 254,-1917.87 254,-1909.09"/>
<polygon fill="blue" stroke="blue" points="257.5,-1908.92 254,-1898.92 250.5,-1908.92 257.5,-1908.92"/>
</g>
<!-- Node_11 -->
<g id="node11" class="node">
<title>Node_11</title>
<path fill="#ffded7" stroke="black" d="M183,-1677.5C183,-1677.5 325,-1677.5 325,-1677.5 331,-1677.5 337,-1683.5 337,-1689.5 337,-1689.5 337,-1757.5 337,-1757.5 337,-1763.5 331,-1769.5 325,-1769.5 325,-1769.5 183,-1769.5 183,-1769.5 177,-1769.5 171,-1763.5 171,-1757.5 171,-1757.5 171,-1689.5 171,-1689.5 171,-1683.5 177,-1677.5 183,-1677.5"/>
<text text-anchor="middle" x="208" y="-1719.8" font-family="Times,serif" font-size="14.00">Destructor</text>
<polyline fill="none" stroke="black" points="245,-1677.5 245,-1769.5 "/>
<text text-anchor="middle" x="291" y="-1754.3" font-family="Times,serif" font-size="14.00">tmp_2</text>
<polyline fill="none" stroke="black" points="245,-1746.5 337,-1746.5 "/>
<text text-anchor="middle" x="291" y="-1731.3" font-family="Times,serif" font-size="14.00">#5</text>
<polyline fill="none" stroke="black" points="245,-1723.5 337,-1723.5 "/>
<text text-anchor="middle" x="291" y="-1708.3" font-family="Times,serif" font-size="14.00">0x16F402F88</text>
<polyline fill="none" stroke="black" points="245,-1700.5 337,-1700.5 "/>
<text text-anchor="middle" x="291" y="-1685.3" font-family="Times,serif" font-size="14.00">value = 0</text>
</g>
<!-- Node_10&#45;&gt;Node_11 -->
<g id="edge15" class="edge">
<title>Node_10&#45;&gt;Node_11</title>
<path fill="none" stroke="blue" d="M254,-1806.37C254,-1797.86 254,-1788.87 254,-1780.09"/>
<polygon fill="blue" stroke="blue" points="257.5,-1779.92 254,-1769.92 250.5,-1779.92 257.5,-1779.92"/>
</g>
<!-- Node_11&#45;&gt;Node_9 -->
<g id="edge16" class="edge">
<title>Node_11:f1&#45;&gt;Node_9:f1</title>
<path fill="none" stroke="grey" stroke-dasharray="5,2" d="M338,-1758.5C377.46,-1758.5 393.98,-1771.43 413,-1806 459,-1889.58 441.25,-2007.84 351.14,-2016.05"/>
<polygon fill="grey" stroke="grey" points="350.83,-2012.56 341,-2016.5 351.15,-2019.55 350.83,-2012.56"/>
</g>
<!-- Node_12 -->
<g id="node12" class="node">
<title>Node_12</title>
<path fill="#ffded7" stroke="black" d="M183,-1548.5C183,-1548.5 325,-1548.5 325,-1548.5 331,-1548.5 337,-1554.5 337,-1560.5 337,-1560.5 337,-1628.5 337,-1628.5 337,-1634.5 331,-1640.5 325,-1640.5 325,-1640.5 183,-1640.5 183,-1640.5 177,-1640.5 171,-1634.5 171,-1628.5 171,-1628.5 171,-1560.5 171,-1560.5 171,-1554.5 177,-1548.5 183,-1548.5"/>
<text text-anchor="middle" x="208" y="-1590.8" font-family="Times,serif" font-size="14.00">Destructor</text>
<polyline fill="none" stroke="black" points="245,-1548.5 245,-1640.5 "/>
<text text-anchor="middle" x="291" y="-1625.3" font-family="Times,serif" font-size="14.00">tmp_1</text>
<polyline fill="none" stroke="black" points="245,-1617.5 337,-1617.5 "/>
<text text-anchor="middle" x="291" y="-1602.3" font-family="Times,serif" font-size="14.00">#4</text>
<polyline fill="none" stroke="black" points="245,-1594.5 337,-1594.5 "/>
<text text-anchor="middle" x="291" y="-1579.3" font-family="Times,serif" font-size="14.00">0x16F402F60</text>
<polyline fill="none" stroke="black" points="245,-1571.5 337,-1571.5 "/>
<text text-anchor="middle" x="291" y="-1556.3" font-family="Times,serif" font-size="14.00">value = 3</text>
</g>
<!-- Node_11&#45;&gt;Node_12 -->
<g id="edge17" class="edge">
<title>Node_11&#45;&gt;Node_12</title>
<path fill="none" stroke="blue" d="M254,-1677.37C254,-1668.86 254,-1659.87 254,-1651.09"/>
<polygon fill="blue" stroke="blue" points="257.5,-1650.92 254,-1640.92 250.5,-1650.92 257.5,-1650.92"/>
</g>
<!-- Node_12&#45;&gt;Node_7 -->
<g id="edge18" class="edge">
<title>Node_12:f1&#45;&gt;Node_7:f1</title>
<path fill="none" stroke="grey" stroke-dasharray="5,2" d="M338,-1629.5C428.38,-1629.5 415.78,-1718.65 439,-1806 492.78,-2008.27 551.79,-2266.04 351.07,-2274.3"/>
<polygon fill="grey" stroke="grey" points="350.93,-2270.8 341,-2274.5 351.07,-2277.8 350.93,-2270.8"/>
</g>
<!-- Node_13 -->
<g id="node13" class="node">
<title>Node_13</title>
<polygon fill="#03c500" stroke="black" points="103,-1419.5 103,-1511.5 405,-1511.5 405,-1419.5 103,-1419.5"/>
<text text-anchor="middle" x="161" y="-1461.8" font-family="Times,serif" font-size="14.00">Move Constructor</text>
<polyline fill="none" stroke="black" points="219,-1419.5 219,-1511.5 "/>
<text text-anchor="middle" x="266" y="-1496.3" font-family="Times,serif" font-size="14.00">d</text>
<polyline fill="none" stroke="black" points="219,-1488.5 313,-1488.5 "/>
<text text-anchor="middle" x="266" y="-1473.3" font-family="Times,serif" font-size="14.00">#7</text>
<polyline fill="none" stroke="black" points="219,-1465.5 313,-1465.5 "/>
<text text-anchor="middle" x="266" y="-1450.3" font-family="Times,serif" font-size="14.00">0x16F4030B8</text>
<polyline fill="none" stroke="black" points="219,-1442.5 313,-1442.5 "/>
<text text-anchor="middle" x="266" y="-1427.3" font-family="Times,serif" font-size="14.00">value = 13</text>
<polyline fill="none" stroke="black" points="313,-1419.5 313,-1511.5 "/>
<text text-anchor="middle" x="359" y="-1496.3" font-family="Times,serif" font-size="14.00">res</text>
<polyline fill="none" stroke="black" points="313,-1488.5 405,-1488.5 "/>
<text text-anchor="middle" x="359" y="-1473.3" font-family="Times,serif" font-size="14.00">#6</text>
<polyline fill="none" stroke="black" points="313,-1465.5 405,-1465.5 "/>
<text text-anchor="middle" x="359" y="-1450.3" font-family="Times,serif" font-size="14.00">0x16F403090</text>
<polyline fill="none" stroke="black" points="313,-1442.5 405,-1442.5 "/>
<text text-anchor="middle" x="359" y="-1427.3" font-family="Times,serif" font-size="14.00">value = 0</text>
</g>
<!-- Node_12&#45;&gt;Node_13 -->
<g id="edge19" class="edge">
<title>Node_12&#45;&gt;Node_13</title>
<path fill="none" stroke="blue" d="M254,-1548.37C254,-1539.86 254,-1530.87 254,-1522.09"/>
<polygon fill="blue" stroke="blue" points="257.5,-1521.92 254,-1511.92 250.5,-1521.92 257.5,-1521.92"/>
</g>
<!-- Node_14 -->
<g id="node14" class="node">
<title>Node_14</title>
<path fill="#ffded7" stroke="black" d="M183,-1290.5C183,-1290.5 325,-1290.5 325,-1290.5 331,-1290.5 337,-1296.5 337,-1302.5 337,-1302.5 337,-1370.5 337,-1370.5 337,-1376.5 331,-1382.5 325,-1382.5 325,-1382.5 183,-1382.5 183,-1382.5 177,-1382.5 171,-1376.5 171,-1370.5 171,-1370.5 171,-1302.5 171,-1302.5 171,-1296.5 177,-1290.5 183,-1290.5"/>
<text text-anchor="middle" x="208" y="-1332.8" font-family="Times,serif" font-size="14.00">Destructor</text>
<polyline fill="none" stroke="black" points="245,-1290.5 245,-1382.5 "/>
<text text-anchor="middle" x="291" y="-1367.3" font-family="Times,serif" font-size="14.00">res</text>
<polyline fill="none" stroke="black" points="245,-1359.5 337,-1359.5 "/>
<text text-anchor="middle" x="291" y="-1344.3" font-family="Times,serif" font-size="14.00">#6</text>
<polyline fill="none" stroke="black" points="245,-1336.5 337,-1336.5 "/>
<text text-anchor="middle" x="291" y="-1321.3" font-family="Times,serif" font-size="14.00">0x16F403090</text>
<polyline fill="none" stroke="black" points="245,-1313.5 337,-1313.5 "/>
<text text-anchor="middle" x="291" y="-1298.3" font-family="Times,serif" font-size="14.00">value = 0</text>
</g>
<!-- Node_13&#45;&gt;Node_14 -->
<g id="edge20" class="edge">
<title>Node_13&#45;&gt;Node_14</title>
<path fill="none" stroke="blue" d="M254,-1419.37C254,-1410.86 254,-1401.87 254,-1393.09"/>
<polygon fill="blue" stroke="blue" points="257.5,-1392.92 254,-1382.92 250.5,-1392.92 257.5,-1392.92"/>
</g>
<!-- Node_14&#45;&gt;Node_10 -->
<g id="edge21" class="edge">
<title>Node_14:f1&#45;&gt;Node_10:f1</title>
<path fill="none" stroke="grey" stroke-dasharray="5,2" d="M338,-1371.5C377.83,-1371.5 394.69,-1384.16 414,-1419 517.33,-1605.44 556.12,-1749.18 404,-1898.5 394.77,-1907.56 302.87,-1912.96 274.38,-1905.22"/>
<polygon fill="grey" stroke="grey" points="276.23,-1902.24 266,-1899.5 272.29,-1908.03 276.23,-1902.24"/>
</g>
<!-- Node_15 -->
<g id="node15" class="node">
<title>Node_15</title>
<polygon fill="darkcyan" stroke="black" points="168,-1161.5 168,-1253.5 340,-1253.5 340,-1161.5 168,-1161.5"/>
<text text-anchor="middle" x="208" y="-1203.8" font-family="Times,serif" font-size="14.00">Constructor</text>
<polyline fill="none" stroke="black" points="248,-1161.5 248,-1253.5 "/>
<text text-anchor="middle" x="294" y="-1238.3" font-family="Times,serif" font-size="14.00">val</text>
<polyline fill="none" stroke="black" points="248,-1230.5 340,-1230.5 "/>
<text text-anchor="middle" x="294" y="-1215.3" font-family="Times,serif" font-size="14.00">#8</text>
<polyline fill="none" stroke="black" points="248,-1207.5 340,-1207.5 "/>
<text text-anchor="middle" x="294" y="-1192.3" font-family="Times,serif" font-size="14.00">0x16F403028</text>
<polyline fill="none" stroke="black" points="248,-1184.5 340,-1184.5 "/>
<text text-anchor="middle" x="294" y="-1169.3" font-family="Times,serif" font-size="14.00">value = 10</text>
</g>
<!-- Node_14&#45;&gt;Node_15 -->
<g id="edge22" class="edge">
<title>Node_14&#45;&gt;Node_15</title>
<path fill="none" stroke="blue" d="M254,-1290.37C254,-1281.86 254,-1272.87 254,-1264.09"/>
<polygon fill="blue" stroke="blue" points="257.5,-1263.92 254,-1253.92 250.5,-1263.92 257.5,-1263.92"/>
</g>
<!-- Node_16 -->
<g id="node16" class="node">
<title>Node_16</title>
<path fill="Yellow" stroke="black" d="M144.5,-1032.5C144.5,-1032.5 363.5,-1032.5 363.5,-1032.5 369.5,-1032.5 375.5,-1038.5 375.5,-1044.5 375.5,-1044.5 375.5,-1112.5 375.5,-1112.5 375.5,-1118.5 369.5,-1124.5 363.5,-1124.5 363.5,-1124.5 144.5,-1124.5 144.5,-1124.5 138.5,-1124.5 132.5,-1118.5 132.5,-1112.5 132.5,-1112.5 132.5,-1044.5 132.5,-1044.5 132.5,-1038.5 138.5,-1032.5 144.5,-1032.5"/>
<text text-anchor="middle" x="162" y="-1074.8" font-family="Times,serif" font-size="14.00">[BIN] *</text>
<polyline fill="none" stroke="black" points="191.5,-1032.5 191.5,-1124.5 "/>
<text text-anchor="middle" x="237.5" y="-1109.3" font-family="Times,serif" font-size="14.00">b</text>
<polyline fill="none" stroke="black" points="191.5,-1101.5 283.5,-1101.5 "/>
<text text-anchor="middle" x="237.5" y="-1086.3" font-family="Times,serif" font-size="14.00">#1</text>
<polyline fill="none" stroke="black" points="191.5,-1078.5 283.5,-1078.5 "/>
<text text-anchor="middle" x="237.5" y="-1063.3" font-family="Times,serif" font-size="14.00">0x16F403160</text>
<polyline fill="none" stroke="black" points="191.5,-1055.5 283.5,-1055.5 "/>
<text text-anchor="middle" x="237.5" y="-1040.3" font-family="Times,serif" font-size="14.00">value = 2</text>
<polyline fill="none" stroke="black" points="283.5,-1032.5 283.5,-1124.5 "/>
<text text-anchor="middle" x="329.5" y="-1109.3" font-family="Times,serif" font-size="14.00">val</text>
<polyline fill="none" stroke="black" points="283.5,-1101.5 375.5,-1101.5 "/>
<text text-anchor="middle" x="329.5" y="-1086.3" font-family="Times,serif" font-size="14.00">#8</text>
<polyline fill="none" stroke="black" points="283.5,-1078.5 375.5,-1078.5 "/>
<text text-anchor="middle" x="329.5" y="-1063.3" font-family="Times,serif" font-size="14.00">0x16F403028</text>
<polyline fill="none" stroke="black" points="283.5,-1055.5 375.5,-1055.5 "/>
<text text-anchor="middle" x="329.5" y="-1040.3" font-family="Times,serif" font-size="14.00">value = 10</text>
</g>
<!-- Node_15&#45;&gt;Node_16 -->
<g id="edge23" class="edge">
<title>Node_15&#45;&gt;Node_16</title>
<path fill="none" stroke="blue" d="M254,-1161.37C254,-1152.86 254,-1143.87 254,-1135.09"/>
<polygon fill="blue" stroke="blue" points="257.5,-1134.92 254,-1124.92 250.5,-1134.92 257.5,-1134.92"/>
</g>
<!-- Node_16&#45;&gt;Node_2 -->
<g id="edge24" class="edge">
<title>Node_16:f1&#45;&gt;Node_2:f1</title>
<path fill="none" stroke="grey" stroke-dasharray="5,2" d="M237,-1125C237,-1163.18 188.24,-1136.45 159,-1161 86.72,-1221.69 38,-1241.12 38,-1335.5 38,-2627.5 38,-2627.5 38,-2627.5 38,-2721.88 80.08,-2750.25 159,-2802 227.59,-2846.98 287.97,-2774.6 340,-2838 366.08,-2869.78 368.75,-2901.12 340,-2930.5 328.71,-2942.03 306.6,-2948.72 297.77,-2940.98"/>
<polygon fill="grey" stroke="grey" points="300.95,-2939.5 294,-2931.5 294.44,-2942.09 300.95,-2939.5"/>
</g>
<!-- Node_16&#45;&gt;Node_15 -->
<g id="edge25" class="edge">
<title>Node_16:f2&#45;&gt;Node_15:f1</title>
<path fill="none" stroke="gray" stroke-dasharray="5,2" d="M330,-1125C330,-1141.61 337.76,-1144.55 340,-1161 345.55,-1201.73 368.75,-1224.12 340,-1253.5 328.71,-1265.03 306.6,-1271.72 297.77,-1263.98"/>
<polygon fill="gray" stroke="gray" points="300.95,-1262.5 294,-1254.5 294.44,-1265.09 300.95,-1262.5"/>
</g>
<!-- Node_17 -->
<g id="node17" class="node">
<title>Node_17</title>
<polygon fill="darkcyan" stroke="black" points="168,-903.5 168,-995.5 340,-995.5 340,-903.5 168,-903.5"/>
<text text-anchor="middle" x="208" y="-945.8" font-family="Times,serif" font-size="14.00">Constructor</text>
<polyline fill="none" stroke="black" points="248,-903.5 248,-995.5 "/>
<text text-anchor="middle" x="294" y="-980.3" font-family="Times,serif" font-size="14.00">tmp_3</text>
<polyline fill="none" stroke="black" points="248,-972.5 340,-972.5 "/>
<text text-anchor="middle" x="294" y="-957.3" font-family="Times,serif" font-size="14.00">#9</text>
<polyline fill="none" stroke="black" points="248,-949.5 340,-949.5 "/>
<text text-anchor="middle" x="294" y="-934.3" font-family="Times,serif" font-size="14.00">0x16F403050</text>
<polyline fill="none" stroke="black" points="248,-926.5 340,-926.5 "/>
<text text-anchor="middle" x="294" y="-911.3" font-family="Times,serif" font-size="14.00">value = 20</text>
</g>
<!-- Node_16&#45;&gt;Node_17 -->
<g id="edge26" class="edge">
<title>Node_16&#45;&gt;Node_17</title>
<path fill="none" stroke="blue" d="M254,-1032.37C254,-1023.86 254,-1014.87 254,-1006.09"/>
<polygon fill="blue" stroke="blue" points="257.5,-1005.92 254,-995.92 250.5,-1005.92 257.5,-1005.92"/>
</g>
<!-- Node_18 -->
<g id="node18" class="node">
<title>Node_18</title>
<path fill="#03c500" stroke="black" d="M134,-774.5C134,-774.5 374,-774.5 374,-774.5 380,-774.5 386,-780.5 386,-786.5 386,-786.5 386,-854.5 386,-854.5 386,-860.5 380,-866.5 374,-866.5 374,-866.5 134,-866.5 134,-866.5 128,-866.5 122,-860.5 122,-854.5 122,-854.5 122,-786.5 122,-786.5 122,-780.5 128,-774.5 134,-774.5"/>
<text text-anchor="middle" x="161" y="-816.8" font-family="Times,serif" font-size="14.00">[MOVE] =</text>
<polyline fill="none" stroke="black" points="200,-774.5 200,-866.5 "/>
<text text-anchor="middle" x="247" y="-851.3" font-family="Times,serif" font-size="14.00">a</text>
<polyline fill="none" stroke="black" points="200,-843.5 294,-843.5 "/>
<text text-anchor="middle" x="247" y="-828.3" font-family="Times,serif" font-size="14.00">#0</text>
<polyline fill="none" stroke="black" points="200,-820.5 294,-820.5 "/>
<text text-anchor="middle" x="247" y="-805.3" font-family="Times,serif" font-size="14.00">0x16F4031B0</text>
<polyline fill="none" stroke="black" points="200,-797.5 294,-797.5 "/>
<text text-anchor="middle" x="247" y="-782.3" font-family="Times,serif" font-size="14.00">value = 1</text>
<polyline fill="none" stroke="black" points="294,-774.5 294,-866.5 "/>
<text text-anchor="middle" x="340" y="-851.3" font-family="Times,serif" font-size="14.00">tmp_3</text>
<polyline fill="none" stroke="black" points="294,-843.5 386,-843.5 "/>
<text text-anchor="middle" x="340" y="-828.3" font-family="Times,serif" font-size="14.00">#9</text>
<polyline fill="none" stroke="black" points="294,-820.5 386,-820.5 "/>
<text text-anchor="middle" x="340" y="-805.3" font-family="Times,serif" font-size="14.00">0x16F403050</text>
<polyline fill="none" stroke="black" points="294,-797.5 386,-797.5 "/>
<text text-anchor="middle" x="340" y="-782.3" font-family="Times,serif" font-size="14.00">value = 20</text>
</g>
<!-- Node_17&#45;&gt;Node_18 -->
<g id="edge27" class="edge">
<title>Node_17&#45;&gt;Node_18</title>
<path fill="none" stroke="blue" d="M254,-903.37C254,-894.86 254,-885.87 254,-877.09"/>
<polygon fill="blue" stroke="blue" points="257.5,-876.92 254,-866.92 250.5,-876.92 257.5,-876.92"/>
</g>
<!-- Node_18&#45;&gt;Node_1 -->
<g id="edge28" class="edge">
<title>Node_18:f1&#45;&gt;Node_1:f1</title>
<path fill="none" stroke="grey" stroke-dasharray="5,2" d="M247,-867C247,-909.26 193.63,-878.79 159,-903 73.01,-963.11 0,-972.58 0,-1077.5 0,-2756.5 0,-2756.5 0,-2756.5 0,-2842.19 13,-2880.18 82,-2931 175.58,-2999.92 264.69,-2879.35 341,-2967 367.99,-2998.01 369.76,-3030.12 341,-3059.5 329.35,-3071.4 306.42,-3078.24 297.59,-3069.95"/>
<polygon fill="grey" stroke="grey" points="300.82,-3068.61 294,-3060.5 294.28,-3071.09 300.82,-3068.61"/>
</g>
<!-- Node_18&#45;&gt;Node_17 -->
<g id="edge29" class="edge">
<title>Node_18:f2&#45;&gt;Node_17:f1</title>
<path fill="none" stroke="gray" stroke-dasharray="5,2" d="M340,-867C340,-924.11 379.94,-954.68 340,-995.5 328.71,-1007.03 306.6,-1013.72 297.77,-1005.98"/>
<polygon fill="gray" stroke="gray" points="300.95,-1004.5 294,-996.5 294.44,-1007.09 300.95,-1004.5"/>
</g>
<!-- Node_19 -->
<g id="node19" class="node">
<title>Node_19</title>
<path fill="#ffded7" stroke="black" d="M183,-645.5C183,-645.5 325,-645.5 325,-645.5 331,-645.5 337,-651.5 337,-657.5 337,-657.5 337,-725.5 337,-725.5 337,-731.5 331,-737.5 325,-737.5 325,-737.5 183,-737.5 183,-737.5 177,-737.5 171,-731.5 171,-725.5 171,-725.5 171,-657.5 171,-657.5 171,-651.5 177,-645.5 183,-645.5"/>
<text text-anchor="middle" x="208" y="-687.8" font-family="Times,serif" font-size="14.00">Destructor</text>
<polyline fill="none" stroke="black" points="245,-645.5 245,-737.5 "/>
<text text-anchor="middle" x="291" y="-722.3" font-family="Times,serif" font-size="14.00">tmp_3</text>
<polyline fill="none" stroke="black" points="245,-714.5 337,-714.5 "/>
<text text-anchor="middle" x="291" y="-699.3" font-family="Times,serif" font-size="14.00">#9</text>
<polyline fill="none" stroke="black" points="245,-691.5 337,-691.5 "/>
<text text-anchor="middle" x="291" y="-676.3" font-family="Times,serif" font-size="14.00">0x16F403050</text>
<polyline fill="none" stroke="black" points="245,-668.5 337,-668.5 "/>
<text text-anchor="middle" x="291" y="-653.3" font-family="Times,serif" font-size="14.00">value = 0</text>
</g>
<!-- Node_18&#45;&gt;Node_19 -->
<g id="edge30" class="edge">
<title>Node_18&#45;&gt;Node_19</title>
<path fill="none" stroke="blue" d="M254,-774.37C254,-765.86 254,-756.87 254,-748.09"/>
<polygon fill="blue" stroke="blue" points="257.5,-747.92 254,-737.92 250.5,-747.92 257.5,-747.92"/>
</g>
<!-- Node_19&#45;&gt;Node_17 -->
<g id="edge31" class="edge">
<title>Node_19:f1&#45;&gt;Node_17:f1</title>
<path fill="none" stroke="grey" stroke-dasharray="5,2" d="M338,-726.5C449.2,-726.5 455.39,-969.12 351.09,-983.8"/>
<polygon fill="grey" stroke="grey" points="350.74,-980.32 341,-984.5 351.22,-987.3 350.74,-980.32"/>
</g>
<!-- Node_20 -->
<g id="node20" class="node">
<title>Node_20</title>
<path fill="#ffded7" stroke="black" d="M183,-516.5C183,-516.5 325,-516.5 325,-516.5 331,-516.5 337,-522.5 337,-528.5 337,-528.5 337,-596.5 337,-596.5 337,-602.5 331,-608.5 325,-608.5 325,-608.5 183,-608.5 183,-608.5 177,-608.5 171,-602.5 171,-596.5 171,-596.5 171,-528.5 171,-528.5 171,-522.5 177,-516.5 183,-516.5"/>
<text text-anchor="middle" x="208" y="-558.8" font-family="Times,serif" font-size="14.00">Destructor</text>
<polyline fill="none" stroke="black" points="245,-516.5 245,-608.5 "/>
<text text-anchor="middle" x="291" y="-593.3" font-family="Times,serif" font-size="14.00">val</text>
<polyline fill="none" stroke="black" points="245,-585.5 337,-585.5 "/>
<text text-anchor="middle" x="291" y="-570.3" font-family="Times,serif" font-size="14.00">#8</text>
<polyline fill="none" stroke="black" points="245,-562.5 337,-562.5 "/>
<text text-anchor="middle" x="291" y="-547.3" font-family="Times,serif" font-size="14.00">0x16F403028</text>
<polyline fill="none" stroke="black" points="245,-539.5 337,-539.5 "/>
<text text-anchor="middle" x="291" y="-524.3" font-family="Times,serif" font-size="14.00">value = 10</text>
</g>
<!-- Node_19&#45;&gt;Node_20 -->
<g id="edge32" class="edge">
<title>Node_19&#45;&gt;Node_20</title>
<path fill="none" stroke="blue" d="M254,-645.37C254,-636.86 254,-627.87 254,-619.09"/>
<polygon fill="blue" stroke="blue" points="257.5,-618.92 254,-608.92 250.5,-618.92 257.5,-618.92"/>
</g>
<!-- Node_20&#45;&gt;Node_15 -->
<g id="edge33" class="edge">
<title>Node_20:f1&#45;&gt;Node_15:f1</title>
<path fill="none" stroke="grey" stroke-dasharray="5,2" d="M338,-597.5C472.13,-597.5 452,-744.01 452,-819.5 452,-950.5 452,-950.5 452,-950.5 452,-1085.81 478.44,-1234.73 351.26,-1242.21"/>
<polygon fill="grey" stroke="grey" points="350.9,-1238.72 341,-1242.5 351.1,-1245.71 350.9,-1238.72"/>
</g>
<!-- Node_21 -->
<g id="node21" class="node">
<title>Node_21</title>
<path fill="#ffded7" stroke="black" d="M182,-387.5C182,-387.5 326,-387.5 326,-387.5 332,-387.5 338,-393.5 338,-399.5 338,-399.5 338,-467.5 338,-467.5 338,-473.5 332,-479.5 326,-479.5 326,-479.5 182,-479.5 182,-479.5 176,-479.5 170,-473.5 170,-467.5 170,-467.5 170,-399.5 170,-399.5 170,-393.5 176,-387.5 182,-387.5"/>
<text text-anchor="middle" x="207" y="-429.8" font-family="Times,serif" font-size="14.00">Destructor</text>
<polyline fill="none" stroke="black" points="244,-387.5 244,-479.5 "/>
<text text-anchor="middle" x="291" y="-464.3" font-family="Times,serif" font-size="14.00">d</text>
<polyline fill="none" stroke="black" points="244,-456.5 338,-456.5 "/>
<text text-anchor="middle" x="291" y="-441.3" font-family="Times,serif" font-size="14.00">#7</text>
<polyline fill="none" stroke="black" points="244,-433.5 338,-433.5 "/>
<text text-anchor="middle" x="291" y="-418.3" font-family="Times,serif" font-size="14.00">0x16F4030B8</text>
<polyline fill="none" stroke="black" points="244,-410.5 338,-410.5 "/>
<text text-anchor="middle" x="291" y="-395.3" font-family="Times,serif" font-size="14.00">value = 13</text>
</g>
<!-- Node_20&#45;&gt;Node_21 -->
<g id="edge34" class="edge">
<title>Node_20&#45;&gt;Node_21</title>
<path fill="none" stroke="blue" d="M254,-516.37C254,-507.86 254,-498.87 254,-490.09"/>
<polygon fill="blue" stroke="blue" points="257.5,-489.92 254,-479.92 250.5,-489.92 257.5,-489.92"/>
</g>
<!-- Node_21&#45;&gt;Node_13 -->
<g id="edge35" class="edge">
<title>Node_21:f1&#45;&gt;Node_13:f1</title>
<path fill="none" stroke="grey" stroke-dasharray="5,2" d="M339,-468.5C458.33,-468.5 490,-571.17 490,-690.5 490,-1208.5 490,-1208.5 490,-1208.5 490,-1348.37 516.15,-1426.61 405,-1511.5 394.64,-1519.41 302.81,-1525.68 274.36,-1518.17"/>
<polygon fill="grey" stroke="grey" points="276.24,-1515.21 266,-1512.5 272.31,-1521.01 276.24,-1515.21"/>
</g>
<!-- Node_22 -->
<g id="node22" class="node">
<title>Node_22</title>
<path fill="#ffded7" stroke="black" d="M183,-258.5C183,-258.5 325,-258.5 325,-258.5 331,-258.5 337,-264.5 337,-270.5 337,-270.5 337,-338.5 337,-338.5 337,-344.5 331,-350.5 325,-350.5 325,-350.5 183,-350.5 183,-350.5 177,-350.5 171,-344.5 171,-338.5 171,-338.5 171,-270.5 171,-270.5 171,-264.5 177,-258.5 183,-258.5"/>
<text text-anchor="middle" x="208" y="-300.8" font-family="Times,serif" font-size="14.00">Destructor</text>
<polyline fill="none" stroke="black" points="245,-258.5 245,-350.5 "/>
<text text-anchor="middle" x="291" y="-335.3" font-family="Times,serif" font-size="14.00">c</text>
<polyline fill="none" stroke="black" points="245,-327.5 337,-327.5 "/>
<text text-anchor="middle" x="291" y="-312.3" font-family="Times,serif" font-size="14.00">#3</text>
<polyline fill="none" stroke="black" points="245,-304.5 337,-304.5 "/>
<text text-anchor="middle" x="291" y="-289.3" font-family="Times,serif" font-size="14.00">0x16F403120</text>
<polyline fill="none" stroke="black" points="245,-281.5 337,-281.5 "/>
<text text-anchor="middle" x="291" y="-266.3" font-family="Times,serif" font-size="14.00">value = 10</text>
</g>
<!-- Node_21&#45;&gt;Node_22 -->
<g id="edge36" class="edge">
<title>Node_21&#45;&gt;Node_22</title>
<path fill="none" stroke="blue" d="M254,-387.37C254,-378.86 254,-369.87 254,-361.09"/>
<polygon fill="blue" stroke="blue" points="257.5,-360.92 254,-350.92 250.5,-360.92 257.5,-360.92"/>
</g>
<!-- Node_22&#45;&gt;Node_4 -->
<g id="edge37" class="edge">
<title>Node_22:f1&#45;&gt;Node_4:f1</title>
<path fill="none" stroke="grey" stroke-dasharray="5,2" d="M338,-339.5C467.87,-339.5 528,-431.63 528,-561.5 528,-2369.5 528,-2369.5 528,-2369.5 528,-2515.01 530.34,-2600.31 404,-2672.5 380.6,-2685.87 291.73,-2700.2 270.55,-2682.65"/>
<polygon fill="grey" stroke="grey" points="273.59,-2680.9 266,-2673.5 267.32,-2684.01 273.59,-2680.9"/>
</g>
<!-- Node_23 -->
<g id="node23" class="node">
<title>Node_23</title>
<path fill="#ffded7" stroke="black" d="M183,-129.5C183,-129.5 325,-129.5 325,-129.5 331,-129.5 337,-135.5 337,-141.5 337,-141.5 337,-209.5 337,-209.5 337,-215.5 331,-221.5 325,-221.5 325,-221.5 183,-221.5 183,-221.5 177,-221.5 171,-215.5 171,-209.5 171,-209.5 171,-141.5 171,-141.5 171,-135.5 177,-129.5 183,-129.5"/>
<text text-anchor="middle" x="208" y="-171.8" font-family="Times,serif" font-size="14.00">Destructor</text>
<polyline fill="none" stroke="black" points="245,-129.5 245,-221.5 "/>
<text text-anchor="middle" x="291" y="-206.3" font-family="Times,serif" font-size="14.00">b</text>
<polyline fill="none" stroke="black" points="245,-198.5 337,-198.5 "/>
<text text-anchor="middle" x="291" y="-183.3" font-family="Times,serif" font-size="14.00">#1</text>
<polyline fill="none" stroke="black" points="245,-175.5 337,-175.5 "/>
<text text-anchor="middle" x="291" y="-160.3" font-family="Times,serif" font-size="14.00">0x16F403160</text>
<polyline fill="none" stroke="black" points="245,-152.5 337,-152.5 "/>
<text text-anchor="middle" x="291" y="-137.3" font-family="Times,serif" font-size="14.00">value = 2</text>
</g>
<!-- Node_22&#45;&gt;Node_23 -->
<g id="edge38" class="edge">
<title>Node_22&#45;&gt;Node_23</title>
<path fill="none" stroke="blue" d="M254,-258.37C254,-249.86 254,-240.87 254,-232.09"/>
<polygon fill="blue" stroke="blue" points="257.5,-231.92 254,-221.92 250.5,-231.92 257.5,-231.92"/>
</g>
<!-- Node_23&#45;&gt;Node_2 -->
<g id="edge39" class="edge">
<title>Node_23:f1&#45;&gt;Node_2:f1</title>
<path fill="none" stroke="grey" stroke-dasharray="5,2" d="M338,-210.5C479.43,-210.5 566,-291.07 566,-432.5 566,-2627.5 566,-2627.5 566,-2627.5 566,-2787.82 507.44,-2913.98 351.42,-2919.32"/>
<polygon fill="grey" stroke="grey" points="350.94,-2915.83 341,-2919.5 351.06,-2922.83 350.94,-2915.83"/>
</g>
<!-- Node_24 -->
<g id="node24" class="node">
<title>Node_24</title>
<path fill="#ffded7" stroke="black" d="M182,-0.5C182,-0.5 326,-0.5 326,-0.5 332,-0.5 338,-6.5 338,-12.5 338,-12.5 338,-80.5 338,-80.5 338,-86.5 332,-92.5 326,-92.5 326,-92.5 182,-92.5 182,-92.5 176,-92.5 170,-86.5 170,-80.5 170,-80.5 170,-12.5 170,-12.5 170,-6.5 176,-0.5 182,-0.5"/>
<text text-anchor="middle" x="207" y="-42.8" font-family="Times,serif" font-size="14.00">Destructor</text>
<polyline fill="none" stroke="black" points="244,-0.5 244,-92.5 "/>
<text text-anchor="middle" x="291" y="-77.3" font-family="Times,serif" font-size="14.00">a</text>
<polyline fill="none" stroke="black" points="244,-69.5 338,-69.5 "/>
<text text-anchor="middle" x="291" y="-54.3" font-family="Times,serif" font-size="14.00">#0</text>
<polyline fill="none" stroke="black" points="244,-46.5 338,-46.5 "/>
<text text-anchor="middle" x="291" y="-31.3" font-family="Times,serif" font-size="14.00">0x16F4031B0</text>
<polyline fill="none" stroke="black" points="244,-23.5 338,-23.5 "/>
<text text-anchor="middle" x="291" y="-8.3" font-family="Times,serif" font-size="14.00">value = 20</text>
</g>
<!-- Node_23&#45;&gt;Node_24 -->
<g id="edge40" class="edge">
<title>Node_23&#45;&gt;Node_24</title>
<path fill="none" stroke="blue" d="M254,-129.37C254,-120.86 254,-111.87 254,-103.09"/>
<polygon fill="blue" stroke="blue" points="257.5,-102.92 254,-92.92 250.5,-102.92 257.5,-102.92"/>
</g>
<!-- Node_24&#45;&gt;Node_1 -->
<g id="edge41" class="edge">
<title>Node_24:f1&#45;&gt;Node_1:f1</title>
<path fill="none" stroke="grey" stroke-dasharray="5,2" d="M339,-81.5C492.64,-81.5 604,-149.86 604,-303.5 604,-2756.5 604,-2756.5 604,-2756.5 604,-2927.46 519.75,-3043.88 352.12,-3048.37"/>
<polygon fill="grey" stroke="grey" points="351.95,-3044.87 342,-3048.5 352.05,-3051.87 351.95,-3044.87"/>
</g>
</g>
</svg>
