<?xml version="1.0" encoding="UTF-8" standalone="no"?>
<!DOCTYPE svg PUBLIC "-//W3C//DTD SVG 1.1//EN"
 "http://www.w3.org/Graphics/SVG/1.1/DTD/svg11.dtd">
<!-- Generated by graphviz version 2.50.0 (20211204.2007)
 -->
<!-- Title: G Pages: 1 -->
<svg width="424pt" height="1406pt"
 viewBox="0.00 0.00 424.00 1405.73" xmlns="http://www.w3.org/2000/svg" xmlns:xlink="http://www.w3.org/1999/xlink">
<g id="graph0" class="graph" transform="scale(1 1) rotate(0) translate(4 1401.73)">
<title>G</title>
<polygon fill="white" stroke="transparent" points="-4,4 -4,-1401.73 420,-1401.73 420,4 -4,4"/>
<!-- Node_1 -->
<g id="node1" class="node">
<title>Node_1</title>
<polygon fill="darkcyan" stroke="black" points="66,-1290.5 66,-1382.5 246,-1382.5 246,-1290.5 66,-1290.5"/>
<text text-anchor="middle" x="106" y="-1332.8" font-family="Times,serif" font-size="14.00">Constructor</text>
<polyline fill="none" stroke="black" points="146,-1290.5 146,-1382.5 "/>
<text text-anchor="middle" x="196" y="-1367.3" font-family="Times,serif" font-size="14.00">a</text>
<polyline fill="none" stroke="black" points="146,-1359.5 246,-1359.5 "/>
<text text-anchor="middle" x="196" y="-1344.3" font-family="Times,serif" font-size="14.00">#0</text>
<polyline fill="none" stroke="black" points="146,-1336.5 246,-1336.5 "/>
<text text-anchor="middle" x="196" y="-1321.3" font-family="Times,serif" font-size="14.00">0x16AE8B1B0</text>
<polyline fill="none" stroke="black" points="146,-1313.5 246,-1313.5 "/>
<text text-anchor="middle" x="196" y="-1298.3" font-family="Times,serif" font-size="14.00">value = 0</text>
</g>
<!-- Node_2 -->
<g id="node2" class="node">
<title>Node_2</title>
<polygon fill="darkcyan" stroke="black" points="67,-1161.5 67,-1253.5 245,-1253.5 245,-1161.5 67,-1161.5"/>
<text text-anchor="middle" x="107" y="-1203.8" font-family="Times,serif" font-size="14.00">Constructor</text>
<polyline fill="none" stroke="black" points="147,-1161.5 147,-1253.5 "/>
<text text-anchor="middle" x="196" y="-1238.3" font-family="Times,serif" font-size="14.00">b</text>
<polyline fill="none" stroke="black" points="147,-1230.5 245,-1230.5 "/>
<text text-anchor="middle" x="196" y="-1215.3" font-family="Times,serif" font-size="14.00">#1</text>
<polyline fill="none" stroke="black" points="147,-1207.5 245,-1207.5 "/>
<text text-anchor="middle" x="196" y="-1192.3" font-family="Times,serif" font-size="14.00">0x16AE8B160</text>
<polyline fill="none" stroke="black" points="147,-1184.5 245,-1184.5 "/>
<text text-anchor="middle" x="196" y="-1169.3" font-family="Times,serif" font-size="14.00">value = 0</text>
</g>
<!-- Node_1&#45;&gt;Node_2 -->
<g id="edge1" class="edge">
<title>Node_1&#45;&gt;Node_2</title>
<path fill="none" stroke="blue" d="M156,-1290.37C156,-1281.86 156,-1272.87 156,-1264.09"/>
<polygon fill="blue" stroke="blue" points="159.5,-1263.92 156,-1253.92 152.5,-1263.92 159.5,-1263.92"/>
</g>
<!-- Node_3 -->
<g id="node3" class="node">
<title>Node_3</title>
<path fill="Yellow" stroke="black" d="M38.5,-1032.5C38.5,-1032.5 273.5,-1032.5 273.5,-1032.5 279.5,-1032.5 285.5,-1038.5 285.5,-1044.5 285.5,-1044.5 285.5,-1112.5 285.5,-1112.5 285.5,-1118.5 279.5,-1124.5 273.5,-1124.5 273.5,-1124.5 38.5,-1124.5 38.5,-1124.5 32.5,-1124.5 26.5,-1118.5 26.5,-1112.5 26.5,-1112.5 26.5,-1044.5 26.5,-1044.5 26.5,-1038.5 32.5,-1032.5 38.5,-1032.5"/>
<text text-anchor="middle" x="57" y="-1074.8" font-family="Times,serif" font-size="14.00">[BIN] +</text>
<polyline fill="none" stroke="black" points="87.5,-1032.5 87.5,-1124.5 "/>
<text text-anchor="middle" x="137.5" y="-1109.3" font-family="Times,serif" font-size="14.00">a</text>
<polyline fill="none" stroke="black" points="87.5,-1101.5 187.5,-1101.5 "/>
<text text-anchor="middle" x="137.5" y="-1086.3" font-family="Times,serif" font-size="14.00">#0</text>
<polyline fill="none" stroke="black" points="87.5,-1078.5 187.5,-1078.5 "/>
<text text-anchor="middle" x="137.5" y="-1063.3" font-family="Times,serif" font-size="14.00">0x16AE8B1B0</text>
<polyline fill="none" stroke="black" points="87.5,-1055.5 187.5,-1055.5 "/>
<text text-anchor="middle" x="137.5" y="-1040.3" font-family="Times,serif" font-size="14.00">value = 0</text>
<polyline fill="none" stroke="black" points="187.5,-1032.5 187.5,-1124.5 "/>
<text text-anchor="middle" x="236.5" y="-1109.3" font-family="Times,serif" font-size="14.00">b</text>
<polyline fill="none" stroke="black" points="187.5,-1101.5 285.5,-1101.5 "/>
<text text-anchor="middle" x="236.5" y="-1086.3" font-family="Times,serif" font-size="14.00">#1</text>
<polyline fill="none" stroke="black" points="187.5,-1078.5 285.5,-1078.5 "/>
<text text-anchor="middle" x="236.5" y="-1063.3" font-family="Times,serif" font-size="14.00">0x16AE8B160</text>
<polyline fill="none" stroke="black" points="187.5,-1055.5 285.5,-1055.5 "/>
<text text-anchor="middle" x="236.5" y="-1040.3" font-family="Times,serif" font-size="14.00">value = 0</text>
</g>
<!-- Node_2&#45;&gt;Node_3 -->
<g id="edge2" class="edge">
<title>Node_2&#45;&gt;Node_3</title>
<path fill="none" stroke="blue" d="M156,-1161.37C156,-1152.86 156,-1143.87 156,-1135.09"/>
<polygon fill="blue" stroke="blue" points="159.5,-1134.92 156,-1124.92 152.5,-1134.92 159.5,-1134.92"/>
</g>
<!-- Node_3&#45;&gt;Node_1 -->
<g id="edge3" class="edge">
<title>Node_3:f1&#45;&gt;Node_1:f1</title>
<path fill="none" stroke="grey" stroke-dasharray="5,2" d="M137,-1125C137,-1163.58 78.87,-1128.55 58,-1161 35.64,-1195.76 31.66,-1222.14 58,-1254 112.2,-1319.57 191.8,-1224.43 246,-1290 272.19,-1321.69 274.78,-1353.14 246,-1382.5 233.36,-1395.4 208.25,-1402.67 199.28,-1393.02"/>
<polygon fill="grey" stroke="grey" points="202.57,-1391.81 196,-1383.5 195.95,-1394.09 202.57,-1391.81"/>
</g>
<!-- Node_3&#45;&gt;Node_2 -->
<g id="edge4" class="edge">
<title>Node_3:f2&#45;&gt;Node_2:f1</title>
<path fill="none" stroke="gray" stroke-dasharray="5,2" d="M237,-1125C237,-1141.39 243.21,-1144.71 245,-1161 249.49,-1201.87 273.77,-1224.13 245,-1253.5 232.73,-1266.02 208.48,-1273.14 199.47,-1264.1"/>
<polygon fill="gray" stroke="gray" points="202.69,-1262.71 196,-1254.5 196.11,-1265.09 202.69,-1262.71"/>
</g>
<!-- Node_4 -->
<g id="node4" class="node">
<title>Node_4</title>
<polygon fill="darkcyan" stroke="black" points="67,-903.5 67,-995.5 245,-995.5 245,-903.5 67,-903.5"/>
<text text-anchor="middle" x="107" y="-945.8" font-family="Times,serif" font-size="14.00">Constructor</text>
<polyline fill="none" stroke="black" points="147,-903.5 147,-995.5 "/>
<text text-anchor="middle" x="196" y="-980.3" font-family="Times,serif" font-size="14.00">tmp_1</text>
<polyline fill="none" stroke="black" points="147,-972.5 245,-972.5 "/>
<text text-anchor="middle" x="196" y="-957.3" font-family="Times,serif" font-size="14.00">#2</text>
<polyline fill="none" stroke="black" points="147,-949.5 245,-949.5 "/>
<text text-anchor="middle" x="196" y="-934.3" font-family="Times,serif" font-size="14.00">0x16AE8B060</text>
<polyline fill="none" stroke="black" points="147,-926.5 245,-926.5 "/>
<text text-anchor="middle" x="196" y="-911.3" font-family="Times,serif" font-size="14.00">value = 0</text>
</g>
<!-- Node_3&#45;&gt;Node_4 -->
<g id="edge5" class="edge">
<title>Node_3&#45;&gt;Node_4</title>
<path fill="none" stroke="blue" d="M156,-1032.37C156,-1023.86 156,-1014.87 156,-1006.09"/>
<polygon fill="blue" stroke="blue" points="159.5,-1005.92 156,-995.92 152.5,-1005.92 159.5,-1005.92"/>
</g>
<!-- Node_5 -->
<g id="node5" class="node">
<title>Node_5</title>
<polygon fill="#03c500" stroke="black" points="0,-774.5 0,-866.5 312,-866.5 312,-774.5 0,-774.5"/>
<text text-anchor="middle" x="58" y="-816.8" font-family="Times,serif" font-size="14.00">Move Constructor</text>
<polyline fill="none" stroke="black" points="116,-774.5 116,-866.5 "/>
<text text-anchor="middle" x="165" y="-851.3" font-family="Times,serif" font-size="14.00">res</text>
<polyline fill="none" stroke="black" points="116,-843.5 214,-843.5 "/>
<text text-anchor="middle" x="165" y="-828.3" font-family="Times,serif" font-size="14.00">#3</text>
<polyline fill="none" stroke="black" points="116,-820.5 214,-820.5 "/>
<text text-anchor="middle" x="165" y="-805.3" font-family="Times,serif" font-size="14.00">0x16AE8B0F8</text>
<polyline fill="none" stroke="black" points="116,-797.5 214,-797.5 "/>
<text text-anchor="middle" x="165" y="-782.3" font-family="Times,serif" font-size="14.00">value = 0</text>
<polyline fill="none" stroke="black" points="214,-774.5 214,-866.5 "/>
<text text-anchor="middle" x="263" y="-851.3" font-family="Times,serif" font-size="14.00">tmp_1</text>
<polyline fill="none" stroke="black" points="214,-843.5 312,-843.5 "/>
<text text-anchor="middle" x="263" y="-828.3" font-family="Times,serif" font-size="14.00">#2</text>
<polyline fill="none" stroke="black" points="214,-820.5 312,-820.5 "/>
<text text-anchor="middle" x="263" y="-805.3" font-family="Times,serif" font-size="14.00">0x16AE8B060</text>
<polyline fill="none" stroke="black" points="214,-797.5 312,-797.5 "/>
<text text-anchor="middle" x="263" y="-782.3" font-family="Times,serif" font-size="14.00">value = 0</text>
</g>
<!-- Node_4&#45;&gt;Node_5 -->
<g id="edge6" class="edge">
<title>Node_4&#45;&gt;Node_5</title>
<path fill="none" stroke="blue" d="M156,-903.37C156,-894.86 156,-885.87 156,-877.09"/>
<polygon fill="blue" stroke="blue" points="159.5,-876.92 156,-866.92 152.5,-876.92 159.5,-876.92"/>
</g>
<!-- Node_6 -->
<g id="node6" class="node">
<title>Node_6</title>
<path fill="#ffded7" stroke="black" d="M82,-645.5C82,-645.5 230,-645.5 230,-645.5 236,-645.5 242,-651.5 242,-657.5 242,-657.5 242,-725.5 242,-725.5 242,-731.5 236,-737.5 230,-737.5 230,-737.5 82,-737.5 82,-737.5 76,-737.5 70,-731.5 70,-725.5 70,-725.5 70,-657.5 70,-657.5 70,-651.5 76,-645.5 82,-645.5"/>
<text text-anchor="middle" x="107" y="-687.8" font-family="Times,serif" font-size="14.00">Destructor</text>
<polyline fill="none" stroke="black" points="144,-645.5 144,-737.5 "/>
<text text-anchor="middle" x="193" y="-722.3" font-family="Times,serif" font-size="14.00">tmp_1</text>
<polyline fill="none" stroke="black" points="144,-714.5 242,-714.5 "/>
<text text-anchor="middle" x="193" y="-699.3" font-family="Times,serif" font-size="14.00">#2</text>
<polyline fill="none" stroke="black" points="144,-691.5 242,-691.5 "/>
<text text-anchor="middle" x="193" y="-676.3" font-family="Times,serif" font-size="14.00">0x16AE8B060</text>
<polyline fill="none" stroke="black" points="144,-668.5 242,-668.5 "/>
<text text-anchor="middle" x="193" y="-653.3" font-family="Times,serif" font-size="14.00">value = 0</text>
</g>
<!-- Node_5&#45;&gt;Node_6 -->
<g id="edge7" class="edge">
<title>Node_5&#45;&gt;Node_6</title>
<path fill="none" stroke="blue" d="M156,-774.37C156,-765.86 156,-756.87 156,-748.09"/>
<polygon fill="blue" stroke="blue" points="159.5,-747.92 156,-737.92 152.5,-747.92 159.5,-747.92"/>
</g>
<!-- Node_6&#45;&gt;Node_4 -->
<g id="edge8" class="edge">
<title>Node_6:f1&#45;&gt;Node_4:f1</title>
<path fill="none" stroke="grey" stroke-dasharray="5,2" d="M243,-726.5C283.59,-726.5 301.12,-738.61 321,-774 367.94,-857.54 346.94,-975.83 256.2,-984.05"/>
<polygon fill="grey" stroke="grey" points="255.83,-980.56 246,-984.5 256.15,-987.55 255.83,-980.56"/>
</g>
<!-- Node_7 -->
<g id="node7" class="node">
<title>Node_7</title>
<polygon fill="#03c500" stroke="black" points="0,-516.5 0,-608.5 312,-608.5 312,-516.5 0,-516.5"/>
<text text-anchor="middle" x="58" y="-558.8" font-family="Times,serif" font-size="14.00">Move Constructor</text>
<polyline fill="none" stroke="black" points="116,-516.5 116,-608.5 "/>
<text text-anchor="middle" x="165" y="-593.3" font-family="Times,serif" font-size="14.00">c</text>
<polyline fill="none" stroke="black" points="116,-585.5 214,-585.5 "/>
<text text-anchor="middle" x="165" y="-570.3" font-family="Times,serif" font-size="14.00">#4</text>
<polyline fill="none" stroke="black" points="116,-562.5 214,-562.5 "/>
<text text-anchor="middle" x="165" y="-547.3" font-family="Times,serif" font-size="14.00">0x16AE8B120</text>
<polyline fill="none" stroke="black" points="116,-539.5 214,-539.5 "/>
<text text-anchor="middle" x="165" y="-524.3" font-family="Times,serif" font-size="14.00">value = 0</text>
<polyline fill="none" stroke="black" points="214,-516.5 214,-608.5 "/>
<text text-anchor="middle" x="263" y="-593.3" font-family="Times,serif" font-size="14.00">res</text>
<polyline fill="none" stroke="black" points="214,-585.5 312,-585.5 "/>
<text text-anchor="middle" x="263" y="-570.3" font-family="Times,serif" font-size="14.00">#3</text>
<polyline fill="none" stroke="black" points="214,-562.5 312,-562.5 "/>
<text text-anchor="middle" x="263" y="-547.3" font-family="Times,serif" font-size="14.00">0x16AE8B0F8</text>
<polyline fill="none" stroke="black" points="214,-539.5 312,-539.5 "/>
<text text-anchor="middle" x="263" y="-524.3" font-family="Times,serif" font-size="14.00">value = 0</text>
</g>
<!-- Node_6&#45;&gt;Node_7 -->
<g id="edge9" class="edge">
<title>Node_6&#45;&gt;Node_7</title>
<path fill="none" stroke="blue" d="M156,-645.37C156,-636.86 156,-627.87 156,-619.09"/>
<polygon fill="blue" stroke="blue" points="159.5,-618.92 156,-608.92 152.5,-618.92 159.5,-618.92"/>
</g>
<!-- Node_8 -->
<g id="node8" class="node">
<title>Node_8</title>
<path fill="#ffded7" stroke="black" d="M82,-387.5C82,-387.5 230,-387.5 230,-387.5 236,-387.5 242,-393.5 242,-399.5 242,-399.5 242,-467.5 242,-467.5 242,-473.5 236,-479.5 230,-479.5 230,-479.5 82,-479.5 82,-479.5 76,-479.5 70,-473.5 70,-467.5 70,-467.5 70,-399.5 70,-399.5 70,-393.5 76,-387.5 82,-387.5"/>
<text text-anchor="middle" x="107" y="-429.8" font-family="Times,serif" font-size="14.00">Destructor</text>
<polyline fill="none" stroke="black" points="144,-387.5 144,-479.5 "/>
<text text-anchor="middle" x="193" y="-464.3" font-family="Times,serif" font-size="14.00">res</text>
<polyline fill="none" stroke="black" points="144,-456.5 242,-456.5 "/>
<text text-anchor="middle" x="193" y="-441.3" font-family="Times,serif" font-size="14.00">#3</text>
<polyline fill="none" stroke="black" points="144,-433.5 242,-433.5 "/>
<text text-anchor="middle" x="193" y="-418.3" font-family="Times,serif" font-size="14.00">0x16AE8B0F8</text>
<polyline fill="none" stroke="black" points="144,-410.5 242,-410.5 "/>
<text text-anchor="middle" x="193" y="-395.3" font-family="Times,serif" font-size="14.00">value = 0</text>
</g>
<!-- Node_7&#45;&gt;Node_8 -->
<g id="edge10" class="edge">
<title>Node_7&#45;&gt;Node_8</title>
<path fill="none" stroke="blue" d="M156,-516.37C156,-507.86 156,-498.87 156,-490.09"/>
<polygon fill="blue" stroke="blue" points="159.5,-489.92 156,-479.92 152.5,-489.92 159.5,-489.92"/>
</g>
<!-- Node_8&#45;&gt;Node_5 -->
<g id="edge11" class="edge">
<title>Node_8:f1&#45;&gt;Node_5:f1</title>
<path fill="none" stroke="grey" stroke-dasharray="5,2" d="M243,-468.5C283.59,-468.5 301.12,-480.61 321,-516 359.17,-583.93 367.86,-812.19 312,-866.5 302.07,-876.15 203.35,-881.9 173.5,-873.47"/>
<polygon fill="grey" stroke="grey" points="175.19,-870.38 165,-867.5 171.17,-876.11 175.19,-870.38"/>
</g>
<!-- Node_9 -->
<g id="node9" class="node">
<title>Node_9</title>
<path fill="#ffded7" stroke="black" d="M82,-258.5C82,-258.5 230,-258.5 230,-258.5 236,-258.5 242,-264.5 242,-270.5 242,-270.5 242,-338.5 242,-338.5 242,-344.5 236,-350.5 230,-350.5 230,-350.5 82,-350.5 82,-350.5 76,-350.5 70,-344.5 70,-338.5 70,-338.5 70,-270.5 70,-270.5 70,-264.5 76,-258.5 82,-258.5"/>
<text text-anchor="middle" x="107" y="-300.8" font-family="Times,serif" font-size="14.00">Destructor</text>
<polyline fill="none" stroke="black" points="144,-258.5 144,-350.5 "/>
<text text-anchor="middle" x="193" y="-335.3" font-family="Times,serif" font-size="14.00">c</text>
<polyline fill="none" stroke="black" points="144,-327.5 242,-327.5 "/>
<text text-anchor="middle" x="193" y="-312.3" font-family="Times,serif" font-size="14.00">#4</text>
<polyline fill="none" stroke="black" points="144,-304.5 242,-304.5 "/>
<text text-anchor="middle" x="193" y="-289.3" font-family="Times,serif" font-size="14.00">0x16AE8B120</text>
<polyline fill="none" stroke="black" points="144,-281.5 242,-281.5 "/>
<text text-anchor="middle" x="193" y="-266.3" font-family="Times,serif" font-size="14.00">value = 0</text>
</g>
<!-- Node_8&#45;&gt;Node_9 -->
<g id="edge12" class="edge">
<title>Node_8&#45;&gt;Node_9</title>
<path fill="none" stroke="blue" d="M156,-387.37C156,-378.86 156,-369.87 156,-361.09"/>
<polygon fill="blue" stroke="blue" points="159.5,-360.92 156,-350.92 152.5,-360.92 159.5,-360.92"/>
</g>
<!-- Node_9&#45;&gt;Node_7 -->
<g id="edge13" class="edge">
<title>Node_9:f1&#45;&gt;Node_7:f1</title>
<path fill="none" stroke="grey" stroke-dasharray="5,2" d="M243,-339.5C286.61,-339.5 385.5,-534.5 312,-608.5 302.2,-618.37 202.49,-624 173.11,-615.37"/>
<polygon fill="grey" stroke="grey" points="175.15,-612.53 165,-609.5 171.05,-618.2 175.15,-612.53"/>
</g>
<!-- Node_10 -->
<g id="node10" class="node">
<title>Node_10</title>
<path fill="#ffded7" stroke="black" d="M82,-129.5C82,-129.5 230,-129.5 230,-129.5 236,-129.5 242,-135.5 242,-141.5 242,-141.5 242,-209.5 242,-209.5 242,-215.5 236,-221.5 230,-221.5 230,-221.5 82,-221.5 82,-221.5 76,-221.5 70,-215.5 70,-209.5 70,-209.5 70,-141.5 70,-141.5 70,-135.5 76,-129.5 82,-129.5"/>
<text text-anchor="middle" x="107" y="-171.8" font-family="Times,serif" font-size="14.00">Destructor</text>
<polyline fill="none" stroke="black" points="144,-129.5 144,-221.5 "/>
<text text-anchor="middle" x="193" y="-206.3" font-family="Times,serif" font-size="14.00">b</text>
<polyline fill="none" stroke="black" points="144,-198.5 242,-198.5 "/>
<text text-anchor="middle" x="193" y="-183.3" font-family="Times,serif" font-size="14.00">#1</text>
<polyline fill="none" stroke="black" points="144,-175.5 242,-175.5 "/>
<text text-anchor="middle" x="193" y="-160.3" font-family="Times,serif" font-size="14.00">0x16AE8B160</text>
<polyline fill="none" stroke="black" points="144,-152.5 242,-152.5 "/>
<text text-anchor="middle" x="193" y="-137.3" font-family="Times,serif" font-size="14.00">value = 0</text>
</g>
<!-- Node_9&#45;&gt;Node_10 -->
<g id="edge14" class="edge">
<title>Node_9&#45;&gt;Node_10</title>
<path fill="none" stroke="blue" d="M156,-258.37C156,-249.86 156,-240.87 156,-232.09"/>
<polygon fill="blue" stroke="blue" points="159.5,-231.92 156,-221.92 152.5,-231.92 159.5,-231.92"/>
</g>
<!-- Node_10&#45;&gt;Node_2 -->
<g id="edge15" class="edge">
<title>Node_10:f1&#45;&gt;Node_2:f1</title>
<path fill="none" stroke="grey" stroke-dasharray="5,2" d="M243,-210.5C358.48,-210.5 378,-317.02 378,-432.5 378,-950.5 378,-950.5 378,-950.5 378,-1089.44 387.92,-1235.2 256.16,-1242.23"/>
<polygon fill="grey" stroke="grey" points="255.91,-1238.74 246,-1242.5 256.09,-1245.74 255.91,-1238.74"/>
</g>
<!-- Node_11 -->
<g id="node11" class="node">
<title>Node_11</title>
<path fill="#ffded7" stroke="black" d="M81,-0.5C81,-0.5 231,-0.5 231,-0.5 237,-0.5 243,-6.5 243,-12.5 243,-12.5 243,-80.5 243,-80.5 243,-86.5 237,-92.5 231,-92.5 231,-92.5 81,-92.5 81,-92.5 75,-92.5 69,-86.5 69,-80.5 69,-80.5 69,-12.5 69,-12.5 69,-6.5 75,-0.5 81,-0.5"/>
<text text-anchor="middle" x="106" y="-42.8" font-family="Times,serif" font-size="14.00">Destructor</text>
<polyline fill="none" stroke="black" points="143,-0.5 143,-92.5 "/>
<text text-anchor="middle" x="193" y="-77.3" font-family="Times,serif" font-size="14.00">a</text>
<polyline fill="none" stroke="black" points="143,-69.5 243,-69.5 "/>
<text text-anchor="middle" x="193" y="-54.3" font-family="Times,serif" font-size="14.00">#0</text>
<polyline fill="none" stroke="black" points="143,-46.5 243,-46.5 "/>
<text text-anchor="middle" x="193" y="-31.3" font-family="Times,serif" font-size="14.00">0x16AE8B1B0</text>
<polyline fill="none" stroke="black" points="143,-23.5 243,-23.5 "/>
<text text-anchor="middle" x="193" y="-8.3" font-family="Times,serif" font-size="14.00">value = 0</text>
</g>
<!-- Node_10&#45;&gt;Node_11 -->
<g id="edge16" class="edge">
<title>Node_10&#45;&gt;Node_11</title>
<path fill="none" stroke="blue" d="M156,-129.37C156,-120.86 156,-111.87 156,-103.09"/>
<polygon fill="blue" stroke="blue" points="159.5,-102.92 156,-92.92 152.5,-102.92 159.5,-102.92"/>
</g>
<!-- Node_11&#45;&gt;Node_1 -->
<g id="edge17" class="edge">
<title>Node_11:f1&#45;&gt;Node_1:f1</title>
<path fill="none" stroke="grey" stroke-dasharray="5,2" d="M244,-81.5C368.82,-81.5 416,-178.68 416,-303.5 416,-1079.5 416,-1079.5 416,-1079.5 416,-1225.93 397.83,-1364.84 257.33,-1371.27"/>
<polygon fill="grey" stroke="grey" points="256.92,-1367.78 247,-1371.5 257.08,-1374.77 256.92,-1367.78"/>
</g>
</g>
</svg>
