<?xml version="1.0" encoding="UTF-8" standalone="no"?>
<!DOCTYPE svg PUBLIC "-//W3C//DTD SVG 1.1//EN"
 "http://www.w3.org/Graphics/SVG/1.1/DTD/svg11.dtd">
<!-- Generated by graphviz version 2.50.0 (20211204.2007)
 -->
<!-- Title: G Pages: 1 -->
<svg width="416pt" height="1663pt"
 viewBox="0.00 0.00 415.50 1663.28" xmlns="http://www.w3.org/2000/svg" xmlns:xlink="http://www.w3.org/1999/xlink">
<g id="graph0" class="graph" transform="scale(1 1) rotate(0) translate(4 1659.28)">
<title>G</title>
<polygon fill="white" stroke="transparent" points="-4,4 -4,-1659.28 411.5,-1659.28 411.5,4 -4,4"/>
<!-- Node_1 -->
<g id="node1" class="node">
<title>Node_1</title>
<polygon fill="darkcyan" stroke="black" points="63,-1548.5 63,-1640.5 240,-1640.5 240,-1548.5 63,-1548.5"/>
<text text-anchor="middle" x="103" y="-1590.8" font-family="Times,serif" font-size="14.00">Constructor</text>
<polyline fill="none" stroke="black" points="143,-1548.5 143,-1640.5 "/>
<text text-anchor="middle" x="191.5" y="-1625.3" font-family="Times,serif" font-size="14.00">a</text>
<polyline fill="none" stroke="black" points="143,-1617.5 240,-1617.5 "/>
<text text-anchor="middle" x="191.5" y="-1602.3" font-family="Times,serif" font-size="14.00">#0</text>
<polyline fill="none" stroke="black" points="143,-1594.5 240,-1594.5 "/>
<text text-anchor="middle" x="191.5" y="-1579.3" font-family="Times,serif" font-size="14.00">0x16FB2F1B0</text>
<polyline fill="none" stroke="black" points="143,-1571.5 240,-1571.5 "/>
<text text-anchor="middle" x="191.5" y="-1556.3" font-family="Times,serif" font-size="14.00">value = 0</text>
</g>
<!-- Node_2 -->
<g id="node2" class="node">
<title>Node_2</title>
<polygon fill="darkcyan" stroke="black" points="64,-1419.5 64,-1511.5 239,-1511.5 239,-1419.5 64,-1419.5"/>
<text text-anchor="middle" x="104" y="-1461.8" font-family="Times,serif" font-size="14.00">Constructor</text>
<polyline fill="none" stroke="black" points="144,-1419.5 144,-1511.5 "/>
<text text-anchor="middle" x="191.5" y="-1496.3" font-family="Times,serif" font-size="14.00">b</text>
<polyline fill="none" stroke="black" points="144,-1488.5 239,-1488.5 "/>
<text text-anchor="middle" x="191.5" y="-1473.3" font-family="Times,serif" font-size="14.00">#1</text>
<polyline fill="none" stroke="black" points="144,-1465.5 239,-1465.5 "/>
<text text-anchor="middle" x="191.5" y="-1450.3" font-family="Times,serif" font-size="14.00">0x16FB2F160</text>
<polyline fill="none" stroke="black" points="144,-1442.5 239,-1442.5 "/>
<text text-anchor="middle" x="191.5" y="-1427.3" font-family="Times,serif" font-size="14.00">value = 0</text>
</g>
<!-- Node_1&#45;&gt;Node_2 -->
<g id="edge1" class="edge">
<title>Node_1&#45;&gt;Node_2</title>
<path fill="none" stroke="blue" d="M151.5,-1548.37C151.5,-1539.86 151.5,-1530.87 151.5,-1522.09"/>
<polygon fill="blue" stroke="blue" points="155,-1521.92 151.5,-1511.92 148,-1521.92 155,-1521.92"/>
</g>
<!-- Node_3 -->
<g id="node3" class="node">
<title>Node_3</title>
<path fill="Yellow" stroke="black" d="M37,-1290.5C37,-1290.5 266,-1290.5 266,-1290.5 272,-1290.5 278,-1296.5 278,-1302.5 278,-1302.5 278,-1370.5 278,-1370.5 278,-1376.5 272,-1382.5 266,-1382.5 266,-1382.5 37,-1382.5 37,-1382.5 31,-1382.5 25,-1376.5 25,-1370.5 25,-1370.5 25,-1302.5 25,-1302.5 25,-1296.5 31,-1290.5 37,-1290.5"/>
<text text-anchor="middle" x="55.5" y="-1332.8" font-family="Times,serif" font-size="14.00">[BIN] +</text>
<polyline fill="none" stroke="black" points="86,-1290.5 86,-1382.5 "/>
<text text-anchor="middle" x="134.5" y="-1367.3" font-family="Times,serif" font-size="14.00">a</text>
<polyline fill="none" stroke="black" points="86,-1359.5 183,-1359.5 "/>
<text text-anchor="middle" x="134.5" y="-1344.3" font-family="Times,serif" font-size="14.00">#0</text>
<polyline fill="none" stroke="black" points="86,-1336.5 183,-1336.5 "/>
<text text-anchor="middle" x="134.5" y="-1321.3" font-family="Times,serif" font-size="14.00">0x16FB2F1B0</text>
<polyline fill="none" stroke="black" points="86,-1313.5 183,-1313.5 "/>
<text text-anchor="middle" x="134.5" y="-1298.3" font-family="Times,serif" font-size="14.00">value = 0</text>
<polyline fill="none" stroke="black" points="183,-1290.5 183,-1382.5 "/>
<text text-anchor="middle" x="230.5" y="-1367.3" font-family="Times,serif" font-size="14.00">b</text>
<polyline fill="none" stroke="black" points="183,-1359.5 278,-1359.5 "/>
<text text-anchor="middle" x="230.5" y="-1344.3" font-family="Times,serif" font-size="14.00">#1</text>
<polyline fill="none" stroke="black" points="183,-1336.5 278,-1336.5 "/>
<text text-anchor="middle" x="230.5" y="-1321.3" font-family="Times,serif" font-size="14.00">0x16FB2F160</text>
<polyline fill="none" stroke="black" points="183,-1313.5 278,-1313.5 "/>
<text text-anchor="middle" x="230.5" y="-1298.3" font-family="Times,serif" font-size="14.00">value = 0</text>
</g>
<!-- Node_2&#45;&gt;Node_3 -->
<g id="edge2" class="edge">
<title>Node_2&#45;&gt;Node_3</title>
<path fill="none" stroke="blue" d="M151.5,-1419.37C151.5,-1410.86 151.5,-1401.87 151.5,-1393.09"/>
<polygon fill="blue" stroke="blue" points="155,-1392.92 151.5,-1382.92 148,-1392.92 155,-1392.92"/>
</g>
<!-- Node_3&#45;&gt;Node_1 -->
<g id="edge3" class="edge">
<title>Node_3:f1&#45;&gt;Node_1:f1</title>
<path fill="none" stroke="grey" stroke-dasharray="5,2" d="M134.5,-1383C134.5,-1421.58 76.37,-1386.55 55.5,-1419 33.14,-1453.76 29.22,-1480.1 55.5,-1512 108.62,-1576.49 186.88,-1483.51 240,-1548 266.14,-1579.73 268.77,-1611.13 240,-1640.5 227.86,-1652.89 203.85,-1659.95 194.94,-1651"/>
<polygon fill="grey" stroke="grey" points="198.19,-1649.71 191.5,-1641.5 191.61,-1652.09 198.19,-1649.71"/>
</g>
<!-- Node_3&#45;&gt;Node_2 -->
<g id="edge4" class="edge">
<title>Node_3:f2&#45;&gt;Node_2:f1</title>
<path fill="none" stroke="gray" stroke-dasharray="5,2" d="M230.5,-1383C230.5,-1399.44 237.1,-1402.67 239,-1419 243.76,-1459.84 267.76,-1482.13 239,-1511.5 227.23,-1523.52 204.05,-1530.43 195.13,-1522.05"/>
<polygon fill="gray" stroke="gray" points="198.32,-1520.61 191.5,-1512.5 191.78,-1523.09 198.32,-1520.61"/>
</g>
<!-- Node_4 -->
<g id="node4" class="node">
<title>Node_4</title>
<polygon fill="darkcyan" stroke="black" points="64,-1161.5 64,-1253.5 239,-1253.5 239,-1161.5 64,-1161.5"/>
<text text-anchor="middle" x="104" y="-1203.8" font-family="Times,serif" font-size="14.00">Constructor</text>
<polyline fill="none" stroke="black" points="144,-1161.5 144,-1253.5 "/>
<text text-anchor="middle" x="191.5" y="-1238.3" font-family="Times,serif" font-size="14.00">tmp_1</text>
<polyline fill="none" stroke="black" points="144,-1230.5 239,-1230.5 "/>
<text text-anchor="middle" x="191.5" y="-1215.3" font-family="Times,serif" font-size="14.00">#2</text>
<polyline fill="none" stroke="black" points="144,-1207.5 239,-1207.5 "/>
<text text-anchor="middle" x="191.5" y="-1192.3" font-family="Times,serif" font-size="14.00">0x16FB2F060</text>
<polyline fill="none" stroke="black" points="144,-1184.5 239,-1184.5 "/>
<text text-anchor="middle" x="191.5" y="-1169.3" font-family="Times,serif" font-size="14.00">value = 0</text>
</g>
<!-- Node_3&#45;&gt;Node_4 -->
<g id="edge5" class="edge">
<title>Node_3&#45;&gt;Node_4</title>
<path fill="none" stroke="blue" d="M151.5,-1290.37C151.5,-1281.86 151.5,-1272.87 151.5,-1264.09"/>
<polygon fill="blue" stroke="blue" points="155,-1263.92 151.5,-1253.92 148,-1263.92 155,-1263.92"/>
</g>
<!-- Node_5 -->
<g id="node5" class="node">
<title>Node_5</title>
<polygon fill="#ff6e50" stroke="black" points="0,-1032.5 0,-1124.5 303,-1124.5 303,-1032.5 0,-1032.5"/>
<text text-anchor="middle" x="56.5" y="-1074.8" font-family="Times,serif" font-size="14.00">Copy Constructor</text>
<polyline fill="none" stroke="black" points="113,-1032.5 113,-1124.5 "/>
<text text-anchor="middle" x="160.5" y="-1109.3" font-family="Times,serif" font-size="14.00">res</text>
<polyline fill="none" stroke="black" points="113,-1101.5 208,-1101.5 "/>
<text text-anchor="middle" x="160.5" y="-1086.3" font-family="Times,serif" font-size="14.00">#3</text>
<polyline fill="none" stroke="black" points="113,-1078.5 208,-1078.5 "/>
<text text-anchor="middle" x="160.5" y="-1063.3" font-family="Times,serif" font-size="14.00">0x16FB2F088</text>
<polyline fill="none" stroke="black" points="113,-1055.5 208,-1055.5 "/>
<text text-anchor="middle" x="160.5" y="-1040.3" font-family="Times,serif" font-size="14.00">value = 0</text>
<polyline fill="none" stroke="black" points="208,-1032.5 208,-1124.5 "/>
<text text-anchor="middle" x="255.5" y="-1109.3" font-family="Times,serif" font-size="14.00">tmp_1</text>
<polyline fill="none" stroke="black" points="208,-1101.5 303,-1101.5 "/>
<text text-anchor="middle" x="255.5" y="-1086.3" font-family="Times,serif" font-size="14.00">#2</text>
<polyline fill="none" stroke="black" points="208,-1078.5 303,-1078.5 "/>
<text text-anchor="middle" x="255.5" y="-1063.3" font-family="Times,serif" font-size="14.00">0x16FB2F060</text>
<polyline fill="none" stroke="black" points="208,-1055.5 303,-1055.5 "/>
<text text-anchor="middle" x="255.5" y="-1040.3" font-family="Times,serif" font-size="14.00">value = 0</text>
</g>
<!-- Node_4&#45;&gt;Node_5 -->
<g id="edge6" class="edge">
<title>Node_4&#45;&gt;Node_5</title>
<path fill="none" stroke="blue" d="M151.5,-1161.37C151.5,-1152.86 151.5,-1143.87 151.5,-1135.09"/>
<polygon fill="blue" stroke="blue" points="155,-1134.92 151.5,-1124.92 148,-1134.92 155,-1134.92"/>
</g>
<!-- Node_6 -->
<g id="node6" class="node">
<title>Node_6</title>
<path fill="#ffded7" stroke="black" d="M79,-903.5C79,-903.5 224,-903.5 224,-903.5 230,-903.5 236,-909.5 236,-915.5 236,-915.5 236,-983.5 236,-983.5 236,-989.5 230,-995.5 224,-995.5 224,-995.5 79,-995.5 79,-995.5 73,-995.5 67,-989.5 67,-983.5 67,-983.5 67,-915.5 67,-915.5 67,-909.5 73,-903.5 79,-903.5"/>
<text text-anchor="middle" x="104" y="-945.8" font-family="Times,serif" font-size="14.00">Destructor</text>
<polyline fill="none" stroke="black" points="141,-903.5 141,-995.5 "/>
<text text-anchor="middle" x="188.5" y="-980.3" font-family="Times,serif" font-size="14.00">tmp_1</text>
<polyline fill="none" stroke="black" points="141,-972.5 236,-972.5 "/>
<text text-anchor="middle" x="188.5" y="-957.3" font-family="Times,serif" font-size="14.00">#2</text>
<polyline fill="none" stroke="black" points="141,-949.5 236,-949.5 "/>
<text text-anchor="middle" x="188.5" y="-934.3" font-family="Times,serif" font-size="14.00">0x16FB2F060</text>
<polyline fill="none" stroke="black" points="141,-926.5 236,-926.5 "/>
<text text-anchor="middle" x="188.5" y="-911.3" font-family="Times,serif" font-size="14.00">value = 0</text>
</g>
<!-- Node_5&#45;&gt;Node_6 -->
<g id="edge7" class="edge">
<title>Node_5&#45;&gt;Node_6</title>
<path fill="none" stroke="blue" d="M151.5,-1032.37C151.5,-1023.86 151.5,-1014.87 151.5,-1006.09"/>
<polygon fill="blue" stroke="blue" points="155,-1005.92 151.5,-995.92 148,-1005.92 155,-1005.92"/>
</g>
<!-- Node_6&#45;&gt;Node_4 -->
<g id="edge8" class="edge">
<title>Node_6:f1&#45;&gt;Node_4:f1</title>
<path fill="none" stroke="grey" stroke-dasharray="5,2" d="M237.5,-984.5C276.96,-984.5 293.48,-997.43 312.5,-1032 358.5,-1115.58 340.75,-1233.84 250.64,-1242.05"/>
<polygon fill="grey" stroke="grey" points="250.33,-1238.56 240.5,-1242.5 250.65,-1245.55 250.33,-1238.56"/>
</g>
<!-- Node_7 -->
<g id="node7" class="node">
<title>Node_7</title>
<polygon fill="#ff6e50" stroke="black" points="0,-774.5 0,-866.5 303,-866.5 303,-774.5 0,-774.5"/>
<text text-anchor="middle" x="56.5" y="-816.8" font-family="Times,serif" font-size="14.00">Copy Constructor</text>
<polyline fill="none" stroke="black" points="113,-774.5 113,-866.5 "/>
<text text-anchor="middle" x="160.5" y="-851.3" font-family="Times,serif" font-size="14.00">tmp_2</text>
<polyline fill="none" stroke="black" points="113,-843.5 208,-843.5 "/>
<text text-anchor="middle" x="160.5" y="-828.3" font-family="Times,serif" font-size="14.00">#4</text>
<polyline fill="none" stroke="black" points="113,-820.5 208,-820.5 "/>
<text text-anchor="middle" x="160.5" y="-805.3" font-family="Times,serif" font-size="14.00">0x16FB2F0F8</text>
<polyline fill="none" stroke="black" points="113,-797.5 208,-797.5 "/>
<text text-anchor="middle" x="160.5" y="-782.3" font-family="Times,serif" font-size="14.00">value = 0</text>
<polyline fill="none" stroke="black" points="208,-774.5 208,-866.5 "/>
<text text-anchor="middle" x="255.5" y="-851.3" font-family="Times,serif" font-size="14.00">res</text>
<polyline fill="none" stroke="black" points="208,-843.5 303,-843.5 "/>
<text text-anchor="middle" x="255.5" y="-828.3" font-family="Times,serif" font-size="14.00">#3</text>
<polyline fill="none" stroke="black" points="208,-820.5 303,-820.5 "/>
<text text-anchor="middle" x="255.5" y="-805.3" font-family="Times,serif" font-size="14.00">0x16FB2F088</text>
<polyline fill="none" stroke="black" points="208,-797.5 303,-797.5 "/>
<text text-anchor="middle" x="255.5" y="-782.3" font-family="Times,serif" font-size="14.00">value = 0</text>
</g>
<!-- Node_6&#45;&gt;Node_7 -->
<g id="edge9" class="edge">
<title>Node_6&#45;&gt;Node_7</title>
<path fill="none" stroke="blue" d="M151.5,-903.37C151.5,-894.86 151.5,-885.87 151.5,-877.09"/>
<polygon fill="blue" stroke="blue" points="155,-876.92 151.5,-866.92 148,-876.92 155,-876.92"/>
</g>
<!-- Node_8 -->
<g id="node8" class="node">
<title>Node_8</title>
<path fill="#ffded7" stroke="black" d="M79,-645.5C79,-645.5 224,-645.5 224,-645.5 230,-645.5 236,-651.5 236,-657.5 236,-657.5 236,-725.5 236,-725.5 236,-731.5 230,-737.5 224,-737.5 224,-737.5 79,-737.5 79,-737.5 73,-737.5 67,-731.5 67,-725.5 67,-725.5 67,-657.5 67,-657.5 67,-651.5 73,-645.5 79,-645.5"/>
<text text-anchor="middle" x="104" y="-687.8" font-family="Times,serif" font-size="14.00">Destructor</text>
<polyline fill="none" stroke="black" points="141,-645.5 141,-737.5 "/>
<text text-anchor="middle" x="188.5" y="-722.3" font-family="Times,serif" font-size="14.00">res</text>
<polyline fill="none" stroke="black" points="141,-714.5 236,-714.5 "/>
<text text-anchor="middle" x="188.5" y="-699.3" font-family="Times,serif" font-size="14.00">#3</text>
<polyline fill="none" stroke="black" points="141,-691.5 236,-691.5 "/>
<text text-anchor="middle" x="188.5" y="-676.3" font-family="Times,serif" font-size="14.00">0x16FB2F088</text>
<polyline fill="none" stroke="black" points="141,-668.5 236,-668.5 "/>
<text text-anchor="middle" x="188.5" y="-653.3" font-family="Times,serif" font-size="14.00">value = 0</text>
</g>
<!-- Node_7&#45;&gt;Node_8 -->
<g id="edge10" class="edge">
<title>Node_7&#45;&gt;Node_8</title>
<path fill="none" stroke="blue" d="M151.5,-774.37C151.5,-765.86 151.5,-756.87 151.5,-748.09"/>
<polygon fill="blue" stroke="blue" points="155,-747.92 151.5,-737.92 148,-747.92 155,-747.92"/>
</g>
<!-- Node_8&#45;&gt;Node_5 -->
<g id="edge11" class="edge">
<title>Node_8:f1&#45;&gt;Node_5:f1</title>
<path fill="none" stroke="grey" stroke-dasharray="5,2" d="M237.5,-726.5C276.96,-726.5 293.48,-739.43 312.5,-774 350.07,-842.26 358.91,-1070.23 303,-1124.5 293.37,-1133.85 197.68,-1139.44 168.74,-1131.29"/>
<polygon fill="grey" stroke="grey" points="170.7,-1128.38 160.5,-1125.5 166.67,-1134.11 170.7,-1128.38"/>
</g>
<!-- Node_9 -->
<g id="node9" class="node">
<title>Node_9</title>
<polygon fill="#ff6e50" stroke="black" points="0,-516.5 0,-608.5 303,-608.5 303,-516.5 0,-516.5"/>
<text text-anchor="middle" x="56.5" y="-558.8" font-family="Times,serif" font-size="14.00">Copy Constructor</text>
<polyline fill="none" stroke="black" points="113,-516.5 113,-608.5 "/>
<text text-anchor="middle" x="160.5" y="-593.3" font-family="Times,serif" font-size="14.00">c</text>
<polyline fill="none" stroke="black" points="113,-585.5 208,-585.5 "/>
<text text-anchor="middle" x="160.5" y="-570.3" font-family="Times,serif" font-size="14.00">#5</text>
<polyline fill="none" stroke="black" points="113,-562.5 208,-562.5 "/>
<text text-anchor="middle" x="160.5" y="-547.3" font-family="Times,serif" font-size="14.00">0x16FB2F120</text>
<polyline fill="none" stroke="black" points="113,-539.5 208,-539.5 "/>
<text text-anchor="middle" x="160.5" y="-524.3" font-family="Times,serif" font-size="14.00">value = 0</text>
<polyline fill="none" stroke="black" points="208,-516.5 208,-608.5 "/>
<text text-anchor="middle" x="255.5" y="-593.3" font-family="Times,serif" font-size="14.00">tmp_2</text>
<polyline fill="none" stroke="black" points="208,-585.5 303,-585.5 "/>
<text text-anchor="middle" x="255.5" y="-570.3" font-family="Times,serif" font-size="14.00">#4</text>
<polyline fill="none" stroke="black" points="208,-562.5 303,-562.5 "/>
<text text-anchor="middle" x="255.5" y="-547.3" font-family="Times,serif" font-size="14.00">0x16FB2F0F8</text>
<polyline fill="none" stroke="black" points="208,-539.5 303,-539.5 "/>
<text text-anchor="middle" x="255.5" y="-524.3" font-family="Times,serif" font-size="14.00">value = 0</text>
</g>
<!-- Node_8&#45;&gt;Node_9 -->
<g id="edge12" class="edge">
<title>Node_8&#45;&gt;Node_9</title>
<path fill="none" stroke="blue" d="M151.5,-645.37C151.5,-636.86 151.5,-627.87 151.5,-619.09"/>
<polygon fill="blue" stroke="blue" points="155,-618.92 151.5,-608.92 148,-618.92 155,-618.92"/>
</g>
<!-- Node_10 -->
<g id="node10" class="node">
<title>Node_10</title>
<path fill="#ffded7" stroke="black" d="M79,-387.5C79,-387.5 224,-387.5 224,-387.5 230,-387.5 236,-393.5 236,-399.5 236,-399.5 236,-467.5 236,-467.5 236,-473.5 230,-479.5 224,-479.5 224,-479.5 79,-479.5 79,-479.5 73,-479.5 67,-473.5 67,-467.5 67,-467.5 67,-399.5 67,-399.5 67,-393.5 73,-387.5 79,-387.5"/>
<text text-anchor="middle" x="104" y="-429.8" font-family="Times,serif" font-size="14.00">Destructor</text>
<polyline fill="none" stroke="black" points="141,-387.5 141,-479.5 "/>
<text text-anchor="middle" x="188.5" y="-464.3" font-family="Times,serif" font-size="14.00">tmp_2</text>
<polyline fill="none" stroke="black" points="141,-456.5 236,-456.5 "/>
<text text-anchor="middle" x="188.5" y="-441.3" font-family="Times,serif" font-size="14.00">#4</text>
<polyline fill="none" stroke="black" points="141,-433.5 236,-433.5 "/>
<text text-anchor="middle" x="188.5" y="-418.3" font-family="Times,serif" font-size="14.00">0x16FB2F0F8</text>
<polyline fill="none" stroke="black" points="141,-410.5 236,-410.5 "/>
<text text-anchor="middle" x="188.5" y="-395.3" font-family="Times,serif" font-size="14.00">value = 0</text>
</g>
<!-- Node_9&#45;&gt;Node_10 -->
<g id="edge13" class="edge">
<title>Node_9&#45;&gt;Node_10</title>
<path fill="none" stroke="blue" d="M151.5,-516.37C151.5,-507.86 151.5,-498.87 151.5,-490.09"/>
<polygon fill="blue" stroke="blue" points="155,-489.92 151.5,-479.92 148,-489.92 155,-489.92"/>
</g>
<!-- Node_10&#45;&gt;Node_7 -->
<g id="edge14" class="edge">
<title>Node_10:f1&#45;&gt;Node_7:f1</title>
<path fill="none" stroke="grey" stroke-dasharray="5,2" d="M237.5,-468.5C276.96,-468.5 293.48,-481.43 312.5,-516 350.07,-584.26 358.91,-812.23 303,-866.5 293.37,-875.85 197.68,-881.44 168.74,-873.29"/>
<polygon fill="grey" stroke="grey" points="170.7,-870.38 160.5,-867.5 166.67,-876.11 170.7,-870.38"/>
</g>
<!-- Node_11 -->
<g id="node11" class="node">
<title>Node_11</title>
<path fill="#ffded7" stroke="black" d="M79,-258.5C79,-258.5 224,-258.5 224,-258.5 230,-258.5 236,-264.5 236,-270.5 236,-270.5 236,-338.5 236,-338.5 236,-344.5 230,-350.5 224,-350.5 224,-350.5 79,-350.5 79,-350.5 73,-350.5 67,-344.5 67,-338.5 67,-338.5 67,-270.5 67,-270.5 67,-264.5 73,-258.5 79,-258.5"/>
<text text-anchor="middle" x="104" y="-300.8" font-family="Times,serif" font-size="14.00">Destructor</text>
<polyline fill="none" stroke="black" points="141,-258.5 141,-350.5 "/>
<text text-anchor="middle" x="188.5" y="-335.3" font-family="Times,serif" font-size="14.00">c</text>
<polyline fill="none" stroke="black" points="141,-327.5 236,-327.5 "/>
<text text-anchor="middle" x="188.5" y="-312.3" font-family="Times,serif" font-size="14.00">#5</text>
<polyline fill="none" stroke="black" points="141,-304.5 236,-304.5 "/>
<text text-anchor="middle" x="188.5" y="-289.3" font-family="Times,serif" font-size="14.00">0x16FB2F120</text>
<polyline fill="none" stroke="black" points="141,-281.5 236,-281.5 "/>
<text text-anchor="middle" x="188.5" y="-266.3" font-family="Times,serif" font-size="14.00">value = 0</text>
</g>
<!-- Node_10&#45;&gt;Node_11 -->
<g id="edge15" class="edge">
<title>Node_10&#45;&gt;Node_11</title>
<path fill="none" stroke="blue" d="M151.5,-387.37C151.5,-378.86 151.5,-369.87 151.5,-361.09"/>
<polygon fill="blue" stroke="blue" points="155,-360.92 151.5,-350.92 148,-360.92 155,-360.92"/>
</g>
<!-- Node_11&#45;&gt;Node_9 -->
<g id="edge16" class="edge">
<title>Node_11:f1&#45;&gt;Node_9:f1</title>
<path fill="none" stroke="grey" stroke-dasharray="5,2" d="M237.5,-339.5C282.27,-339.5 374.93,-536.06 303,-608.5 293.54,-618.02 197.73,-623.5 168.76,-615.3"/>
<polygon fill="grey" stroke="grey" points="170.69,-612.38 160.5,-609.5 166.67,-618.11 170.69,-612.38"/>
</g>
<!-- Node_12 -->
<g id="node12" class="node">
<title>Node_12</title>
<path fill="#ffded7" stroke="black" d="M79,-129.5C79,-129.5 224,-129.5 224,-129.5 230,-129.5 236,-135.5 236,-141.5 236,-141.5 236,-209.5 236,-209.5 236,-215.5 230,-221.5 224,-221.5 224,-221.5 79,-221.5 79,-221.5 73,-221.5 67,-215.5 67,-209.5 67,-209.5 67,-141.5 67,-141.5 67,-135.5 73,-129.5 79,-129.5"/>
<text text-anchor="middle" x="104" y="-171.8" font-family="Times,serif" font-size="14.00">Destructor</text>
<polyline fill="none" stroke="black" points="141,-129.5 141,-221.5 "/>
<text text-anchor="middle" x="188.5" y="-206.3" font-family="Times,serif" font-size="14.00">b</text>
<polyline fill="none" stroke="black" points="141,-198.5 236,-198.5 "/>
<text text-anchor="middle" x="188.5" y="-183.3" font-family="Times,serif" font-size="14.00">#1</text>
<polyline fill="none" stroke="black" points="141,-175.5 236,-175.5 "/>
<text text-anchor="middle" x="188.5" y="-160.3" font-family="Times,serif" font-size="14.00">0x16FB2F160</text>
<polyline fill="none" stroke="black" points="141,-152.5 236,-152.5 "/>
<text text-anchor="middle" x="188.5" y="-137.3" font-family="Times,serif" font-size="14.00">value = 0</text>
</g>
<!-- Node_11&#45;&gt;Node_12 -->
<g id="edge17" class="edge">
<title>Node_11&#45;&gt;Node_12</title>
<path fill="none" stroke="blue" d="M151.5,-258.37C151.5,-249.86 151.5,-240.87 151.5,-232.09"/>
<polygon fill="blue" stroke="blue" points="155,-231.92 151.5,-221.92 148,-231.92 155,-231.92"/>
</g>
<!-- Node_12&#45;&gt;Node_2 -->
<g id="edge18" class="edge">
<title>Node_12:f1&#45;&gt;Node_2:f1</title>
<path fill="none" stroke="grey" stroke-dasharray="5,2" d="M237.5,-210.5C352.29,-210.5 369.5,-317.71 369.5,-432.5 369.5,-1208.5 369.5,-1208.5 369.5,-1208.5 369.5,-1346.91 381.76,-1493.17 250.62,-1500.23"/>
<polygon fill="grey" stroke="grey" points="250.4,-1496.74 240.5,-1500.5 250.59,-1503.74 250.4,-1496.74"/>
</g>
<!-- Node_13 -->
<g id="node13" class="node">
<title>Node_13</title>
<path fill="#ffded7" stroke="black" d="M78,-0.5C78,-0.5 225,-0.5 225,-0.5 231,-0.5 237,-6.5 237,-12.5 237,-12.5 237,-80.5 237,-80.5 237,-86.5 231,-92.5 225,-92.5 225,-92.5 78,-92.5 78,-92.5 72,-92.5 66,-86.5 66,-80.5 66,-80.5 66,-12.5 66,-12.5 66,-6.5 72,-0.5 78,-0.5"/>
<text text-anchor="middle" x="103" y="-42.8" font-family="Times,serif" font-size="14.00">Destructor</text>
<polyline fill="none" stroke="black" points="140,-0.5 140,-92.5 "/>
<text text-anchor="middle" x="188.5" y="-77.3" font-family="Times,serif" font-size="14.00">a</text>
<polyline fill="none" stroke="black" points="140,-69.5 237,-69.5 "/>
<text text-anchor="middle" x="188.5" y="-54.3" font-family="Times,serif" font-size="14.00">#0</text>
<polyline fill="none" stroke="black" points="140,-46.5 237,-46.5 "/>
<text text-anchor="middle" x="188.5" y="-31.3" font-family="Times,serif" font-size="14.00">0x16FB2F1B0</text>
<polyline fill="none" stroke="black" points="140,-23.5 237,-23.5 "/>
<text text-anchor="middle" x="188.5" y="-8.3" font-family="Times,serif" font-size="14.00">value = 0</text>
</g>
<!-- Node_12&#45;&gt;Node_13 -->
<g id="edge19" class="edge">
<title>Node_12&#45;&gt;Node_13</title>
<path fill="none" stroke="blue" d="M151.5,-129.37C151.5,-120.86 151.5,-111.87 151.5,-103.09"/>
<polygon fill="blue" stroke="blue" points="155,-102.92 151.5,-92.92 148,-102.92 155,-102.92"/>
</g>
<!-- Node_13&#45;&gt;Node_1 -->
<g id="edge20" class="edge">
<title>Node_13:f1&#45;&gt;Node_1:f1</title>
<path fill="none" stroke="grey" stroke-dasharray="5,2" d="M238.5,-81.5C362.5,-81.5 407.5,-179.5 407.5,-303.5 407.5,-1337.5 407.5,-1337.5 407.5,-1337.5 407.5,-1483.28 391.56,-1622.81 251.78,-1629.27"/>
<polygon fill="grey" stroke="grey" points="251.42,-1625.77 241.5,-1629.5 251.58,-1632.77 251.42,-1625.77"/>
</g>
</g>
</svg>
