<?xml version="1.0" encoding="UTF-8" standalone="no"?>
<!DOCTYPE svg PUBLIC "-//W3C//DTD SVG 1.1//EN"
 "http://www.w3.org/Graphics/SVG/1.1/DTD/svg11.dtd">
<!-- Generated by graphviz version 2.50.0 (20211204.2007)
 -->
<!-- Title: G Pages: 1 -->
<svg width="418pt" height="1663pt"
 viewBox="0.00 0.00 417.50 1663.12" xmlns="http://www.w3.org/2000/svg" xmlns:xlink="http://www.w3.org/1999/xlink">
<g id="graph0" class="graph" transform="scale(1 1) rotate(0) translate(4 1659.12)">
<title>G</title>
<polygon fill="white" stroke="transparent" points="-4,4 -4,-1659.12 413.5,-1659.12 413.5,4 -4,4"/>
<!-- Node_1 -->
<g id="node1" class="node">
<title>Node_1</title>
<polygon fill="darkcyan" stroke="black" points="64.5,-1548.5 64.5,-1640.5 240.5,-1640.5 240.5,-1548.5 64.5,-1548.5"/>
<text text-anchor="middle" x="104.5" y="-1590.8" font-family="Times,serif" font-size="14.00">Constructor</text>
<polyline fill="none" stroke="black" points="144.5,-1548.5 144.5,-1640.5 "/>
<text text-anchor="middle" x="192.5" y="-1625.3" font-family="Times,serif" font-size="14.00">a</text>
<polyline fill="none" stroke="black" points="144.5,-1617.5 240.5,-1617.5 "/>
<text text-anchor="middle" x="192.5" y="-1602.3" font-family="Times,serif" font-size="14.00">#0</text>
<polyline fill="none" stroke="black" points="144.5,-1594.5 240.5,-1594.5 "/>
<text text-anchor="middle" x="192.5" y="-1579.3" font-family="Times,serif" font-size="14.00">0x16D3671B0</text>
<polyline fill="none" stroke="black" points="144.5,-1571.5 240.5,-1571.5 "/>
<text text-anchor="middle" x="192.5" y="-1556.3" font-family="Times,serif" font-size="14.00">value = 0</text>
</g>
<!-- Node_2 -->
<g id="node2" class="node">
<title>Node_2</title>
<polygon fill="darkcyan" stroke="black" points="65.5,-1419.5 65.5,-1511.5 239.5,-1511.5 239.5,-1419.5 65.5,-1419.5"/>
<text text-anchor="middle" x="105.5" y="-1461.8" font-family="Times,serif" font-size="14.00">Constructor</text>
<polyline fill="none" stroke="black" points="145.5,-1419.5 145.5,-1511.5 "/>
<text text-anchor="middle" x="192.5" y="-1496.3" font-family="Times,serif" font-size="14.00">b</text>
<polyline fill="none" stroke="black" points="145.5,-1488.5 239.5,-1488.5 "/>
<text text-anchor="middle" x="192.5" y="-1473.3" font-family="Times,serif" font-size="14.00">#1</text>
<polyline fill="none" stroke="black" points="145.5,-1465.5 239.5,-1465.5 "/>
<text text-anchor="middle" x="192.5" y="-1450.3" font-family="Times,serif" font-size="14.00">0x16D367160</text>
<polyline fill="none" stroke="black" points="145.5,-1442.5 239.5,-1442.5 "/>
<text text-anchor="middle" x="192.5" y="-1427.3" font-family="Times,serif" font-size="14.00">value = 0</text>
</g>
<!-- Node_1&#45;&gt;Node_2 -->
<g id="edge1" class="edge">
<title>Node_1&#45;&gt;Node_2</title>
<path fill="none" stroke="blue" d="M152.5,-1548.37C152.5,-1539.86 152.5,-1530.87 152.5,-1522.09"/>
<polygon fill="blue" stroke="blue" points="156,-1521.92 152.5,-1511.92 149,-1521.92 156,-1521.92"/>
</g>
<!-- Node_3 -->
<g id="node3" class="node">
<title>Node_3</title>
<path fill="Yellow" stroke="black" d="M39,-1290.5C39,-1290.5 266,-1290.5 266,-1290.5 272,-1290.5 278,-1296.5 278,-1302.5 278,-1302.5 278,-1370.5 278,-1370.5 278,-1376.5 272,-1382.5 266,-1382.5 266,-1382.5 39,-1382.5 39,-1382.5 33,-1382.5 27,-1376.5 27,-1370.5 27,-1370.5 27,-1302.5 27,-1302.5 27,-1296.5 33,-1290.5 39,-1290.5"/>
<text text-anchor="middle" x="57.5" y="-1332.8" font-family="Times,serif" font-size="14.00">[BIN] +</text>
<polyline fill="none" stroke="black" points="88,-1290.5 88,-1382.5 "/>
<text text-anchor="middle" x="136" y="-1367.3" font-family="Times,serif" font-size="14.00">a</text>
<polyline fill="none" stroke="black" points="88,-1359.5 184,-1359.5 "/>
<text text-anchor="middle" x="136" y="-1344.3" font-family="Times,serif" font-size="14.00">#0</text>
<polyline fill="none" stroke="black" points="88,-1336.5 184,-1336.5 "/>
<text text-anchor="middle" x="136" y="-1321.3" font-family="Times,serif" font-size="14.00">0x16D3671B0</text>
<polyline fill="none" stroke="black" points="88,-1313.5 184,-1313.5 "/>
<text text-anchor="middle" x="136" y="-1298.3" font-family="Times,serif" font-size="14.00">value = 0</text>
<polyline fill="none" stroke="black" points="184,-1290.5 184,-1382.5 "/>
<text text-anchor="middle" x="231" y="-1367.3" font-family="Times,serif" font-size="14.00">b</text>
<polyline fill="none" stroke="black" points="184,-1359.5 278,-1359.5 "/>
<text text-anchor="middle" x="231" y="-1344.3" font-family="Times,serif" font-size="14.00">#1</text>
<polyline fill="none" stroke="black" points="184,-1336.5 278,-1336.5 "/>
<text text-anchor="middle" x="231" y="-1321.3" font-family="Times,serif" font-size="14.00">0x16D367160</text>
<polyline fill="none" stroke="black" points="184,-1313.5 278,-1313.5 "/>
<text text-anchor="middle" x="231" y="-1298.3" font-family="Times,serif" font-size="14.00">value = 0</text>
</g>
<!-- Node_2&#45;&gt;Node_3 -->
<g id="edge2" class="edge">
<title>Node_2&#45;&gt;Node_3</title>
<path fill="none" stroke="blue" d="M152.5,-1419.37C152.5,-1410.86 152.5,-1401.87 152.5,-1393.09"/>
<polygon fill="blue" stroke="blue" points="156,-1392.92 152.5,-1382.92 149,-1392.92 156,-1392.92"/>
</g>
<!-- Node_3&#45;&gt;Node_1 -->
<g id="edge3" class="edge">
<title>Node_3:f1&#45;&gt;Node_1:f1</title>
<path fill="none" stroke="grey" stroke-dasharray="5,2" d="M135.5,-1383C135.5,-1421.58 77.37,-1386.55 56.5,-1419 34.14,-1453.76 30.23,-1480.09 56.5,-1512 109.46,-1576.33 187.54,-1483.67 240.5,-1548 266.63,-1579.74 269.27,-1611.13 240.5,-1640.5 228.6,-1652.65 205.19,-1659.62 196.16,-1651.15"/>
<polygon fill="grey" stroke="grey" points="199.32,-1649.61 192.5,-1641.5 192.78,-1652.09 199.32,-1649.61"/>
</g>
<!-- Node_3&#45;&gt;Node_2 -->
<g id="edge4" class="edge">
<title>Node_3:f2&#45;&gt;Node_2:f1</title>
<path fill="none" stroke="gray" stroke-dasharray="5,2" d="M231.5,-1383C231.5,-1399.39 237.71,-1402.71 239.5,-1419 243.99,-1459.87 268.26,-1482.12 239.5,-1511.5 227.85,-1523.4 204.92,-1530.24 196.09,-1521.95"/>
<polygon fill="gray" stroke="gray" points="199.32,-1520.61 192.5,-1512.5 192.78,-1523.09 199.32,-1520.61"/>
</g>
<!-- Node_4 -->
<g id="node4" class="node">
<title>Node_4</title>
<polygon fill="darkcyan" stroke="black" points="65.5,-1161.5 65.5,-1253.5 239.5,-1253.5 239.5,-1161.5 65.5,-1161.5"/>
<text text-anchor="middle" x="105.5" y="-1203.8" font-family="Times,serif" font-size="14.00">Constructor</text>
<polyline fill="none" stroke="black" points="145.5,-1161.5 145.5,-1253.5 "/>
<text text-anchor="middle" x="192.5" y="-1238.3" font-family="Times,serif" font-size="14.00">tmp_1</text>
<polyline fill="none" stroke="black" points="145.5,-1230.5 239.5,-1230.5 "/>
<text text-anchor="middle" x="192.5" y="-1215.3" font-family="Times,serif" font-size="14.00">#2</text>
<polyline fill="none" stroke="black" points="145.5,-1207.5 239.5,-1207.5 "/>
<text text-anchor="middle" x="192.5" y="-1192.3" font-family="Times,serif" font-size="14.00">0x16D367040</text>
<polyline fill="none" stroke="black" points="145.5,-1184.5 239.5,-1184.5 "/>
<text text-anchor="middle" x="192.5" y="-1169.3" font-family="Times,serif" font-size="14.00">value = 0</text>
</g>
<!-- Node_3&#45;&gt;Node_4 -->
<g id="edge5" class="edge">
<title>Node_3&#45;&gt;Node_4</title>
<path fill="none" stroke="blue" d="M152.5,-1290.37C152.5,-1281.86 152.5,-1272.87 152.5,-1264.09"/>
<polygon fill="blue" stroke="blue" points="156,-1263.92 152.5,-1253.92 149,-1263.92 156,-1263.92"/>
</g>
<!-- Node_5 -->
<g id="node5" class="node">
<title>Node_5</title>
<polygon fill="#03c500" stroke="black" points="0.5,-1032.5 0.5,-1124.5 304.5,-1124.5 304.5,-1032.5 0.5,-1032.5"/>
<text text-anchor="middle" x="58.5" y="-1074.8" font-family="Times,serif" font-size="14.00">Move Constructor</text>
<polyline fill="none" stroke="black" points="116.5,-1032.5 116.5,-1124.5 "/>
<text text-anchor="middle" x="163.5" y="-1109.3" font-family="Times,serif" font-size="14.00">res</text>
<polyline fill="none" stroke="black" points="116.5,-1101.5 210.5,-1101.5 "/>
<text text-anchor="middle" x="163.5" y="-1086.3" font-family="Times,serif" font-size="14.00">#3</text>
<polyline fill="none" stroke="black" points="116.5,-1078.5 210.5,-1078.5 "/>
<text text-anchor="middle" x="163.5" y="-1063.3" font-family="Times,serif" font-size="14.00">0x16D367068</text>
<polyline fill="none" stroke="black" points="116.5,-1055.5 210.5,-1055.5 "/>
<text text-anchor="middle" x="163.5" y="-1040.3" font-family="Times,serif" font-size="14.00">value = 0</text>
<polyline fill="none" stroke="black" points="210.5,-1032.5 210.5,-1124.5 "/>
<text text-anchor="middle" x="257.5" y="-1109.3" font-family="Times,serif" font-size="14.00">tmp_1</text>
<polyline fill="none" stroke="black" points="210.5,-1101.5 304.5,-1101.5 "/>
<text text-anchor="middle" x="257.5" y="-1086.3" font-family="Times,serif" font-size="14.00">#2</text>
<polyline fill="none" stroke="black" points="210.5,-1078.5 304.5,-1078.5 "/>
<text text-anchor="middle" x="257.5" y="-1063.3" font-family="Times,serif" font-size="14.00">0x16D367040</text>
<polyline fill="none" stroke="black" points="210.5,-1055.5 304.5,-1055.5 "/>
<text text-anchor="middle" x="257.5" y="-1040.3" font-family="Times,serif" font-size="14.00">value = 0</text>
</g>
<!-- Node_4&#45;&gt;Node_5 -->
<g id="edge6" class="edge">
<title>Node_4&#45;&gt;Node_5</title>
<path fill="none" stroke="blue" d="M152.5,-1161.37C152.5,-1152.86 152.5,-1143.87 152.5,-1135.09"/>
<polygon fill="blue" stroke="blue" points="156,-1134.92 152.5,-1124.92 149,-1134.92 156,-1134.92"/>
</g>
<!-- Node_6 -->
<g id="node6" class="node">
<title>Node_6</title>
<path fill="#ffded7" stroke="black" d="M80.5,-903.5C80.5,-903.5 224.5,-903.5 224.5,-903.5 230.5,-903.5 236.5,-909.5 236.5,-915.5 236.5,-915.5 236.5,-983.5 236.5,-983.5 236.5,-989.5 230.5,-995.5 224.5,-995.5 224.5,-995.5 80.5,-995.5 80.5,-995.5 74.5,-995.5 68.5,-989.5 68.5,-983.5 68.5,-983.5 68.5,-915.5 68.5,-915.5 68.5,-909.5 74.5,-903.5 80.5,-903.5"/>
<text text-anchor="middle" x="105.5" y="-945.8" font-family="Times,serif" font-size="14.00">Destructor</text>
<polyline fill="none" stroke="black" points="142.5,-903.5 142.5,-995.5 "/>
<text text-anchor="middle" x="189.5" y="-980.3" font-family="Times,serif" font-size="14.00">tmp_1</text>
<polyline fill="none" stroke="black" points="142.5,-972.5 236.5,-972.5 "/>
<text text-anchor="middle" x="189.5" y="-957.3" font-family="Times,serif" font-size="14.00">#2</text>
<polyline fill="none" stroke="black" points="142.5,-949.5 236.5,-949.5 "/>
<text text-anchor="middle" x="189.5" y="-934.3" font-family="Times,serif" font-size="14.00">0x16D367040</text>
<polyline fill="none" stroke="black" points="142.5,-926.5 236.5,-926.5 "/>
<text text-anchor="middle" x="189.5" y="-911.3" font-family="Times,serif" font-size="14.00">value = 0</text>
</g>
<!-- Node_5&#45;&gt;Node_6 -->
<g id="edge7" class="edge">
<title>Node_5&#45;&gt;Node_6</title>
<path fill="none" stroke="blue" d="M152.5,-1032.37C152.5,-1023.86 152.5,-1014.87 152.5,-1006.09"/>
<polygon fill="blue" stroke="blue" points="156,-1005.92 152.5,-995.92 149,-1005.92 156,-1005.92"/>
</g>
<!-- Node_6&#45;&gt;Node_4 -->
<g id="edge8" class="edge">
<title>Node_6:f1&#45;&gt;Node_4:f1</title>
<path fill="none" stroke="grey" stroke-dasharray="5,2" d="M237.5,-984.5C277.33,-984.5 294.19,-997.16 313.5,-1032 359.81,-1115.56 340.98,-1233.83 250.66,-1242.05"/>
<polygon fill="grey" stroke="grey" points="250.33,-1238.56 240.5,-1242.5 250.65,-1245.55 250.33,-1238.56"/>
</g>
<!-- Node_7 -->
<g id="node7" class="node">
<title>Node_7</title>
<polygon fill="#03c500" stroke="black" points="0,-774.5 0,-866.5 305,-866.5 305,-774.5 0,-774.5"/>
<text text-anchor="middle" x="58" y="-816.8" font-family="Times,serif" font-size="14.00">Move Constructor</text>
<polyline fill="none" stroke="black" points="116,-774.5 116,-866.5 "/>
<text text-anchor="middle" x="163.5" y="-851.3" font-family="Times,serif" font-size="14.00">tmp_2</text>
<polyline fill="none" stroke="black" points="116,-843.5 211,-843.5 "/>
<text text-anchor="middle" x="163.5" y="-828.3" font-family="Times,serif" font-size="14.00">#4</text>
<polyline fill="none" stroke="black" points="116,-820.5 211,-820.5 "/>
<text text-anchor="middle" x="163.5" y="-805.3" font-family="Times,serif" font-size="14.00">0x16D3670F8</text>
<polyline fill="none" stroke="black" points="116,-797.5 211,-797.5 "/>
<text text-anchor="middle" x="163.5" y="-782.3" font-family="Times,serif" font-size="14.00">value = 0</text>
<polyline fill="none" stroke="black" points="211,-774.5 211,-866.5 "/>
<text text-anchor="middle" x="258" y="-851.3" font-family="Times,serif" font-size="14.00">res</text>
<polyline fill="none" stroke="black" points="211,-843.5 305,-843.5 "/>
<text text-anchor="middle" x="258" y="-828.3" font-family="Times,serif" font-size="14.00">#3</text>
<polyline fill="none" stroke="black" points="211,-820.5 305,-820.5 "/>
<text text-anchor="middle" x="258" y="-805.3" font-family="Times,serif" font-size="14.00">0x16D367068</text>
<polyline fill="none" stroke="black" points="211,-797.5 305,-797.5 "/>
<text text-anchor="middle" x="258" y="-782.3" font-family="Times,serif" font-size="14.00">value = 0</text>
</g>
<!-- Node_6&#45;&gt;Node_7 -->
<g id="edge9" class="edge">
<title>Node_6&#45;&gt;Node_7</title>
<path fill="none" stroke="blue" d="M152.5,-903.37C152.5,-894.86 152.5,-885.87 152.5,-877.09"/>
<polygon fill="blue" stroke="blue" points="156,-876.92 152.5,-866.92 149,-876.92 156,-876.92"/>
</g>
<!-- Node_8 -->
<g id="node8" class="node">
<title>Node_8</title>
<path fill="#ffded7" stroke="black" d="M80.5,-645.5C80.5,-645.5 224.5,-645.5 224.5,-645.5 230.5,-645.5 236.5,-651.5 236.5,-657.5 236.5,-657.5 236.5,-725.5 236.5,-725.5 236.5,-731.5 230.5,-737.5 224.5,-737.5 224.5,-737.5 80.5,-737.5 80.5,-737.5 74.5,-737.5 68.5,-731.5 68.5,-725.5 68.5,-725.5 68.5,-657.5 68.5,-657.5 68.5,-651.5 74.5,-645.5 80.5,-645.5"/>
<text text-anchor="middle" x="105.5" y="-687.8" font-family="Times,serif" font-size="14.00">Destructor</text>
<polyline fill="none" stroke="black" points="142.5,-645.5 142.5,-737.5 "/>
<text text-anchor="middle" x="189.5" y="-722.3" font-family="Times,serif" font-size="14.00">res</text>
<polyline fill="none" stroke="black" points="142.5,-714.5 236.5,-714.5 "/>
<text text-anchor="middle" x="189.5" y="-699.3" font-family="Times,serif" font-size="14.00">#3</text>
<polyline fill="none" stroke="black" points="142.5,-691.5 236.5,-691.5 "/>
<text text-anchor="middle" x="189.5" y="-676.3" font-family="Times,serif" font-size="14.00">0x16D367068</text>
<polyline fill="none" stroke="black" points="142.5,-668.5 236.5,-668.5 "/>
<text text-anchor="middle" x="189.5" y="-653.3" font-family="Times,serif" font-size="14.00">value = 0</text>
</g>
<!-- Node_7&#45;&gt;Node_8 -->
<g id="edge10" class="edge">
<title>Node_7&#45;&gt;Node_8</title>
<path fill="none" stroke="blue" d="M152.5,-774.37C152.5,-765.86 152.5,-756.87 152.5,-748.09"/>
<polygon fill="blue" stroke="blue" points="156,-747.92 152.5,-737.92 149,-747.92 156,-747.92"/>
</g>
<!-- Node_8&#45;&gt;Node_5 -->
<g id="edge11" class="edge">
<title>Node_8:f1&#45;&gt;Node_5:f1</title>
<path fill="none" stroke="grey" stroke-dasharray="5,2" d="M237.5,-726.5C277.71,-726.5 294.9,-738.89 314.5,-774 352.47,-842.04 360.47,-1070.28 304.5,-1124.5 295.01,-1133.7 201.15,-1139.24 172.06,-1131.34"/>
<polygon fill="grey" stroke="grey" points="173.73,-1128.24 163.5,-1125.5 169.79,-1134.03 173.73,-1128.24"/>
</g>
<!-- Node_9 -->
<g id="node9" class="node">
<title>Node_9</title>
<polygon fill="#03c500" stroke="black" points="0,-516.5 0,-608.5 305,-608.5 305,-516.5 0,-516.5"/>
<text text-anchor="middle" x="58" y="-558.8" font-family="Times,serif" font-size="14.00">Move Constructor</text>
<polyline fill="none" stroke="black" points="116,-516.5 116,-608.5 "/>
<text text-anchor="middle" x="163" y="-593.3" font-family="Times,serif" font-size="14.00">c</text>
<polyline fill="none" stroke="black" points="116,-585.5 210,-585.5 "/>
<text text-anchor="middle" x="163" y="-570.3" font-family="Times,serif" font-size="14.00">#5</text>
<polyline fill="none" stroke="black" points="116,-562.5 210,-562.5 "/>
<text text-anchor="middle" x="163" y="-547.3" font-family="Times,serif" font-size="14.00">0x16D367120</text>
<polyline fill="none" stroke="black" points="116,-539.5 210,-539.5 "/>
<text text-anchor="middle" x="163" y="-524.3" font-family="Times,serif" font-size="14.00">value = 0</text>
<polyline fill="none" stroke="black" points="210,-516.5 210,-608.5 "/>
<text text-anchor="middle" x="257.5" y="-593.3" font-family="Times,serif" font-size="14.00">tmp_2</text>
<polyline fill="none" stroke="black" points="210,-585.5 305,-585.5 "/>
<text text-anchor="middle" x="257.5" y="-570.3" font-family="Times,serif" font-size="14.00">#4</text>
<polyline fill="none" stroke="black" points="210,-562.5 305,-562.5 "/>
<text text-anchor="middle" x="257.5" y="-547.3" font-family="Times,serif" font-size="14.00">0x16D3670F8</text>
<polyline fill="none" stroke="black" points="210,-539.5 305,-539.5 "/>
<text text-anchor="middle" x="257.5" y="-524.3" font-family="Times,serif" font-size="14.00">value = 0</text>
</g>
<!-- Node_8&#45;&gt;Node_9 -->
<g id="edge12" class="edge">
<title>Node_8&#45;&gt;Node_9</title>
<path fill="none" stroke="blue" d="M152.5,-645.37C152.5,-636.86 152.5,-627.87 152.5,-619.09"/>
<polygon fill="blue" stroke="blue" points="156,-618.92 152.5,-608.92 149,-618.92 156,-618.92"/>
</g>
<!-- Node_10 -->
<g id="node10" class="node">
<title>Node_10</title>
<path fill="#ffded7" stroke="black" d="M80,-387.5C80,-387.5 225,-387.5 225,-387.5 231,-387.5 237,-393.5 237,-399.5 237,-399.5 237,-467.5 237,-467.5 237,-473.5 231,-479.5 225,-479.5 225,-479.5 80,-479.5 80,-479.5 74,-479.5 68,-473.5 68,-467.5 68,-467.5 68,-399.5 68,-399.5 68,-393.5 74,-387.5 80,-387.5"/>
<text text-anchor="middle" x="105" y="-429.8" font-family="Times,serif" font-size="14.00">Destructor</text>
<polyline fill="none" stroke="black" points="142,-387.5 142,-479.5 "/>
<text text-anchor="middle" x="189.5" y="-464.3" font-family="Times,serif" font-size="14.00">tmp_2</text>
<polyline fill="none" stroke="black" points="142,-456.5 237,-456.5 "/>
<text text-anchor="middle" x="189.5" y="-441.3" font-family="Times,serif" font-size="14.00">#4</text>
<polyline fill="none" stroke="black" points="142,-433.5 237,-433.5 "/>
<text text-anchor="middle" x="189.5" y="-418.3" font-family="Times,serif" font-size="14.00">0x16D3670F8</text>
<polyline fill="none" stroke="black" points="142,-410.5 237,-410.5 "/>
<text text-anchor="middle" x="189.5" y="-395.3" font-family="Times,serif" font-size="14.00">value = 0</text>
</g>
<!-- Node_9&#45;&gt;Node_10 -->
<g id="edge13" class="edge">
<title>Node_9&#45;&gt;Node_10</title>
<path fill="none" stroke="blue" d="M152.5,-516.37C152.5,-507.86 152.5,-498.87 152.5,-490.09"/>
<polygon fill="blue" stroke="blue" points="156,-489.92 152.5,-479.92 149,-489.92 156,-489.92"/>
</g>
<!-- Node_10&#45;&gt;Node_7 -->
<g id="edge14" class="edge">
<title>Node_10:f1&#45;&gt;Node_7:f1</title>
<path fill="none" stroke="grey" stroke-dasharray="5,2" d="M238.5,-468.5C278.33,-468.5 295.19,-481.16 314.5,-516 352.27,-584.15 360.91,-812.23 305,-866.5 295.44,-875.78 200.42,-881.34 171.69,-873.25"/>
<polygon fill="grey" stroke="grey" points="173.7,-870.38 163.5,-867.5 169.67,-876.11 173.7,-870.38"/>
</g>
<!-- Node_11 -->
<g id="node11" class="node">
<title>Node_11</title>
<path fill="#ffded7" stroke="black" d="M80.5,-258.5C80.5,-258.5 224.5,-258.5 224.5,-258.5 230.5,-258.5 236.5,-264.5 236.5,-270.5 236.5,-270.5 236.5,-338.5 236.5,-338.5 236.5,-344.5 230.5,-350.5 224.5,-350.5 224.5,-350.5 80.5,-350.5 80.5,-350.5 74.5,-350.5 68.5,-344.5 68.5,-338.5 68.5,-338.5 68.5,-270.5 68.5,-270.5 68.5,-264.5 74.5,-258.5 80.5,-258.5"/>
<text text-anchor="middle" x="105.5" y="-300.8" font-family="Times,serif" font-size="14.00">Destructor</text>
<polyline fill="none" stroke="black" points="142.5,-258.5 142.5,-350.5 "/>
<text text-anchor="middle" x="189.5" y="-335.3" font-family="Times,serif" font-size="14.00">c</text>
<polyline fill="none" stroke="black" points="142.5,-327.5 236.5,-327.5 "/>
<text text-anchor="middle" x="189.5" y="-312.3" font-family="Times,serif" font-size="14.00">#5</text>
<polyline fill="none" stroke="black" points="142.5,-304.5 236.5,-304.5 "/>
<text text-anchor="middle" x="189.5" y="-289.3" font-family="Times,serif" font-size="14.00">0x16D367120</text>
<polyline fill="none" stroke="black" points="142.5,-281.5 236.5,-281.5 "/>
<text text-anchor="middle" x="189.5" y="-266.3" font-family="Times,serif" font-size="14.00">value = 0</text>
</g>
<!-- Node_10&#45;&gt;Node_11 -->
<g id="edge15" class="edge">
<title>Node_10&#45;&gt;Node_11</title>
<path fill="none" stroke="blue" d="M152.5,-387.37C152.5,-378.86 152.5,-369.87 152.5,-361.09"/>
<polygon fill="blue" stroke="blue" points="156,-360.92 152.5,-350.92 149,-360.92 156,-360.92"/>
</g>
<!-- Node_11&#45;&gt;Node_9 -->
<g id="edge16" class="edge">
<title>Node_11:f1&#45;&gt;Node_9:f1</title>
<path fill="none" stroke="grey" stroke-dasharray="5,2" d="M237.5,-339.5C281.56,-339.5 377.81,-535.17 305,-608.5 295.61,-617.96 200.47,-623.4 171.7,-615.26"/>
<polygon fill="grey" stroke="grey" points="173.69,-612.38 163.5,-609.5 169.67,-618.11 173.69,-612.38"/>
</g>
<!-- Node_12 -->
<g id="node12" class="node">
<title>Node_12</title>
<path fill="#ffded7" stroke="black" d="M80.5,-129.5C80.5,-129.5 224.5,-129.5 224.5,-129.5 230.5,-129.5 236.5,-135.5 236.5,-141.5 236.5,-141.5 236.5,-209.5 236.5,-209.5 236.5,-215.5 230.5,-221.5 224.5,-221.5 224.5,-221.5 80.5,-221.5 80.5,-221.5 74.5,-221.5 68.5,-215.5 68.5,-209.5 68.5,-209.5 68.5,-141.5 68.5,-141.5 68.5,-135.5 74.5,-129.5 80.5,-129.5"/>
<text text-anchor="middle" x="105.5" y="-171.8" font-family="Times,serif" font-size="14.00">Destructor</text>
<polyline fill="none" stroke="black" points="142.5,-129.5 142.5,-221.5 "/>
<text text-anchor="middle" x="189.5" y="-206.3" font-family="Times,serif" font-size="14.00">b</text>
<polyline fill="none" stroke="black" points="142.5,-198.5 236.5,-198.5 "/>
<text text-anchor="middle" x="189.5" y="-183.3" font-family="Times,serif" font-size="14.00">#1</text>
<polyline fill="none" stroke="black" points="142.5,-175.5 236.5,-175.5 "/>
<text text-anchor="middle" x="189.5" y="-160.3" font-family="Times,serif" font-size="14.00">0x16D367160</text>
<polyline fill="none" stroke="black" points="142.5,-152.5 236.5,-152.5 "/>
<text text-anchor="middle" x="189.5" y="-137.3" font-family="Times,serif" font-size="14.00">value = 0</text>
</g>
<!-- Node_11&#45;&gt;Node_12 -->
<g id="edge17" class="edge">
<title>Node_11&#45;&gt;Node_12</title>
<path fill="none" stroke="blue" d="M152.5,-258.37C152.5,-249.86 152.5,-240.87 152.5,-232.09"/>
<polygon fill="blue" stroke="blue" points="156,-231.92 152.5,-221.92 149,-231.92 156,-231.92"/>
</g>
<!-- Node_12&#45;&gt;Node_2 -->
<g id="edge18" class="edge">
<title>Node_12:f1&#45;&gt;Node_2:f1</title>
<path fill="none" stroke="grey" stroke-dasharray="5,2" d="M237.5,-210.5C352.75,-210.5 371.5,-317.25 371.5,-432.5 371.5,-1208.5 371.5,-1208.5 371.5,-1208.5 371.5,-1347.27 382.2,-1493.19 250.65,-1500.23"/>
<polygon fill="grey" stroke="grey" points="250.4,-1496.74 240.5,-1500.5 250.59,-1503.74 250.4,-1496.74"/>
</g>
<!-- Node_13 -->
<g id="node13" class="node">
<title>Node_13</title>
<path fill="#ffded7" stroke="black" d="M79.5,-0.5C79.5,-0.5 225.5,-0.5 225.5,-0.5 231.5,-0.5 237.5,-6.5 237.5,-12.5 237.5,-12.5 237.5,-80.5 237.5,-80.5 237.5,-86.5 231.5,-92.5 225.5,-92.5 225.5,-92.5 79.5,-92.5 79.5,-92.5 73.5,-92.5 67.5,-86.5 67.5,-80.5 67.5,-80.5 67.5,-12.5 67.5,-12.5 67.5,-6.5 73.5,-0.5 79.5,-0.5"/>
<text text-anchor="middle" x="104.5" y="-42.8" font-family="Times,serif" font-size="14.00">Destructor</text>
<polyline fill="none" stroke="black" points="141.5,-0.5 141.5,-92.5 "/>
<text text-anchor="middle" x="189.5" y="-77.3" font-family="Times,serif" font-size="14.00">a</text>
<polyline fill="none" stroke="black" points="141.5,-69.5 237.5,-69.5 "/>
<text text-anchor="middle" x="189.5" y="-54.3" font-family="Times,serif" font-size="14.00">#0</text>
<polyline fill="none" stroke="black" points="141.5,-46.5 237.5,-46.5 "/>
<text text-anchor="middle" x="189.5" y="-31.3" font-family="Times,serif" font-size="14.00">0x16D3671B0</text>
<polyline fill="none" stroke="black" points="141.5,-23.5 237.5,-23.5 "/>
<text text-anchor="middle" x="189.5" y="-8.3" font-family="Times,serif" font-size="14.00">value = 0</text>
</g>
<!-- Node_12&#45;&gt;Node_13 -->
<g id="edge19" class="edge">
<title>Node_12&#45;&gt;Node_13</title>
<path fill="none" stroke="blue" d="M152.5,-129.37C152.5,-120.86 152.5,-111.87 152.5,-103.09"/>
<polygon fill="blue" stroke="blue" points="156,-102.92 152.5,-92.92 149,-102.92 156,-102.92"/>
</g>
<!-- Node_13&#45;&gt;Node_1 -->
<g id="edge20" class="edge">
<title>Node_13:f1&#45;&gt;Node_1:f1</title>
<path fill="none" stroke="grey" stroke-dasharray="5,2" d="M238.5,-81.5C363.04,-81.5 409.5,-178.96 409.5,-303.5 409.5,-1337.5 409.5,-1337.5 409.5,-1337.5 409.5,-1483.72 392.07,-1622.83 251.81,-1629.27"/>
<polygon fill="grey" stroke="grey" points="251.42,-1625.78 241.5,-1629.5 251.58,-1632.77 251.42,-1625.78"/>
</g>
</g>
</svg>
