<?xml version="1.0" encoding="UTF-8" standalone="no"?>
<!DOCTYPE svg PUBLIC "-//W3C//DTD SVG 1.1//EN"
 "http://www.w3.org/Graphics/SVG/1.1/DTD/svg11.dtd">
<!-- Generated by graphviz version 2.50.0 (20211204.2007)
 -->
<!-- Title: G Pages: 1 -->
<svg width="418pt" height="1405pt"
 viewBox="0.00 0.00 417.50 1405.12" xmlns="http://www.w3.org/2000/svg" xmlns:xlink="http://www.w3.org/1999/xlink">
<g id="graph0" class="graph" transform="scale(1 1) rotate(0) translate(4 1401.12)">
<title>G</title>
<polygon fill="white" stroke="transparent" points="-4,4 -4,-1401.12 413.5,-1401.12 413.5,4 -4,4"/>
<!-- Node_1 -->
<g id="node1" class="node">
<title>Node_1</title>
<polygon fill="darkcyan" stroke="black" points="64.5,-1290.5 64.5,-1382.5 240.5,-1382.5 240.5,-1290.5 64.5,-1290.5"/>
<text text-anchor="middle" x="104.5" y="-1332.8" font-family="Times,serif" font-size="14.00">Constructor</text>
<polyline fill="none" stroke="black" points="144.5,-1290.5 144.5,-1382.5 "/>
<text text-anchor="middle" x="192.5" y="-1367.3" font-family="Times,serif" font-size="14.00">a</text>
<polyline fill="none" stroke="black" points="144.5,-1359.5 240.5,-1359.5 "/>
<text text-anchor="middle" x="192.5" y="-1344.3" font-family="Times,serif" font-size="14.00">#0</text>
<polyline fill="none" stroke="black" points="144.5,-1336.5 240.5,-1336.5 "/>
<text text-anchor="middle" x="192.5" y="-1321.3" font-family="Times,serif" font-size="14.00">0x16D1471B0</text>
<polyline fill="none" stroke="black" points="144.5,-1313.5 240.5,-1313.5 "/>
<text text-anchor="middle" x="192.5" y="-1298.3" font-family="Times,serif" font-size="14.00">value = 0</text>
</g>
<!-- Node_2 -->
<g id="node2" class="node">
<title>Node_2</title>
<polygon fill="darkcyan" stroke="black" points="65.5,-1161.5 65.5,-1253.5 239.5,-1253.5 239.5,-1161.5 65.5,-1161.5"/>
<text text-anchor="middle" x="105.5" y="-1203.8" font-family="Times,serif" font-size="14.00">Constructor</text>
<polyline fill="none" stroke="black" points="145.5,-1161.5 145.5,-1253.5 "/>
<text text-anchor="middle" x="192.5" y="-1238.3" font-family="Times,serif" font-size="14.00">b</text>
<polyline fill="none" stroke="black" points="145.5,-1230.5 239.5,-1230.5 "/>
<text text-anchor="middle" x="192.5" y="-1215.3" font-family="Times,serif" font-size="14.00">#1</text>
<polyline fill="none" stroke="black" points="145.5,-1207.5 239.5,-1207.5 "/>
<text text-anchor="middle" x="192.5" y="-1192.3" font-family="Times,serif" font-size="14.00">0x16D147160</text>
<polyline fill="none" stroke="black" points="145.5,-1184.5 239.5,-1184.5 "/>
<text text-anchor="middle" x="192.5" y="-1169.3" font-family="Times,serif" font-size="14.00">value = 0</text>
</g>
<!-- Node_1&#45;&gt;Node_2 -->
<g id="edge1" class="edge">
<title>Node_1&#45;&gt;Node_2</title>
<path fill="none" stroke="blue" d="M152.5,-1290.37C152.5,-1281.86 152.5,-1272.87 152.5,-1264.09"/>
<polygon fill="blue" stroke="blue" points="156,-1263.92 152.5,-1253.92 149,-1263.92 156,-1263.92"/>
</g>
<!-- Node_3 -->
<g id="node3" class="node">
<title>Node_3</title>
<path fill="Yellow" stroke="black" d="M39,-1032.5C39,-1032.5 266,-1032.5 266,-1032.5 272,-1032.5 278,-1038.5 278,-1044.5 278,-1044.5 278,-1112.5 278,-1112.5 278,-1118.5 272,-1124.5 266,-1124.5 266,-1124.5 39,-1124.5 39,-1124.5 33,-1124.5 27,-1118.5 27,-1112.5 27,-1112.5 27,-1044.5 27,-1044.5 27,-1038.5 33,-1032.5 39,-1032.5"/>
<text text-anchor="middle" x="57.5" y="-1074.8" font-family="Times,serif" font-size="14.00">[BIN] +</text>
<polyline fill="none" stroke="black" points="88,-1032.5 88,-1124.5 "/>
<text text-anchor="middle" x="136" y="-1109.3" font-family="Times,serif" font-size="14.00">a</text>
<polyline fill="none" stroke="black" points="88,-1101.5 184,-1101.5 "/>
<text text-anchor="middle" x="136" y="-1086.3" font-family="Times,serif" font-size="14.00">#0</text>
<polyline fill="none" stroke="black" points="88,-1078.5 184,-1078.5 "/>
<text text-anchor="middle" x="136" y="-1063.3" font-family="Times,serif" font-size="14.00">0x16D1471B0</text>
<polyline fill="none" stroke="black" points="88,-1055.5 184,-1055.5 "/>
<text text-anchor="middle" x="136" y="-1040.3" font-family="Times,serif" font-size="14.00">value = 0</text>
<polyline fill="none" stroke="black" points="184,-1032.5 184,-1124.5 "/>
<text text-anchor="middle" x="231" y="-1109.3" font-family="Times,serif" font-size="14.00">b</text>
<polyline fill="none" stroke="black" points="184,-1101.5 278,-1101.5 "/>
<text text-anchor="middle" x="231" y="-1086.3" font-family="Times,serif" font-size="14.00">#1</text>
<polyline fill="none" stroke="black" points="184,-1078.5 278,-1078.5 "/>
<text text-anchor="middle" x="231" y="-1063.3" font-family="Times,serif" font-size="14.00">0x16D147160</text>
<polyline fill="none" stroke="black" points="184,-1055.5 278,-1055.5 "/>
<text text-anchor="middle" x="231" y="-1040.3" font-family="Times,serif" font-size="14.00">value = 0</text>
</g>
<!-- Node_2&#45;&gt;Node_3 -->
<g id="edge2" class="edge">
<title>Node_2&#45;&gt;Node_3</title>
<path fill="none" stroke="blue" d="M152.5,-1161.37C152.5,-1152.86 152.5,-1143.87 152.5,-1135.09"/>
<polygon fill="blue" stroke="blue" points="156,-1134.92 152.5,-1124.92 149,-1134.92 156,-1134.92"/>
</g>
<!-- Node_3&#45;&gt;Node_1 -->
<g id="edge3" class="edge">
<title>Node_3:f1&#45;&gt;Node_1:f1</title>
<path fill="none" stroke="grey" stroke-dasharray="5,2" d="M135.5,-1125C135.5,-1163.58 77.37,-1128.55 56.5,-1161 34.14,-1195.76 30.23,-1222.09 56.5,-1254 109.46,-1318.33 187.54,-1225.67 240.5,-1290 266.63,-1321.74 269.27,-1353.13 240.5,-1382.5 228.6,-1394.65 205.19,-1401.62 196.16,-1393.15"/>
<polygon fill="grey" stroke="grey" points="199.32,-1391.61 192.5,-1383.5 192.78,-1394.09 199.32,-1391.61"/>
</g>
<!-- Node_3&#45;&gt;Node_2 -->
<g id="edge4" class="edge">
<title>Node_3:f2&#45;&gt;Node_2:f1</title>
<path fill="none" stroke="gray" stroke-dasharray="5,2" d="M231.5,-1125C231.5,-1141.39 237.71,-1144.71 239.5,-1161 243.99,-1201.87 268.26,-1224.12 239.5,-1253.5 227.85,-1265.4 204.92,-1272.24 196.09,-1263.95"/>
<polygon fill="gray" stroke="gray" points="199.32,-1262.61 192.5,-1254.5 192.78,-1265.09 199.32,-1262.61"/>
</g>
<!-- Node_4 -->
<g id="node4" class="node">
<title>Node_4</title>
<polygon fill="darkcyan" stroke="black" points="65.5,-903.5 65.5,-995.5 239.5,-995.5 239.5,-903.5 65.5,-903.5"/>
<text text-anchor="middle" x="105.5" y="-945.8" font-family="Times,serif" font-size="14.00">Constructor</text>
<polyline fill="none" stroke="black" points="145.5,-903.5 145.5,-995.5 "/>
<text text-anchor="middle" x="192.5" y="-980.3" font-family="Times,serif" font-size="14.00">tmp_1</text>
<polyline fill="none" stroke="black" points="145.5,-972.5 239.5,-972.5 "/>
<text text-anchor="middle" x="192.5" y="-957.3" font-family="Times,serif" font-size="14.00">#2</text>
<polyline fill="none" stroke="black" points="145.5,-949.5 239.5,-949.5 "/>
<text text-anchor="middle" x="192.5" y="-934.3" font-family="Times,serif" font-size="14.00">0x16D147060</text>
<polyline fill="none" stroke="black" points="145.5,-926.5 239.5,-926.5 "/>
<text text-anchor="middle" x="192.5" y="-911.3" font-family="Times,serif" font-size="14.00">value = 0</text>
</g>
<!-- Node_3&#45;&gt;Node_4 -->
<g id="edge5" class="edge">
<title>Node_3&#45;&gt;Node_4</title>
<path fill="none" stroke="blue" d="M152.5,-1032.37C152.5,-1023.86 152.5,-1014.87 152.5,-1006.09"/>
<polygon fill="blue" stroke="blue" points="156,-1005.92 152.5,-995.92 149,-1005.92 156,-1005.92"/>
</g>
<!-- Node_5 -->
<g id="node5" class="node">
<title>Node_5</title>
<polygon fill="#03c500" stroke="black" points="0,-774.5 0,-866.5 305,-866.5 305,-774.5 0,-774.5"/>
<text text-anchor="middle" x="58" y="-816.8" font-family="Times,serif" font-size="14.00">Move Constructor</text>
<polyline fill="none" stroke="black" points="116,-774.5 116,-866.5 "/>
<text text-anchor="middle" x="163.5" y="-851.3" font-family="Times,serif" font-size="14.00">res</text>
<polyline fill="none" stroke="black" points="116,-843.5 211,-843.5 "/>
<text text-anchor="middle" x="163.5" y="-828.3" font-family="Times,serif" font-size="14.00">#3</text>
<polyline fill="none" stroke="black" points="116,-820.5 211,-820.5 "/>
<text text-anchor="middle" x="163.5" y="-805.3" font-family="Times,serif" font-size="14.00">0x16D1470F8</text>
<polyline fill="none" stroke="black" points="116,-797.5 211,-797.5 "/>
<text text-anchor="middle" x="163.5" y="-782.3" font-family="Times,serif" font-size="14.00">value = 0</text>
<polyline fill="none" stroke="black" points="211,-774.5 211,-866.5 "/>
<text text-anchor="middle" x="258" y="-851.3" font-family="Times,serif" font-size="14.00">tmp_1</text>
<polyline fill="none" stroke="black" points="211,-843.5 305,-843.5 "/>
<text text-anchor="middle" x="258" y="-828.3" font-family="Times,serif" font-size="14.00">#2</text>
<polyline fill="none" stroke="black" points="211,-820.5 305,-820.5 "/>
<text text-anchor="middle" x="258" y="-805.3" font-family="Times,serif" font-size="14.00">0x16D147060</text>
<polyline fill="none" stroke="black" points="211,-797.5 305,-797.5 "/>
<text text-anchor="middle" x="258" y="-782.3" font-family="Times,serif" font-size="14.00">value = 0</text>
</g>
<!-- Node_4&#45;&gt;Node_5 -->
<g id="edge6" class="edge">
<title>Node_4&#45;&gt;Node_5</title>
<path fill="none" stroke="blue" d="M152.5,-903.37C152.5,-894.86 152.5,-885.87 152.5,-877.09"/>
<polygon fill="blue" stroke="blue" points="156,-876.92 152.5,-866.92 149,-876.92 156,-876.92"/>
</g>
<!-- Node_6 -->
<g id="node6" class="node">
<title>Node_6</title>
<path fill="#ffded7" stroke="black" d="M80.5,-645.5C80.5,-645.5 224.5,-645.5 224.5,-645.5 230.5,-645.5 236.5,-651.5 236.5,-657.5 236.5,-657.5 236.5,-725.5 236.5,-725.5 236.5,-731.5 230.5,-737.5 224.5,-737.5 224.5,-737.5 80.5,-737.5 80.5,-737.5 74.5,-737.5 68.5,-731.5 68.5,-725.5 68.5,-725.5 68.5,-657.5 68.5,-657.5 68.5,-651.5 74.5,-645.5 80.5,-645.5"/>
<text text-anchor="middle" x="105.5" y="-687.8" font-family="Times,serif" font-size="14.00">Destructor</text>
<polyline fill="none" stroke="black" points="142.5,-645.5 142.5,-737.5 "/>
<text text-anchor="middle" x="189.5" y="-722.3" font-family="Times,serif" font-size="14.00">tmp_1</text>
<polyline fill="none" stroke="black" points="142.5,-714.5 236.5,-714.5 "/>
<text text-anchor="middle" x="189.5" y="-699.3" font-family="Times,serif" font-size="14.00">#2</text>
<polyline fill="none" stroke="black" points="142.5,-691.5 236.5,-691.5 "/>
<text text-anchor="middle" x="189.5" y="-676.3" font-family="Times,serif" font-size="14.00">0x16D147060</text>
<polyline fill="none" stroke="black" points="142.5,-668.5 236.5,-668.5 "/>
<text text-anchor="middle" x="189.5" y="-653.3" font-family="Times,serif" font-size="14.00">value = 0</text>
</g>
<!-- Node_5&#45;&gt;Node_6 -->
<g id="edge7" class="edge">
<title>Node_5&#45;&gt;Node_6</title>
<path fill="none" stroke="blue" d="M152.5,-774.37C152.5,-765.86 152.5,-756.87 152.5,-748.09"/>
<polygon fill="blue" stroke="blue" points="156,-747.92 152.5,-737.92 149,-747.92 156,-747.92"/>
</g>
<!-- Node_6&#45;&gt;Node_4 -->
<g id="edge8" class="edge">
<title>Node_6:f1&#45;&gt;Node_4:f1</title>
<path fill="none" stroke="grey" stroke-dasharray="5,2" d="M237.5,-726.5C277.71,-726.5 294.9,-738.89 314.5,-774 361.13,-857.55 341.21,-975.83 250.68,-984.05"/>
<polygon fill="grey" stroke="grey" points="250.33,-980.56 240.5,-984.5 250.65,-987.55 250.33,-980.56"/>
</g>
<!-- Node_7 -->
<g id="node7" class="node">
<title>Node_7</title>
<polygon fill="#03c500" stroke="black" points="0,-516.5 0,-608.5 305,-608.5 305,-516.5 0,-516.5"/>
<text text-anchor="middle" x="58" y="-558.8" font-family="Times,serif" font-size="14.00">Move Constructor</text>
<polyline fill="none" stroke="black" points="116,-516.5 116,-608.5 "/>
<text text-anchor="middle" x="163" y="-593.3" font-family="Times,serif" font-size="14.00">c</text>
<polyline fill="none" stroke="black" points="116,-585.5 210,-585.5 "/>
<text text-anchor="middle" x="163" y="-570.3" font-family="Times,serif" font-size="14.00">#4</text>
<polyline fill="none" stroke="black" points="116,-562.5 210,-562.5 "/>
<text text-anchor="middle" x="163" y="-547.3" font-family="Times,serif" font-size="14.00">0x16D147120</text>
<polyline fill="none" stroke="black" points="116,-539.5 210,-539.5 "/>
<text text-anchor="middle" x="163" y="-524.3" font-family="Times,serif" font-size="14.00">value = 0</text>
<polyline fill="none" stroke="black" points="210,-516.5 210,-608.5 "/>
<text text-anchor="middle" x="257.5" y="-593.3" font-family="Times,serif" font-size="14.00">res</text>
<polyline fill="none" stroke="black" points="210,-585.5 305,-585.5 "/>
<text text-anchor="middle" x="257.5" y="-570.3" font-family="Times,serif" font-size="14.00">#3</text>
<polyline fill="none" stroke="black" points="210,-562.5 305,-562.5 "/>
<text text-anchor="middle" x="257.5" y="-547.3" font-family="Times,serif" font-size="14.00">0x16D1470F8</text>
<polyline fill="none" stroke="black" points="210,-539.5 305,-539.5 "/>
<text text-anchor="middle" x="257.5" y="-524.3" font-family="Times,serif" font-size="14.00">value = 0</text>
</g>
<!-- Node_6&#45;&gt;Node_7 -->
<g id="edge9" class="edge">
<title>Node_6&#45;&gt;Node_7</title>
<path fill="none" stroke="blue" d="M152.5,-645.37C152.5,-636.86 152.5,-627.87 152.5,-619.09"/>
<polygon fill="blue" stroke="blue" points="156,-618.92 152.5,-608.92 149,-618.92 156,-618.92"/>
</g>
<!-- Node_8 -->
<g id="node8" class="node">
<title>Node_8</title>
<path fill="#ffded7" stroke="black" d="M80,-387.5C80,-387.5 225,-387.5 225,-387.5 231,-387.5 237,-393.5 237,-399.5 237,-399.5 237,-467.5 237,-467.5 237,-473.5 231,-479.5 225,-479.5 225,-479.5 80,-479.5 80,-479.5 74,-479.5 68,-473.5 68,-467.5 68,-467.5 68,-399.5 68,-399.5 68,-393.5 74,-387.5 80,-387.5"/>
<text text-anchor="middle" x="105" y="-429.8" font-family="Times,serif" font-size="14.00">Destructor</text>
<polyline fill="none" stroke="black" points="142,-387.5 142,-479.5 "/>
<text text-anchor="middle" x="189.5" y="-464.3" font-family="Times,serif" font-size="14.00">res</text>
<polyline fill="none" stroke="black" points="142,-456.5 237,-456.5 "/>
<text text-anchor="middle" x="189.5" y="-441.3" font-family="Times,serif" font-size="14.00">#3</text>
<polyline fill="none" stroke="black" points="142,-433.5 237,-433.5 "/>
<text text-anchor="middle" x="189.5" y="-418.3" font-family="Times,serif" font-size="14.00">0x16D1470F8</text>
<polyline fill="none" stroke="black" points="142,-410.5 237,-410.5 "/>
<text text-anchor="middle" x="189.5" y="-395.3" font-family="Times,serif" font-size="14.00">value = 0</text>
</g>
<!-- Node_7&#45;&gt;Node_8 -->
<g id="edge10" class="edge">
<title>Node_7&#45;&gt;Node_8</title>
<path fill="none" stroke="blue" d="M152.5,-516.37C152.5,-507.86 152.5,-498.87 152.5,-490.09"/>
<polygon fill="blue" stroke="blue" points="156,-489.92 152.5,-479.92 149,-489.92 156,-489.92"/>
</g>
<!-- Node_8&#45;&gt;Node_5 -->
<g id="edge11" class="edge">
<title>Node_8:f1&#45;&gt;Node_5:f1</title>
<path fill="none" stroke="grey" stroke-dasharray="5,2" d="M238.5,-468.5C278.33,-468.5 295.19,-481.16 314.5,-516 352.27,-584.15 360.91,-812.23 305,-866.5 295.44,-875.78 200.42,-881.34 171.69,-873.25"/>
<polygon fill="grey" stroke="grey" points="173.7,-870.38 163.5,-867.5 169.67,-876.11 173.7,-870.38"/>
</g>
<!-- Node_9 -->
<g id="node9" class="node">
<title>Node_9</title>
<path fill="#ffded7" stroke="black" d="M80.5,-258.5C80.5,-258.5 224.5,-258.5 224.5,-258.5 230.5,-258.5 236.5,-264.5 236.5,-270.5 236.5,-270.5 236.5,-338.5 236.5,-338.5 236.5,-344.5 230.5,-350.5 224.5,-350.5 224.5,-350.5 80.5,-350.5 80.5,-350.5 74.5,-350.5 68.5,-344.5 68.5,-338.5 68.5,-338.5 68.5,-270.5 68.5,-270.5 68.5,-264.5 74.5,-258.5 80.5,-258.5"/>
<text text-anchor="middle" x="105.5" y="-300.8" font-family="Times,serif" font-size="14.00">Destructor</text>
<polyline fill="none" stroke="black" points="142.5,-258.5 142.5,-350.5 "/>
<text text-anchor="middle" x="189.5" y="-335.3" font-family="Times,serif" font-size="14.00">c</text>
<polyline fill="none" stroke="black" points="142.5,-327.5 236.5,-327.5 "/>
<text text-anchor="middle" x="189.5" y="-312.3" font-family="Times,serif" font-size="14.00">#4</text>
<polyline fill="none" stroke="black" points="142.5,-304.5 236.5,-304.5 "/>
<text text-anchor="middle" x="189.5" y="-289.3" font-family="Times,serif" font-size="14.00">0x16D147120</text>
<polyline fill="none" stroke="black" points="142.5,-281.5 236.5,-281.5 "/>
<text text-anchor="middle" x="189.5" y="-266.3" font-family="Times,serif" font-size="14.00">value = 0</text>
</g>
<!-- Node_8&#45;&gt;Node_9 -->
<g id="edge12" class="edge">
<title>Node_8&#45;&gt;Node_9</title>
<path fill="none" stroke="blue" d="M152.5,-387.37C152.5,-378.86 152.5,-369.87 152.5,-361.09"/>
<polygon fill="blue" stroke="blue" points="156,-360.92 152.5,-350.92 149,-360.92 156,-360.92"/>
</g>
<!-- Node_9&#45;&gt;Node_7 -->
<g id="edge13" class="edge">
<title>Node_9:f1&#45;&gt;Node_7:f1</title>
<path fill="none" stroke="grey" stroke-dasharray="5,2" d="M237.5,-339.5C281.56,-339.5 377.81,-535.17 305,-608.5 295.61,-617.96 200.47,-623.4 171.7,-615.26"/>
<polygon fill="grey" stroke="grey" points="173.69,-612.38 163.5,-609.5 169.67,-618.11 173.69,-612.38"/>
</g>
<!-- Node_10 -->
<g id="node10" class="node">
<title>Node_10</title>
<path fill="#ffded7" stroke="black" d="M80.5,-129.5C80.5,-129.5 224.5,-129.5 224.5,-129.5 230.5,-129.5 236.5,-135.5 236.5,-141.5 236.5,-141.5 236.5,-209.5 236.5,-209.5 236.5,-215.5 230.5,-221.5 224.5,-221.5 224.5,-221.5 80.5,-221.5 80.5,-221.5 74.5,-221.5 68.5,-215.5 68.5,-209.5 68.5,-209.5 68.5,-141.5 68.5,-141.5 68.5,-135.5 74.5,-129.5 80.5,-129.5"/>
<text text-anchor="middle" x="105.5" y="-171.8" font-family="Times,serif" font-size="14.00">Destructor</text>
<polyline fill="none" stroke="black" points="142.5,-129.5 142.5,-221.5 "/>
<text text-anchor="middle" x="189.5" y="-206.3" font-family="Times,serif" font-size="14.00">b</text>
<polyline fill="none" stroke="black" points="142.5,-198.5 236.5,-198.5 "/>
<text text-anchor="middle" x="189.5" y="-183.3" font-family="Times,serif" font-size="14.00">#1</text>
<polyline fill="none" stroke="black" points="142.5,-175.5 236.5,-175.5 "/>
<text text-anchor="middle" x="189.5" y="-160.3" font-family="Times,serif" font-size="14.00">0x16D147160</text>
<polyline fill="none" stroke="black" points="142.5,-152.5 236.5,-152.5 "/>
<text text-anchor="middle" x="189.5" y="-137.3" font-family="Times,serif" font-size="14.00">value = 0</text>
</g>
<!-- Node_9&#45;&gt;Node_10 -->
<g id="edge14" class="edge">
<title>Node_9&#45;&gt;Node_10</title>
<path fill="none" stroke="blue" d="M152.5,-258.37C152.5,-249.86 152.5,-240.87 152.5,-232.09"/>
<polygon fill="blue" stroke="blue" points="156,-231.92 152.5,-221.92 149,-231.92 156,-231.92"/>
</g>
<!-- Node_10&#45;&gt;Node_2 -->
<g id="edge15" class="edge">
<title>Node_10:f1&#45;&gt;Node_2:f1</title>
<path fill="none" stroke="grey" stroke-dasharray="5,2" d="M237.5,-210.5C352.75,-210.5 371.5,-317.25 371.5,-432.5 371.5,-950.5 371.5,-950.5 371.5,-950.5 371.5,-1089.27 382.2,-1235.19 250.65,-1242.23"/>
<polygon fill="grey" stroke="grey" points="250.4,-1238.74 240.5,-1242.5 250.59,-1245.74 250.4,-1238.74"/>
</g>
<!-- Node_11 -->
<g id="node11" class="node">
<title>Node_11</title>
<path fill="#ffded7" stroke="black" d="M79.5,-0.5C79.5,-0.5 225.5,-0.5 225.5,-0.5 231.5,-0.5 237.5,-6.5 237.5,-12.5 237.5,-12.5 237.5,-80.5 237.5,-80.5 237.5,-86.5 231.5,-92.5 225.5,-92.5 225.5,-92.5 79.5,-92.5 79.5,-92.5 73.5,-92.5 67.5,-86.5 67.5,-80.5 67.5,-80.5 67.5,-12.5 67.5,-12.5 67.5,-6.5 73.5,-0.5 79.5,-0.5"/>
<text text-anchor="middle" x="104.5" y="-42.8" font-family="Times,serif" font-size="14.00">Destructor</text>
<polyline fill="none" stroke="black" points="141.5,-0.5 141.5,-92.5 "/>
<text text-anchor="middle" x="189.5" y="-77.3" font-family="Times,serif" font-size="14.00">a</text>
<polyline fill="none" stroke="black" points="141.5,-69.5 237.5,-69.5 "/>
<text text-anchor="middle" x="189.5" y="-54.3" font-family="Times,serif" font-size="14.00">#0</text>
<polyline fill="none" stroke="black" points="141.5,-46.5 237.5,-46.5 "/>
<text text-anchor="middle" x="189.5" y="-31.3" font-family="Times,serif" font-size="14.00">0x16D1471B0</text>
<polyline fill="none" stroke="black" points="141.5,-23.5 237.5,-23.5 "/>
<text text-anchor="middle" x="189.5" y="-8.3" font-family="Times,serif" font-size="14.00">value = 0</text>
</g>
<!-- Node_10&#45;&gt;Node_11 -->
<g id="edge16" class="edge">
<title>Node_10&#45;&gt;Node_11</title>
<path fill="none" stroke="blue" d="M152.5,-129.37C152.5,-120.86 152.5,-111.87 152.5,-103.09"/>
<polygon fill="blue" stroke="blue" points="156,-102.92 152.5,-92.92 149,-102.92 156,-102.92"/>
</g>
<!-- Node_11&#45;&gt;Node_1 -->
<g id="edge17" class="edge">
<title>Node_11:f1&#45;&gt;Node_1:f1</title>
<path fill="none" stroke="grey" stroke-dasharray="5,2" d="M238.5,-81.5C363.04,-81.5 409.5,-178.96 409.5,-303.5 409.5,-1079.5 409.5,-1079.5 409.5,-1079.5 409.5,-1225.72 392.07,-1364.83 251.81,-1371.27"/>
<polygon fill="grey" stroke="grey" points="251.42,-1367.78 241.5,-1371.5 251.58,-1374.77 251.42,-1367.78"/>
</g>
</g>
</svg>
