<?xml version="1.0" encoding="UTF-8" standalone="no"?>
<!DOCTYPE svg PUBLIC "-//W3C//DTD SVG 1.1//EN"
 "http://www.w3.org/Graphics/SVG/1.1/DTD/svg11.dtd">
<!-- Generated by graphviz version 3.0.0 (20220226.1711)
 -->
<!-- Title: G Pages: 1 -->
<svg width="456pt" height="1133pt"
 viewBox="0.00 0.00 455.73 1133.00" xmlns="http://www.w3.org/2000/svg" xmlns:xlink="http://www.w3.org/1999/xlink">
<g id="graph0" class="graph" transform="scale(1 1) rotate(0) translate(4 1129)">
<title>G</title>
<polygon fill="white" stroke="transparent" points="-4,4 -4,-1129 451.73,-1129 451.73,4 -4,4"/>
<!-- Node_1 -->
<g id="node1" class="node">
<title>Node_1</title>
<polygon fill="darkcyan" stroke="black" points="83.73,-1032.5 83.73,-1124.5 261.73,-1124.5 261.73,-1032.5 83.73,-1032.5"/>
<text text-anchor="middle" x="123.73" y="-1074.8" font-family="Times,serif" font-size="14.00">Constructor</text>
<polyline fill="none" stroke="black" points="163.73,-1032.5 163.73,-1124.5 "/>
<text text-anchor="middle" x="212.73" y="-1109.3" font-family="Times,serif" font-size="14.00">a</text>
<polyline fill="none" stroke="black" points="163.73,-1101.5 261.73,-1101.5 "/>
<text text-anchor="middle" x="212.73" y="-1086.3" font-family="Times,serif" font-size="14.00">#0</text>
<polyline fill="none" stroke="black" points="163.73,-1078.5 261.73,-1078.5 "/>
<text text-anchor="middle" x="212.73" y="-1063.3" font-family="Times,serif" font-size="14.00">0x16DC071B0</text>
<polyline fill="none" stroke="black" points="163.73,-1055.5 261.73,-1055.5 "/>
<text text-anchor="middle" x="212.73" y="-1040.3" font-family="Times,serif" font-size="14.00">value = 0</text>
</g>
<!-- Node_2 -->
<g id="node2" class="node">
<title>Node_2</title>
<polygon fill="darkcyan" stroke="black" points="84.73,-903.5 84.73,-995.5 260.73,-995.5 260.73,-903.5 84.73,-903.5"/>
<text text-anchor="middle" x="124.73" y="-945.8" font-family="Times,serif" font-size="14.00">Constructor</text>
<polyline fill="none" stroke="black" points="164.73,-903.5 164.73,-995.5 "/>
<text text-anchor="middle" x="212.73" y="-980.3" font-family="Times,serif" font-size="14.00">c</text>
<polyline fill="none" stroke="black" points="164.73,-972.5 260.73,-972.5 "/>
<text text-anchor="middle" x="212.73" y="-957.3" font-family="Times,serif" font-size="14.00">#1</text>
<polyline fill="none" stroke="black" points="164.73,-949.5 260.73,-949.5 "/>
<text text-anchor="middle" x="212.73" y="-934.3" font-family="Times,serif" font-size="14.00">0x16DC07160</text>
<polyline fill="none" stroke="black" points="164.73,-926.5 260.73,-926.5 "/>
<text text-anchor="middle" x="212.73" y="-911.3" font-family="Times,serif" font-size="14.00">value = 2</text>
</g>
<!-- Node_1&#45;&gt;Node_2 -->
<g id="edge1" class="edge">
<title>Node_1&#45;&gt;Node_2</title>
<path fill="none" stroke="blue" d="M172.73,-1032.37C172.73,-1023.86 172.73,-1014.87 172.73,-1006.09"/>
<polygon fill="blue" stroke="blue" points="176.23,-1005.92 172.73,-995.92 169.23,-1005.92 176.23,-1005.92"/>
</g>
<!-- Node_3 -->
<g id="node3" class="node">
<title>Node_3</title>
<polygon fill="#ff6e50" stroke="black" points="18.73,-774.5 18.73,-866.5 326.73,-866.5 326.73,-774.5 18.73,-774.5"/>
<text text-anchor="middle" x="75.23" y="-816.8" font-family="Times,serif" font-size="14.00">Copy Constructor</text>
<polyline fill="none" stroke="black" points="131.73,-774.5 131.73,-866.5 "/>
<text text-anchor="middle" x="180.23" y="-851.3" font-family="Times,serif" font-size="14.00">tmp_1</text>
<polyline fill="none" stroke="black" points="131.73,-843.5 228.73,-843.5 "/>
<text text-anchor="middle" x="180.23" y="-828.3" font-family="Times,serif" font-size="14.00">#2</text>
<polyline fill="none" stroke="black" points="131.73,-820.5 228.73,-820.5 "/>
<text text-anchor="middle" x="180.23" y="-805.3" font-family="Times,serif" font-size="14.00">0x16DC070F8</text>
<polyline fill="none" stroke="black" points="131.73,-797.5 228.73,-797.5 "/>
<text text-anchor="middle" x="180.23" y="-782.3" font-family="Times,serif" font-size="14.00">value = 0</text>
<polyline fill="none" stroke="black" points="228.73,-774.5 228.73,-866.5 "/>
<text text-anchor="middle" x="277.73" y="-851.3" font-family="Times,serif" font-size="14.00">a</text>
<polyline fill="none" stroke="black" points="228.73,-843.5 326.73,-843.5 "/>
<text text-anchor="middle" x="277.73" y="-828.3" font-family="Times,serif" font-size="14.00">#0</text>
<polyline fill="none" stroke="black" points="228.73,-820.5 326.73,-820.5 "/>
<text text-anchor="middle" x="277.73" y="-805.3" font-family="Times,serif" font-size="14.00">0x16DC071B0</text>
<polyline fill="none" stroke="black" points="228.73,-797.5 326.73,-797.5 "/>
<text text-anchor="middle" x="277.73" y="-782.3" font-family="Times,serif" font-size="14.00">value = 0</text>
</g>
<!-- Node_2&#45;&gt;Node_3 -->
<g id="edge2" class="edge">
<title>Node_2&#45;&gt;Node_3</title>
<path fill="none" stroke="blue" d="M172.73,-903.37C172.73,-894.86 172.73,-885.87 172.73,-877.09"/>
<polygon fill="blue" stroke="blue" points="176.23,-876.92 172.73,-866.92 169.23,-876.92 176.23,-876.92"/>
</g>
<!-- Node_4 -->
<g id="node4" class="node">
<title>Node_4</title>
<polygon fill="#ff6e50" stroke="black" points="19.73,-645.5 19.73,-737.5 325.73,-737.5 325.73,-645.5 19.73,-645.5"/>
<text text-anchor="middle" x="76.23" y="-687.8" font-family="Times,serif" font-size="14.00">Copy Constructor</text>
<polyline fill="none" stroke="black" points="132.73,-645.5 132.73,-737.5 "/>
<text text-anchor="middle" x="180.73" y="-722.3" font-family="Times,serif" font-size="14.00">tmp_2</text>
<polyline fill="none" stroke="black" points="132.73,-714.5 228.73,-714.5 "/>
<text text-anchor="middle" x="180.73" y="-699.3" font-family="Times,serif" font-size="14.00">#3</text>
<polyline fill="none" stroke="black" points="132.73,-691.5 228.73,-691.5 "/>
<text text-anchor="middle" x="180.73" y="-676.3" font-family="Times,serif" font-size="14.00">0x16DC07120</text>
<polyline fill="none" stroke="black" points="132.73,-668.5 228.73,-668.5 "/>
<text text-anchor="middle" x="180.73" y="-653.3" font-family="Times,serif" font-size="14.00">value = 0</text>
<polyline fill="none" stroke="black" points="228.73,-645.5 228.73,-737.5 "/>
<text text-anchor="middle" x="277.23" y="-722.3" font-family="Times,serif" font-size="14.00">tmp_1</text>
<polyline fill="none" stroke="black" points="228.73,-714.5 325.73,-714.5 "/>
<text text-anchor="middle" x="277.23" y="-699.3" font-family="Times,serif" font-size="14.00">#2</text>
<polyline fill="none" stroke="black" points="228.73,-691.5 325.73,-691.5 "/>
<text text-anchor="middle" x="277.23" y="-676.3" font-family="Times,serif" font-size="14.00">0x16DC070F8</text>
<polyline fill="none" stroke="black" points="228.73,-668.5 325.73,-668.5 "/>
<text text-anchor="middle" x="277.23" y="-653.3" font-family="Times,serif" font-size="14.00">value = 0</text>
</g>
<!-- Node_3&#45;&gt;Node_4 -->
<g id="edge3" class="edge">
<title>Node_3&#45;&gt;Node_4</title>
<path fill="none" stroke="blue" d="M172.73,-774.37C172.73,-765.86 172.73,-756.87 172.73,-748.09"/>
<polygon fill="blue" stroke="blue" points="176.23,-747.92 172.73,-737.92 169.23,-747.92 176.23,-747.92"/>
</g>
<!-- Node_5 -->
<g id="node5" class="node">
<title>Node_5</title>
<path fill="#ff6e50" stroke="black" d="M51.73,-516.5C51.73,-516.5 293.73,-516.5 293.73,-516.5 299.73,-516.5 305.73,-522.5 305.73,-528.5 305.73,-528.5 305.73,-596.5 305.73,-596.5 305.73,-602.5 299.73,-608.5 293.73,-608.5 293.73,-608.5 51.73,-608.5 51.73,-608.5 45.73,-608.5 39.73,-602.5 39.73,-596.5 39.73,-596.5 39.73,-528.5 39.73,-528.5 39.73,-522.5 45.73,-516.5 51.73,-516.5"/>
<text text-anchor="middle" x="76.73" y="-558.8" font-family="Times,serif" font-size="14.00">[COPY] =</text>
<polyline fill="none" stroke="black" points="113.73,-516.5 113.73,-608.5 "/>
<text text-anchor="middle" x="161.73" y="-593.3" font-family="Times,serif" font-size="14.00">c</text>
<polyline fill="none" stroke="black" points="113.73,-585.5 209.73,-585.5 "/>
<text text-anchor="middle" x="161.73" y="-570.3" font-family="Times,serif" font-size="14.00">#1</text>
<polyline fill="none" stroke="black" points="113.73,-562.5 209.73,-562.5 "/>
<text text-anchor="middle" x="161.73" y="-547.3" font-family="Times,serif" font-size="14.00">0x16DC07160</text>
<polyline fill="none" stroke="black" points="113.73,-539.5 209.73,-539.5 "/>
<text text-anchor="middle" x="161.73" y="-524.3" font-family="Times,serif" font-size="14.00">value = 2</text>
<polyline fill="none" stroke="black" points="209.73,-516.5 209.73,-608.5 "/>
<text text-anchor="middle" x="257.73" y="-593.3" font-family="Times,serif" font-size="14.00">tmp_2</text>
<polyline fill="none" stroke="black" points="209.73,-585.5 305.73,-585.5 "/>
<text text-anchor="middle" x="257.73" y="-570.3" font-family="Times,serif" font-size="14.00">#3</text>
<polyline fill="none" stroke="black" points="209.73,-562.5 305.73,-562.5 "/>
<text text-anchor="middle" x="257.73" y="-547.3" font-family="Times,serif" font-size="14.00">0x16DC07120</text>
<polyline fill="none" stroke="black" points="209.73,-539.5 305.73,-539.5 "/>
<text text-anchor="middle" x="257.73" y="-524.3" font-family="Times,serif" font-size="14.00">value = 0</text>
</g>
<!-- Node_4&#45;&gt;Node_5 -->
<g id="edge4" class="edge">
<title>Node_4&#45;&gt;Node_5</title>
<path fill="none" stroke="blue" d="M172.73,-645.37C172.73,-636.86 172.73,-627.87 172.73,-619.09"/>
<polygon fill="blue" stroke="blue" points="176.23,-618.92 172.73,-608.92 169.23,-618.92 176.23,-618.92"/>
</g>
<!-- Node_5&#45;&gt;Node_2 -->
<g id="edge5" class="edge">
<title>Node_5:f1&#45;&gt;Node_2:f1</title>
<path fill="none" stroke="grey" stroke-dasharray="5,2" d="M161.73,-609C161.73,-677.99 53.69,-591.02 10.73,-645 -4.33,-663.92 -2.32,-853.1 9.73,-867 83.55,-952.16 186.91,-817.84 260.73,-903 287.66,-934.07 289.5,-966.13 260.73,-995.5 248.83,-1007.65 225.42,-1014.62 216.39,-1006.15"/>
<polygon fill="grey" stroke="grey" points="219.55,-1004.61 212.73,-996.5 213.01,-1007.09 219.55,-1004.61"/>
</g>
<!-- Node_5&#45;&gt;Node_4 -->
<g id="edge6" class="edge">
<title>Node_5:f2&#45;&gt;Node_4:f1</title>
<path fill="none" stroke="gray" stroke-dasharray="5,2" d="M257.73,-609C257.73,-643.2 308.09,-615.7 325.73,-645 346.93,-680.22 354.7,-708.33 325.73,-737.5 316.11,-747.19 218.61,-752.75 189.13,-744.4"/>
<polygon fill="gray" stroke="gray" points="190.92,-741.39 180.73,-738.5 186.9,-747.11 190.92,-741.39"/>
</g>
<!-- Node_6 -->
<g id="node6" class="node">
<title>Node_6</title>
<path fill="#ffded7" stroke="black" d="M99.73,-387.5C99.73,-387.5 245.73,-387.5 245.73,-387.5 251.73,-387.5 257.73,-393.5 257.73,-399.5 257.73,-399.5 257.73,-467.5 257.73,-467.5 257.73,-473.5 251.73,-479.5 245.73,-479.5 245.73,-479.5 99.73,-479.5 99.73,-479.5 93.73,-479.5 87.73,-473.5 87.73,-467.5 87.73,-467.5 87.73,-399.5 87.73,-399.5 87.73,-393.5 93.73,-387.5 99.73,-387.5"/>
<text text-anchor="middle" x="124.73" y="-429.8" font-family="Times,serif" font-size="14.00">Destructor</text>
<polyline fill="none" stroke="black" points="161.73,-387.5 161.73,-479.5 "/>
<text text-anchor="middle" x="209.73" y="-464.3" font-family="Times,serif" font-size="14.00">tmp_2</text>
<polyline fill="none" stroke="black" points="161.73,-456.5 257.73,-456.5 "/>
<text text-anchor="middle" x="209.73" y="-441.3" font-family="Times,serif" font-size="14.00">#3</text>
<polyline fill="none" stroke="black" points="161.73,-433.5 257.73,-433.5 "/>
<text text-anchor="middle" x="209.73" y="-418.3" font-family="Times,serif" font-size="14.00">0x16DC07120</text>
<polyline fill="none" stroke="black" points="161.73,-410.5 257.73,-410.5 "/>
<text text-anchor="middle" x="209.73" y="-395.3" font-family="Times,serif" font-size="14.00">value = 0</text>
</g>
<!-- Node_5&#45;&gt;Node_6 -->
<g id="edge7" class="edge">
<title>Node_5&#45;&gt;Node_6</title>
<path fill="none" stroke="blue" d="M172.73,-516.37C172.73,-507.86 172.73,-498.87 172.73,-490.09"/>
<polygon fill="blue" stroke="blue" points="176.23,-489.92 172.73,-479.92 169.23,-489.92 176.23,-489.92"/>
</g>
<!-- Node_6&#45;&gt;Node_4 -->
<g id="edge8" class="edge">
<title>Node_6:f1&#45;&gt;Node_4:f1</title>
<path fill="none" stroke="grey" stroke-dasharray="5,2" d="M258.73,-468.5C291.37,-468.5 299.77,-486.99 314.73,-516 322.17,-530.42 344.02,-719.08 325.73,-737.5 316.11,-747.19 218.61,-752.75 189.13,-744.4"/>
<polygon fill="grey" stroke="grey" points="190.92,-741.39 180.73,-738.5 186.9,-747.11 190.92,-741.39"/>
</g>
<!-- Node_7 -->
<g id="node7" class="node">
<title>Node_7</title>
<path fill="#ffded7" stroke="black" d="M99.23,-258.5C99.23,-258.5 246.23,-258.5 246.23,-258.5 252.23,-258.5 258.23,-264.5 258.23,-270.5 258.23,-270.5 258.23,-338.5 258.23,-338.5 258.23,-344.5 252.23,-350.5 246.23,-350.5 246.23,-350.5 99.23,-350.5 99.23,-350.5 93.23,-350.5 87.23,-344.5 87.23,-338.5 87.23,-338.5 87.23,-270.5 87.23,-270.5 87.23,-264.5 93.23,-258.5 99.23,-258.5"/>
<text text-anchor="middle" x="124.23" y="-300.8" font-family="Times,serif" font-size="14.00">Destructor</text>
<polyline fill="none" stroke="black" points="161.23,-258.5 161.23,-350.5 "/>
<text text-anchor="middle" x="209.73" y="-335.3" font-family="Times,serif" font-size="14.00">tmp_1</text>
<polyline fill="none" stroke="black" points="161.23,-327.5 258.23,-327.5 "/>
<text text-anchor="middle" x="209.73" y="-312.3" font-family="Times,serif" font-size="14.00">#2</text>
<polyline fill="none" stroke="black" points="161.23,-304.5 258.23,-304.5 "/>
<text text-anchor="middle" x="209.73" y="-289.3" font-family="Times,serif" font-size="14.00">0x16DC070F8</text>
<polyline fill="none" stroke="black" points="161.23,-281.5 258.23,-281.5 "/>
<text text-anchor="middle" x="209.73" y="-266.3" font-family="Times,serif" font-size="14.00">value = 0</text>
</g>
<!-- Node_6&#45;&gt;Node_7 -->
<g id="edge9" class="edge">
<title>Node_6&#45;&gt;Node_7</title>
<path fill="none" stroke="blue" d="M172.73,-387.37C172.73,-378.86 172.73,-369.87 172.73,-361.09"/>
<polygon fill="blue" stroke="blue" points="176.23,-360.92 172.73,-350.92 169.23,-360.92 176.23,-360.92"/>
</g>
<!-- Node_7&#45;&gt;Node_3 -->
<g id="edge10" class="edge">
<title>Node_7:f1&#45;&gt;Node_3:f1</title>
<path fill="none" stroke="grey" stroke-dasharray="5,2" d="M259.73,-339.5C377.78,-339.5 412.48,-785.36 326.73,-866.5 316.74,-875.95 218.78,-881.75 189.17,-873.42"/>
<polygon fill="grey" stroke="grey" points="190.93,-870.38 180.73,-867.5 186.9,-876.11 190.93,-870.38"/>
</g>
<!-- Node_8 -->
<g id="node8" class="node">
<title>Node_8</title>
<path fill="#ffded7" stroke="black" d="M99.73,-129.5C99.73,-129.5 245.73,-129.5 245.73,-129.5 251.73,-129.5 257.73,-135.5 257.73,-141.5 257.73,-141.5 257.73,-209.5 257.73,-209.5 257.73,-215.5 251.73,-221.5 245.73,-221.5 245.73,-221.5 99.73,-221.5 99.73,-221.5 93.73,-221.5 87.73,-215.5 87.73,-209.5 87.73,-209.5 87.73,-141.5 87.73,-141.5 87.73,-135.5 93.73,-129.5 99.73,-129.5"/>
<text text-anchor="middle" x="124.73" y="-171.8" font-family="Times,serif" font-size="14.00">Destructor</text>
<polyline fill="none" stroke="black" points="161.73,-129.5 161.73,-221.5 "/>
<text text-anchor="middle" x="209.73" y="-206.3" font-family="Times,serif" font-size="14.00">c</text>
<polyline fill="none" stroke="black" points="161.73,-198.5 257.73,-198.5 "/>
<text text-anchor="middle" x="209.73" y="-183.3" font-family="Times,serif" font-size="14.00">#1</text>
<polyline fill="none" stroke="black" points="161.73,-175.5 257.73,-175.5 "/>
<text text-anchor="middle" x="209.73" y="-160.3" font-family="Times,serif" font-size="14.00">0x16DC07160</text>
<polyline fill="none" stroke="black" points="161.73,-152.5 257.73,-152.5 "/>
<text text-anchor="middle" x="209.73" y="-137.3" font-family="Times,serif" font-size="14.00">value = 0</text>
</g>
<!-- Node_7&#45;&gt;Node_8 -->
<g id="edge11" class="edge">
<title>Node_7&#45;&gt;Node_8</title>
<path fill="none" stroke="blue" d="M172.73,-258.37C172.73,-249.86 172.73,-240.87 172.73,-232.09"/>
<polygon fill="blue" stroke="blue" points="176.23,-231.92 172.73,-221.92 169.23,-231.92 176.23,-231.92"/>
</g>
<!-- Node_8&#45;&gt;Node_2 -->
<g id="edge12" class="edge">
<title>Node_8:f1&#45;&gt;Node_2:f1</title>
<path fill="none" stroke="grey" stroke-dasharray="5,2" d="M258.73,-210.5C378.06,-210.5 409.73,-313.17 409.73,-432.5 409.73,-692.5 409.73,-692.5 409.73,-692.5 409.73,-712.89 326.09,-953.67 271.55,-981.82"/>
<polygon fill="grey" stroke="grey" points="270.45,-978.49 261.73,-984.5 272.3,-985.24 270.45,-978.49"/>
</g>
<!-- Node_9 -->
<g id="node9" class="node">
<title>Node_9</title>
<path fill="#ffded7" stroke="black" d="M98.73,-0.5C98.73,-0.5 246.73,-0.5 246.73,-0.5 252.73,-0.5 258.73,-6.5 258.73,-12.5 258.73,-12.5 258.73,-80.5 258.73,-80.5 258.73,-86.5 252.73,-92.5 246.73,-92.5 246.73,-92.5 98.73,-92.5 98.73,-92.5 92.73,-92.5 86.73,-86.5 86.73,-80.5 86.73,-80.5 86.73,-12.5 86.73,-12.5 86.73,-6.5 92.73,-0.5 98.73,-0.5"/>
<text text-anchor="middle" x="123.73" y="-42.8" font-family="Times,serif" font-size="14.00">Destructor</text>
<polyline fill="none" stroke="black" points="160.73,-0.5 160.73,-92.5 "/>
<text text-anchor="middle" x="209.73" y="-77.3" font-family="Times,serif" font-size="14.00">a</text>
<polyline fill="none" stroke="black" points="160.73,-69.5 258.73,-69.5 "/>
<text text-anchor="middle" x="209.73" y="-54.3" font-family="Times,serif" font-size="14.00">#0</text>
<polyline fill="none" stroke="black" points="160.73,-46.5 258.73,-46.5 "/>
<text text-anchor="middle" x="209.73" y="-31.3" font-family="Times,serif" font-size="14.00">0x16DC071B0</text>
<polyline fill="none" stroke="black" points="160.73,-23.5 258.73,-23.5 "/>
<text text-anchor="middle" x="209.73" y="-8.3" font-family="Times,serif" font-size="14.00">value = 0</text>
</g>
<!-- Node_8&#45;&gt;Node_9 -->
<g id="edge13" class="edge">
<title>Node_8&#45;&gt;Node_9</title>
<path fill="none" stroke="blue" d="M172.73,-129.37C172.73,-120.86 172.73,-111.87 172.73,-103.09"/>
<polygon fill="blue" stroke="blue" points="176.23,-102.92 172.73,-92.92 169.23,-102.92 176.23,-102.92"/>
</g>
<!-- Node_9&#45;&gt;Node_1 -->
<g id="edge14" class="edge">
<title>Node_9:f1&#45;&gt;Node_1:f1</title>
<path fill="none" stroke="grey" stroke-dasharray="5,2" d="M259.73,-81.5C389.02,-81.5 447.73,-174.21 447.73,-303.5 447.73,-821.5 447.73,-821.5 447.73,-821.5 447.73,-971.68 417.75,-1107.28 272.9,-1113.29"/>
<polygon fill="grey" stroke="grey" points="272.66,-1109.8 262.73,-1113.5 272.8,-1116.79 272.66,-1109.8"/>
</g>
</g>
</svg>
